<svg width="1750" height="660" viewBox="0 0 1750 660.00002"><path d="M1730.11 512.252h6.152l3.735 2.49q-1.538 22.34-7.47 22.34-38.38 3.442-38.38 9.887v17.43l3.663 1.17q5.64-2.42 16.113-2.42h9.96l3.736 3.66v22.34l-3.74 3.73h-9.96q-14.87 0-14.87-2.49l-4.91 1.24v14.87q0 7.47 9.88 7.47l32.22 6.15 3.73 21.09-3.74 2.49h-50.83q-33.47-6.08-33.47-23.58v-1.25q0-71.63 16.11-100.42 27.54-6.23 62.03-6.23zm-129.273-1.318h8.862q41.67 2.93 41.67 10.107v11.43q0 44.17-59.4 65.7-10.11 6.67-10.11 8.87h11.35q17.21 0 30.32-5.05 4.61 0 15.23 27.83-4.1 11.36-56.91 13.92H1573q-41.75-2.93-41.75-10.1V622.2q0-44.168 59.475-65.7 10.106-6.667 10.106-8.864h-11.42q-17.21 0-30.32 5.053-4.61 0-15.16-27.83 4.03-11.36 56.91-13.92zm-106.787.952h2.417q22.998 0 22.998 14.502l9.668 99.17v4.834q0 11.206-18.164 13.33h-3.59q-3.74 0-8.5-14.502h-2.42q-14.72 14.502-26.59 14.502h-2.42q-44.75-10.913-44.75-25.415l-2.42-55.664 1.17-1.172v-1.24l-1.17-13.25v-18.17l-1.25-4.83q0-8.49 15.74-8.49h12.08q6 0 6 52.01 2.42 0 2.42 12.16v9.67q0 12.09 18.16 16.92h4.83q7.32 0 16.99-14.5l-3.66-45.99 1.24-1.17v-1.24l-1.23-13.34v-15.68l2.42-2.42zm-139.6 0h15.894q31.348 0 45.19 48.78l2.417 20.8q0 30.615-30.54 54.932-9.96 7.324-23.14 7.324-35.81 0-59.84-39.038-4.9-8.423-4.9-14.65v-18.382q0-33.326 35.38-53.687l19.56-6.08zm-21.533 59.253q7.764 27.61 24.243 27.61h5.713q13.403 0 17.285-16.12v-3.44q-6.152-31.13-19.555-31.13h-2.344q-14.14 0-25.35 21.9v1.17zm-120.483-59.18h39.038q37.866 10.32 37.866 37.79 0 12.82-9.814 24.46 18.31 13.84 18.31 30.47 0 18.53-20.727 32.96-4.834 6.08-10.987 6.08h-21.972l-7.325-1.25-1.172 1.24q-29.29-1.17-29.29-9.74l1.25-8.57v-70.75l1.18-4.91-1.17-4.84q0-32.96 4.84-32.96zm23.217 29.29l1.18 23.14 1.25 1.24h1.25q13.84-6.16 20.73-18.31v-1.25q-6.88-12.16-17.06-12.16h-3.66q-2.49 0-3.66 7.32zm7.33 47.53q-3.66 4.54-3.66 17.14v3.66l1.17 4.83-1.17 3.66 1.17 3.66q16.34 0 28.13-20.73 0-10.4-25.63-12.23zm-160.91-76.54h3.66q42.56 7.32 42.56 24.32l8.57 8.57 14.58-20.73q14.87-9.74 35.31-12.16h3.67q7.76 3.95 13.4 58.44v64.52q0 8.49-10.98 8.49h-10.92q-14.21 0-19.48-4.84l2.42-68.19q-19.19 13.04-23.14 29.22l-4.84 3.59h-3.66l-10.99-20.66q-3.66-1.54-7.25-10.99-2.93 0-7.32-6.08V567l2.42 71.85q-5.27 4.84-19.48 4.84h-10.91q-10.99 0-10.99-8.494v-64.5q5.64-54.495 13.41-58.45zm-96.82-.29h25.86q13.99 0 22.2 27.1 30.77 64.45 30.77 93.6 2.49 0 2.49 6.15l-3.66 4.9-14.79-1.25h-20.94q-3.07 0-8.64-28.35l-1.17-1.17q0-6.16-11.13-6.16-11.86-3.74-22.12-3.74-7.39 2.12-7.39 14.79-2.78 0-6.15 12.3-7.4 12.16-9.89 12.3h-7.39l-4.91-1.25-3.66 1.242q-10.98 0-16.04-6.15v-1.247q0-16.626 46.81-109.57 6.08-12.524 9.82-13.55zm16.04 38.16l-11.06 27.1v1.24q0 4.54 20.88 6.15l1.25-1.25v-1.25l-8.57-32.01h-2.49zm-166.78-37.86h38.97q37.72 10.32 37.72 37.72 0 18.45-20.65 32.88v2.41q18.68 15.02 36.48 42.63v1.24q-18.24 12.08-29.22 13.33L864.99 595l-3.66-1.17 1.17 1.173-1.17 6.08v1.244l3.66 34.06q0 6.08-7.32 6.08v1.242q-29.227-1.18-29.227-9.74l1.25-8.5v-70.6l1.17-4.91-1.17-4.84q0-32.89 4.83-32.89zm23.15 29.22l1.25 23.14 1.17 1.17h1.24q13.77-6.08 20.66-18.24v-1.24q-6.81-12.16-16.99-12.16h-3.66q-2.41 0-3.66 7.32zm-40.06-29.88h6.01q2.86 0 4.77 9.52 0 14.29-27.39 14.29l-1.17 1.17h-1.24q3.59 91.33 6.01 97.63 0 6.66-21.46 9.52h-11.87q-13.11-1.83-13.11-5.93 4.76-68.56 7.11-78.59v-16.63l-2.34-2.42q-7.25 3.59-21.46 3.59l-1.17-1.18v-6.01q2.5-22.56 17.88-22.56 18.31-2.42 59.48-2.42zm-84.01 97.93h-38.97l4.18-16.48.44-10.7h39.04l-3.66 11.72 2.13 7.1-3.15 8.35zm-59.25-97.93h6.01q2.86 0 4.76 9.52 0 14.28-27.39 14.28l-1.17 1.17h-1.25q3.59 91.33 6.01 97.63 0 6.66-21.46 9.52h-11.86q-13.11-1.83-13.11-5.93 4.76-68.56 7.11-78.59v-16.63l-2.34-2.42q-7.25 3.59-21.46 3.59l-1.18-1.17v-6.01q2.49-22.56 17.87-22.56 18.31-2.42 59.48-2.42zm-171.09.36h3.44q18.61 2.78 34.35 12.15l13.77 23.21h1.17q0-27.91 9.16-34.21 21.75 0 21.75 8.57l7.99 96.38v9.74l1.17 4.91q-2.71 8.57-13.77 8.57H567.4q-9.155 0-9.155-9.82v-21.9q0-8.93-9.155-13.48-8.35-19.04-21.76-30.47v1.17l2.27 71.99q-4.98 4.9-18.31 4.9h-10.32q-10.33 0-10.33-8.57v-64.67q5.34-54.57 12.6-58.52zm-77.2-.08h15.9q31.35 0 45.19 48.78l2.41 20.8q0 30.61-30.54 54.93-9.96 7.32-23.14 7.32-35.81 0-59.84-39.04-4.9-8.42-4.9-14.65v-18.38q0-33.33 35.38-53.69l19.56-6.08zm-21.53 59.25q7.76 27.61 24.24 27.61h5.72q13.4 0 17.28-16.12v-3.45q-6.15-31.13-19.55-31.13h-2.34q-14.13 0-25.34 21.9v1.17zm-112.79-59.55h39.11q37.94 10.32 37.94 37.94 0 18.53-20.8 33.03-11.5 10.98-29.37 10.98l1.24 1.25-1.24 6.08v1.24l3.66 34.28q0 6.08-7.32 6.08v1.24q-29.37-1.18-29.37-9.82l1.25-8.57v-70.9l1.17-4.9-1.17-4.91q0-33.03 4.91-33.03zm23.22 29.37l1.25 23.22 1.17 1.25h1.24q13.92-6.15 20.8-18.38v-1.18q-6.88-12.23-17.14-12.23h-3.66q-2.41 0-3.66 7.32z" fill="#652a31"/><path d="M915.44 310.956h2.417q22.998 0 22.998 14.502l9.668 99.17v4.834q0 11.206-18.164 13.33h-3.59q-3.74 0-8.5-14.502h-2.42q-14.72 14.502-26.59 14.502h-2.42q-44.75-10.913-44.75-25.415l-2.42-55.664 1.17-1.172v-1.24l-1.17-13.25v-18.17l-1.25-4.83q0-8.49 15.74-8.49h12.08q6 0 6 52.01 2.42 0 2.42 12.16v9.67q0 12.09 18.16 16.92h4.83q7.32 0 16.99-14.5L913 344.83l1.244-1.17v-1.25L913 329.078v-15.68l2.42-2.42zm-139.6 0h15.894q31.348 0 45.19 48.78l2.417 20.8q0 30.616-30.54 54.932-9.96 7.324-23.14 7.324-35.81 0-59.84-39.038-4.9-8.423-4.9-14.648v-18.384q0-33.325 35.38-53.686l19.56-6.08zm-21.533 59.253q7.764 27.61 24.243 27.61h5.713q13.404 0 17.285-16.12v-3.44q-6.152-31.13-19.555-31.13h-2.344q-14.14 0-25.35 21.9v1.17zm-120.997-59.7h14.65l1.245 1.24 1.245-1.25h23.29q37.794 0 46.51 64.89v3.66q0 33.4-34.278 57.57-12.89 6.15-30.615 6.15-28.198-1.54-28.198-9.82l1.24-8.57v-71.04l1.17-4.91-1.17-4.91q0-33.04 4.9-33.04zm22.047 30.61q2.417 5.49 2.417 15.89v34.35l2.49 2.41h8.57q14.208 0 18.31-17.14v-3.67q-6.52-33.11-20.8-33.11h-2.418l-8.57 1.24zm-111.62-30.1h25.853q13.99 0 22.193 27.1 30.76 64.45 30.76 93.6 2.492 0 2.492 6.15l-3.662 4.91-14.795-1.25H585.63q-3.076 0-8.642-28.35l-1.172-1.17q0-6.15-11.133-6.15-11.865-3.74-22.12-3.74-7.396 2.12-7.396 14.79-2.784 0-6.153 12.3-7.397 12.15-9.888 12.3h-7.397l-4.91-1.25-3.66 1.24q-10.99 0-16.04-6.16v-1.24q0-16.62 46.8-109.57 6.08-12.52 9.81-13.55zm16.04 38.16l-11.06 27.1v1.24q0 4.54 20.873 6.15l1.245-1.25v-1.25l-8.57-32.01h-2.49zm-94.85-38.68h7.032q4.46 0 13.03 25.92v3.59q0 1.75-4.76 3.51l-11.79-2.35q-16.56 0-31.94 11.79v1.17q39.62 22.7 46.07 41.38 2.12 0 4.76 12.96 0 13.84-24.83 28.34-17.14 5.93-30.69 5.93h-3.51q-31.94-3.01-31.94-8.28-9.45-7.33-9.45-37.8l1.17-1.17h2.34q26.88 12.96 31.93 12.96h16.55l2.35-2.35v-3.51q-10.77-13.11-41.38-28.42l-12.96-11.79v-9.45q0-15.38 37.79-33.03 22.12-9.45 40.21-9.45zm-100.195 0h7.03q4.47 0 13.038 25.92v3.59q0 1.75-4.76 3.51l-11.792-2.35q-16.553 0-31.934 11.79v1.17q39.624 22.7 46.07 41.38 2.123 0 4.76 12.96 0 13.84-24.83 28.34-17.138 5.93-30.688 5.93h-3.515q-31.93-3.01-31.93-8.28-9.45-7.33-9.45-37.8l1.17-1.17h2.35q26.88 12.96 31.94 12.96h16.56l2.35-2.34v-3.51q-10.76-13.11-41.38-28.42l-12.97-11.78v-9.45q0-15.38 37.79-33.03 22.12-9.45 40.21-9.45zm-161.426.51h25.855q13.99 0 22.2 27.1 30.76 64.45 30.76 93.6 2.49 0 2.49 6.15l-3.66 4.9-14.79-1.25H245.2q-3.075 0-8.642-28.35l-1.172-1.17q0-6.15-11.133-6.15-11.865-3.74-22.12-3.74-7.396 2.12-7.396 14.79-2.783 0-6.153 12.3-7.397 12.16-9.887 12.31H171.3l-4.908-1.25-3.662 1.24q-10.986 0-16.04-6.15v-1.24q0-16.63 46.802-109.57 6.08-12.53 9.814-13.55zm16.04 38.16l-11.06 27.1v1.24q0 4.54 20.875 6.15l1.25-1.25v-1.25l-8.57-32.01h-2.49zm-198.413-38.8H31.92q14.355 0 19.628 4.9l-2.418 73.54q9.82-7.77 9.82-13.48 6.74-2.35 13.48-23.29l1.25-1.25h4.83q3.3 1.46 15.97 23.36 9.16 9.23 12.31 9.74v-1.17l-2.49-67.46q5.273-4.91 19.63-4.91h11.058q9.38 0 10.99 4.91v68.63q-5.64 54.93-13.475 58.89h-3.66q-42.92-7.39-42.92-24.53l-8.57-8.57-14.72 20.88q-14.94 9.81-35.595 12.23h-3.67q-7.768-3.96-13.48-58.89v-64.97q0-8.57 11.06-8.57z" font-size="150" style="line-height:125%;-inkscape-font-specification:'sOuTh Afirkas 2100, '" font-family="sOuTh Afirkas 2100" letter-spacing="0" word-spacing="0" fill="#30632b"/><path d="M1723.927 508.16h6.152l3.73 2.49q-1.54 22.34-7.47 22.34-38.38 3.442-38.38 9.888v17.43l3.66 1.173q5.64-2.41 16.11-2.41h9.96l3.73 3.66v22.34l-3.74 3.74h-9.96q-14.87 0-14.87-2.49l-4.91 1.25v14.87q0 7.47 9.88 7.47l32.23 6.16 3.73 21.1-3.74 2.49h-50.83q-33.48-6.08-33.48-23.58v-1.25q0-71.63 16.11-100.41 27.54-6.22 62.03-6.22zm-129.273-1.318h8.863q41.674 2.93 41.674 10.108v11.426q0 44.165-59.39 65.698-10.11 6.665-10.11 8.862h11.36q17.21 0 30.32-5.054 4.62 0 15.24 27.832-4.1 11.353-56.91 13.916h-8.86q-41.74-2.93-41.74-10.107v-11.426q0-44.165 59.47-65.698 10.11-6.67 10.11-8.87h-11.42q-17.21 0-30.32 5.05-4.61 0-15.16-27.84 4.03-11.35 56.91-13.92zm-106.787.953h2.417q22.998 0 22.998 14.502l9.668 99.17v4.833q0 11.206-18.164 13.33h-3.59q-3.734 0-8.495-14.5h-2.41q-14.72 14.5-26.58 14.5h-2.41q-44.75-10.913-44.75-25.415l-2.41-55.664 1.17-1.17v-1.24l-1.17-13.25v-18.17l-1.24-4.83q0-8.49 15.75-8.49h12.09q6.01 0 6.01 52 2.42 0 2.42 12.16v9.67q0 12.09 18.17 16.92h4.83q7.33 0 16.99-14.5l-3.66-45.99 1.25-1.17v-1.24l-1.25-13.33v-15.67l2.42-2.41zm-139.6 0h15.894q31.35 0 45.19 48.78l2.42 20.8q0 30.615-30.54 54.93-9.96 7.325-23.14 7.325-35.81 0-59.84-39.038-4.9-8.422-4.9-14.648V567.56q0-33.325 35.38-53.686l19.56-6.08zm-21.533 59.252q7.764 27.613 24.243 27.613h5.713q13.404 0 17.286-16.113v-3.443q-6.153-31.128-19.556-31.128h-2.344q-14.136 0-25.342 21.9v1.17zm-120.483-59.18h39.04q37.87 10.328 37.87 37.794 0 12.82-9.81 24.47 18.31 13.84 18.31 30.47 0 18.53-20.72 32.96-4.83 6.08-10.98 6.08h-21.97l-7.32-1.24-1.17 1.25q-29.29-1.17-29.29-9.74l1.25-8.57v-70.75l1.18-4.91-1.17-4.83q0-32.96 4.83-32.96zm23.22 29.298l1.17 23.144 1.25 1.24h1.25q13.85-6.15 20.73-18.31V542q-6.88-12.16-17.06-12.16h-3.66q-2.49 0-3.66 7.325zm7.33 47.534q-3.66 4.54-3.66 17.13v3.66l1.18 4.83-1.17 3.66 1.18 3.66q16.34 0 28.13-20.73 0-10.4-25.63-12.23zm-160.91-76.54h3.67q42.56 7.32 42.56 24.31l8.57 8.57 14.58-20.73q14.87-9.74 35.31-12.16h3.67q7.76 3.95 13.4 58.45v64.52q0 8.49-10.98 8.49h-10.91q-14.21 0-19.48-4.84l2.42-68.19q-19.19 13.04-23.14 29.22l-4.83 3.59h-3.66l-10.98-20.66q-3.66-1.54-7.25-10.99-2.93 0-7.32-6.08v1.24l2.42 71.85q-5.27 4.83-19.48 4.83h-10.91q-10.98 0-10.98-8.5v-64.5q5.64-54.49 13.404-58.45zm-96.82-.3h25.86q13.99 0 22.2 27.1 30.76 64.45 30.76 93.6 2.49 0 2.49 6.15l-3.66 4.9-14.79-1.25h-20.94q-3.07 0-8.64-28.35l-1.17-1.17q0-6.16-11.13-6.16-11.86-3.74-22.11-3.74-7.4 2.12-7.4 14.79-2.78 0-6.15 12.3-7.4 12.16-9.89 12.3h-7.4l-4.9-1.25-3.66 1.24q-10.99 0-16.04-6.16v-1.25q0-16.63 46.8-109.57 6.08-12.52 9.81-13.55zm16.04 38.16l-11.06 27.1v1.24q0 4.54 20.88 6.15l1.25-1.25v-1.25L997.61 546h-2.49zm-166.79-37.86h38.97q37.72 10.32 37.72 37.72 0 18.45-20.65 32.88v2.41q18.68 15.01 36.48 42.62v1.24q-18.23 12.08-29.22 13.33l-32.81-47.46-3.66-1.17 1.17 1.17-1.17 6.08v1.24l3.66 34.05q0 6.08-7.32 6.08v1.24q-29.22-1.17-29.22-9.74l1.25-8.5v-70.6l1.18-4.91-1.17-4.84q0-32.89 4.83-32.89zm23.15 29.22l1.25 23.14 1.18 1.17h1.25q13.77-6.08 20.66-18.24v-1.25q-6.81-12.16-16.99-12.16h-3.66q-2.41 0-3.66 7.32zm-40.06-29.88h6.01q2.86 0 4.76 9.52 0 14.28-27.39 14.28l-1.17 1.17h-1.24q3.58 91.33 6 97.63 0 6.66-21.46 9.52h-11.86q-13.11-1.83-13.11-5.94 4.76-68.56 7.1-78.59v-16.62l-2.35-2.42q-7.25 3.59-21.46 3.59l-1.17-1.18v-6q2.49-22.56 17.87-22.56 18.31-2.42 59.47-2.42zm-84.01 97.92h-38.97l4.18-16.48.44-10.69h39.04l-3.66 11.72 2.13 7.1-3.15 8.35zm-59.25-97.93h6.01q2.86 0 4.76 9.52 0 14.28-27.39 14.28l-1.17 1.17h-1.25q3.59 91.33 6.01 97.63 0 6.66-21.46 9.52h-11.87q-13.11-1.83-13.11-5.94 4.76-68.56 7.11-78.59v-16.62l-2.34-2.42q-7.26 3.59-21.46 3.59l-1.18-1.18v-6q2.49-22.56 17.87-22.56 18.31-2.42 59.47-2.42zm-171.09.37h3.44q18.6 2.78 34.35 12.15l13.77 23.22h1.17q0-27.91 9.15-34.21 21.75 0 21.75 8.57l7.98 96.38v9.74l1.17 4.9q-2.71 8.57-13.77 8.57H561.2q-9.154 0-9.154-9.82v-21.9q0-8.94-9.157-13.48-8.35-19.05-21.76-30.47v1.17l2.27 71.99q-4.98 4.9-18.31 4.9h-10.32q-10.33 0-10.33-8.57v-64.67q5.34-54.57 12.59-58.52zm-77.19-.08h15.9q31.35 0 45.19 48.78l2.42 20.8q0 30.61-30.54 54.93-9.96 7.32-23.14 7.32-35.81 0-59.84-39.03-4.9-8.42-4.9-14.65v-18.39q0-33.32 35.38-53.68l19.56-6.08zm-21.53 59.25q7.77 27.61 24.24 27.61h5.71q13.4 0 17.28-16.12v-3.44q-6.16-31.13-19.56-31.13h-2.34q-14.14 0-25.34 21.9v1.17zm-112.8-59.55h39.12q37.94 10.33 37.94 37.94 0 18.53-20.8 33.03-11.5 10.99-29.37 10.99l1.25 1.24-1.25 6.08V598l3.67 34.27q0 6.08-7.32 6.08v1.24q-29.37-1.17-29.37-9.815l1.25-8.57v-70.89l1.17-4.91-1.17-4.907q0-33.03 4.91-33.03zm23.22 29.37l1.25 23.22 1.17 1.24h1.25q13.92-6.16 20.8-18.39v-1.17q-6.88-12.23-17.14-12.23h-3.66q-2.41 0-3.66 7.33z" fill="#bd6530"/><path d="M909.366 303.172h2.417q22.998 0 22.998 14.502l9.67 99.17v4.834q0 11.206-18.16 13.33h-3.59q-3.73 0-8.49-14.502h-2.41q-14.72 14.502-26.58 14.502h-2.42q-44.75-10.913-44.75-25.415l-2.41-55.664 1.17-1.18v-1.25l-1.17-13.26v-18.16l-1.24-4.84q0-8.5 15.75-8.5h12.08q6.01 0 6.01 52.01 2.42 0 2.42 12.15v9.67q0 12.08 18.17 16.92h4.84q7.33 0 17-14.5L906.98 337l1.245-1.17v-1.24l-1.246-13.33v-15.68l2.41-2.42zm-139.6 0h15.894q31.348 0 45.19 48.78l2.418 20.8q0 30.615-30.542 54.93-9.96 7.326-23.145 7.326-35.81 0-59.83-39.038-4.9-8.423-4.9-14.65v-18.383q0-33.325 35.38-53.686l19.56-6.07zm-21.532 59.253q7.763 27.612 24.243 27.612h5.713q13.403 0 17.285-16.113v-3.443q-6.152-31.12-19.556-31.12h-2.35q-14.14 0-25.34 21.9v1.17zm-120.996-59.693h14.648l1.245 1.245 1.25-1.245h23.29q37.8 0 46.51 64.893v3.662q0 33.398-34.27 57.568-12.89 6.153-30.61 6.153-28.2-1.538-28.2-9.815l1.25-8.57V345.58l1.18-4.908-1.17-4.908q0-33.032 4.91-33.032zm22.045 30.616q2.417 5.493 2.417 15.893v34.36l2.49 2.42h8.57q14.21 0 18.31-17.14v-3.66q-6.518-33.1-20.8-33.1h-2.417l-8.57 1.25zm-111.62-30.103h25.854q13.99 0 22.192 27.1 30.76 64.453 30.76 93.603 2.49 0 2.49 6.152l-3.66 4.908-14.8-1.245h-20.95q-3.08 0-8.65-28.345l-1.17-1.172q0-6.152-11.13-6.152-11.87-3.736-22.12-3.736-7.4 2.124-7.4 14.795-2.79 0-6.15 12.305-7.4 12.158-9.89 12.305h-7.4l-4.91-1.246-3.67 1.246q-10.99 0-16.04-6.153v-1.245q0-16.626 46.8-109.57 6.08-12.525 9.81-13.55zm16.04 38.16l-11.06 27.1v1.244q0 4.54 20.874 6.15l1.245-1.25v-1.25l-8.57-32.01h-2.49zm-94.85-38.673h7.032q4.468 0 13.037 25.928v3.59q0 1.757-4.76 3.514l-11.793-2.343q-16.56 0-31.94 11.8v1.17q39.62 22.71 46.07 41.38 2.12 0 4.76 12.97 0 13.85-24.83 28.35-17.14 5.94-30.69 5.94h-3.52q-31.94-3-31.94-8.27-9.45-7.32-9.45-37.79l1.17-1.17h2.34q26.88 12.97 31.93 12.97h16.55l2.34-2.34v-3.52q-10.77-13.11-41.38-28.42l-12.97-11.8v-9.45q0-15.38 37.79-33.03 22.12-9.44 40.21-9.44zm-100.195 0h7.032q4.467 0 13.037 25.928v3.59q0 1.757-4.76 3.514l-11.793-2.343q-16.553 0-31.934 11.8v1.17q39.625 22.71 46.07 41.38 2.124 0 4.76 12.97 0 13.85-24.83 28.35-17.137 5.94-30.687 5.94h-3.516q-31.933-3-31.933-8.27-9.448-7.32-9.448-37.79l1.17-1.17h2.345q26.88 12.97 31.94 12.97h16.55l2.35-2.34v-3.52q-10.76-13.11-41.38-28.42l-12.96-11.79v-9.45q0-15.38 37.79-33.03 22.12-9.45 40.21-9.45zm-161.425.513h25.854q13.99 0 22.193 27.1 30.76 64.453 30.76 93.603 2.49 0 2.49 6.152l-3.66 4.908-14.796-1.245h-20.947q-3.076 0-8.642-28.345l-1.172-1.172q0-6.152-11.133-6.152-11.865-3.736-22.12-3.736-7.397 2.124-7.397 14.795-2.783 0-6.152 12.305-7.39 12.158-9.88 12.305h-7.39l-4.9-1.246-3.66 1.246q-10.99 0-16.04-6.153v-1.245q0-16.626 46.8-109.57 6.08-12.525 9.82-13.55zm16.04 38.16l-11.06 27.1v1.244q0 4.54 20.874 6.15l1.245-1.25v-1.25l-8.57-32.01h-2.49zM14.86 302.585h10.986q14.355 0 19.63 4.907l-2.418 73.535q9.814-7.764 9.814-13.476 6.74-2.34 13.477-23.29l1.24-1.24h4.83q3.29 1.47 15.96 23.37 9.15 9.23 12.3 9.74v-1.17L98.2 307.5q5.274-4.908 19.63-4.908h11.06q9.374 0 10.985 4.907v68.62q-5.64 54.93-13.478 58.89h-3.662q-42.92-7.4-42.92-24.54l-8.57-8.57-14.72 20.87Q41.585 432.58 20.93 435h-3.66q-7.76-3.957-13.473-58.89v-64.96q0-8.57 11.06-8.57z" font-size="150" fill="#4da654"/><path d="M715.23 202.87h2.872l1.743 1.163q-.718 10.425-3.486 10.425-17.92 1.606-17.92 4.614v8.135l1.71.547q2.63-1.128 7.52-1.128h4.64l1.74 1.71v10.424l-1.75 1.743h-4.65q-6.94 0-6.94-1.162l-2.29.59v6.94q0 3.49 4.61 3.49l15.04 2.87 1.74 9.85-1.75 1.17h-23.72q-15.62-2.83-15.62-11v-.58q0-33.43 7.51-46.86 12.85-2.9 28.95-2.9zm-41.528-.307h2.803q1.333 0 2.222 4.444 0 6.665-12.783 6.665l-.547.547h-.58q1.673 42.62 2.8 45.56 0 3.11-10.013 4.44h-5.537q-6.12-.86-6.12-2.77 2.223-31.99 3.317-36.68v-7.76l-1.094-1.13q-3.384 1.67-10.015 1.67l-.546-.55v-2.8q1.16-10.53 8.33-10.53 8.54-1.13 27.75-1.13zm-57.353.308h8.03q6.87 0 6.87 10.33l5.16 48.74v.58q-.55 1.71-3.42 1.71h-3.45q-8.79 0-14.9-6.32v-53.32l1.71-1.71zm-45.63 0h18.18q17.6 4.82 17.6 17.61 0 8.62-9.64 15.35v1.13q8.71 7.01 17.02 19.89v.58q-8.51 5.64-13.64 6.22l-15.31-22.15-1.71-.54.54.55-.55 2.84v.58l1.71 15.9q0 2.84-3.42 2.84v.58q-13.64-.54-13.64-4.54l.58-3.96V222.8l.55-2.29-.55-2.255q0-15.35 2.25-15.35zm10.8 13.64l.58 10.8.54.55h.58q6.42-2.83 9.64-8.51v-.58q-3.18-5.67-7.93-5.67h-1.71q-1.13 0-1.71 3.42zm-52.57-13.77h12.06q6.53 0 10.35 12.65 14.35 30.08 14.35 43.68 1.16 0 1.16 2.87l-1.71 2.29-6.91-.58h-9.77q-1.44 0-4.04-13.22l-.55-.54q0-2.87-5.2-2.87-5.54-1.74-10.32-1.74-3.45.99-3.45 6.9-1.3 0-2.87 5.75-3.46 5.68-4.62 5.74H514l-2.29-.58-1.71.58q-5.125 0-7.484-2.87v-.58q0-7.76 21.84-51.13 2.84-5.84 4.58-6.32zm7.48 17.81l-5.16 12.65v.58q0 2.12 9.74 2.87l.58-.58v-.58l-4-14.93h-1.17zm-74.78-18.05h6.83l.58.58.58-.58h10.87q17.63 0 21.7 30.29v1.71q0 15.59-16 26.87-6.02 2.87-14.29 2.87-13.16-.71-13.16-4.58l.58-4V222.5l.54-2.29-.55-2.29q0-15.414 2.29-15.414zm10.29 14.29q1.12 2.57 1.12 7.42v16.03l1.16 1.13h4q6.63 0 8.54-7.99v-1.71q-3.05-15.45-9.71-15.45h-1.13l-4 .58zm-34.42-13.91h8.03q6.87 0 6.87 10.32l5.16 48.74v.58q-.55 1.71-3.42 1.71h-3.45q-8.79 0-14.9-6.32v-53.32l1.71-1.71zm-27.93 0h2.32l1.74 1.74-.58 1.75.58 6.94v1.16l.58 17.95-.58 15.62q0 3.25 19.07 4.62 1.16 1.16 2.32 10.43l-1.75 1.17h-2.87q-30.11-.71-30.11-4.61-6.36-14.87-6.36-46.89 0-6.56 15.62-9.84zm-45.77-.17h7.41q14.63 0 21.09 22.77l1.13 9.71q0 14.29-14.25 25.64-4.65 3.42-10.8 3.42-16.72 0-27.93-18.21-2.29-3.93-2.29-6.83v-8.58q0-15.55 16.51-25.05l9.12-2.83zm-10.05 27.65q3.62 12.89 11.31 12.89h2.66q6.25 0 8.06-7.52v-1.6q-2.87-14.52-9.13-14.52h-1.09q-6.6 0-11.83 10.22v.55zm-25.94-27.85h3.28q2.08 0 6.08 12.1v1.68q0 .82-2.22 1.64l-5.5-1.09q-7.73 0-14.91 5.5v.55q18.49 10.6 21.5 19.31.99 0 2.22 6.05 0 6.46-11.59 13.23-8 2.77-14.32 2.77h-1.65q-14.9-1.4-14.9-3.86-4.41-3.41-4.41-17.63l.55-.54h1.09q12.54 6.05 14.9 6.05h7.72l1.09-1.09v-1.64q-5.03-6.12-19.31-13.26l-6.05-5.5v-4.41q0-7.18 17.63-15.41 10.32-4.41 18.76-4.41z" fill="#3d3d3f"/><path d="M1195.857 172.413l-65.714 18.57s-81.43 40-84.286 41.787c-2.857 1.786-53.214 44.286-53.214 44.286l12.5 9.286 11.785 4.28-1.07 76.07-11.43 58.93s46.08 23.93 48.93 24.29c2.856.358 85.356 4.644 85.356 4.644l110.357-7.5 87.86 9.643 83.58 9.28-29.28-29.28 10.36-7.5-12.85-160.71-48.93-55.71-76.44-39.3z" fill="#f0de41"/><g fill="#bea64d"><path d="M1025.143 300.627l.714 38.93-.714 41.785 3.928 2.14 3.22-3.57 8.22-30.356 5.72-17.143 11.07-11.786 8.92-11.428-2.85-4.29h-5.71l-12.5 17.5s-14.64 30.71-14.64 27.85c0-2.86 1.43-32.86 1.43-32.86v-10l-.71-6.43m52.14-73.57l-7.86 14.28-8.57 11.07-5 5.71v4.65s3.22 2.15 4.65 2.15c1.43 0 5-2.14 5-2.14l9.65-15.71 9.29-13.93-.71-3.57zm-34.64 130l-1.79 18.57 1.43 14.64 2.15 18.21.72 5.35s6.43 2.14 6.43-.72c0-2.86-.36-18.22-.36-18.22l-3.57-12.5.72-19.29 1.79-2.5-2.5-5-5-.71zm159.64-40l-1.07 26.07-1.43 12.5-3.21 12.86-.36 12.5 2.5 13.57 5 11.78 3.92 8.57s1.07 3.21 2.5 3.57c1.43.35 5.71-.36 5.71-.36v-6.79l-4.63-6.78-.72-7.15-5.36-9.65 1.08-13.2.35-16.79 3.57-5 1.07-13.93-1.08-13.57-1.79-6.79zm-53.93 20.35l-.35 20.71-.35 24.65 3.93 17.86 4.64 9.65s2.85.36 4.28.36c1.43 0 4.28-.71 4.28-2.14 0-1.43 1.43-3.93 0-4.64-1.43-.71-5.72-11.78-5.72-11.78l-3.57-28.93 1.8-18.22-.36-4.28 3.93 4.65 5.72 20 6.43 14.28v10.36l-.36 3.93-4.29 3.57v5l3.22 3.22 6.07-2.5 5.36-4.28v-10l-3.93-19.64-10.72-33.21-10.72-18.21-5.36-2.5-3.22 1.43-1.79 2.5 3.21 7.14 6.43 10.72-1.07 1.43-5-2.86zm-34.28 38.21l-4.64 11.07-2.85 19.64-4.64 9.28-1.78 13.58 5.36 3.22 7.86-3.21.72-2.85 2.15 6.43 2.14 4.29 9.65 3.22 6.79-2.85-2.14-3.92-7.85-2.5-1.07-16.79-5.71-3.57-8.21 7.86.72-9.64s3.22-3.57 3.58-5.71c.36-2.14 0-12.86 0-12.86l2.86-3.21 3.93-6.07-.35-5-2.86-.71zm-52.5-147.14c-1.43-.72-10.36 1.07-10.36 1.07l-10.36 5-5 6.43-3.22 4.64-4.65 1.43-.72 4.28 3.21 3.57 7.85-2.15 15.36-13.93 9.28-2.86 3.57-3.93zm14.65 38.57v5.71l4.29 1.78 6.08-4.65 10.35-11.78 14.29-6.78 6.42-2.14 6.43-.71 4.28-2.14 3.93 2.5 10-7.14 16.78-14.64 9.28-6.43 11.43-2.5 5.36-1.42-1.43-5.35-7.5-1.07h-12.86l-12.86 10-11.79 12.86-8.58 7.86-7.5-1.79-8.57 2.5-13.93 5.71-11.79 8.58-7.5 7.14zm62.86-71.07l-5.36 6.42-7.15 6.43-5.72 2.14-7.86 5.71-.36 5 3.21 2.86 8.21-4.65 9.64-5.72 7.5-5.72 4.28-6.79-1.79-5.36z"/><path d="M1192.643 187.056l6.428 15 4.65 12.5 1.79 10.714.36 10-6.07 1.786-5-2.5-3.93 7.5-12.14 11.786-3.92 5.71-6.08.35-2.5-4.29 3.93-6.79 14.28-11.08 3.94-7.83 3.93-4.642 5.72-1.07-8.21-22.144-2.5-9.286 1.42-4.286zm-126.786 101.07l9.643 17.144 12.143 10 12.857 1.43 15-9.644 7.857-8.93-4.286-5.713-8.21 4.643-11.43 7.857-9.64 1.43-9.28-11.073-6.78-9.286-3.21-1.78-3.57 1.07zM1171.57 266.7l8.573-3.216s6.07 1.08 8.214 1.08c2.143 0 7.857-3.21 7.857-3.21l2.143-3.94 4.286-2.5 4.285 2.5-.71 6.43-7.14 3.57-8.57 5.356-8.21 1.072-5.36.71-6.07-1.43-1.07-3.57zm77.144-77.144l19.643.714 20.357 5.714 17.143 7.15 10.714 8.93-.71 2.5-6.78 2.14-13.57-11.43-11.78-4.64s-14.28-5-17.85-4.28c-3.57.72-15-1.43-15-1.43zm41.786 101.427l13.928 27.5 5.36 18.216 10.72-10.36 12.15-18.22 3.57-25.72-5-.72-4.64 3.21.36 10-.35 11.07-6.78 11.07-10 7.85-7.86-21.79-4.28-12.15-2.14-2.14m-16.79-65.71l8.22-3.57 11.79 10s12.5 8.57 15 8.21c2.5-.36 22.86-.72 22.86-.72l14.65-1.43 1.79 6.78-8.21 1.78h-24.69s-6.075.71-7.86 0c-1.79-.72-10-3.93-11.79-5.36-1.786-1.43-10.714-11.08-10.714-11.08l-3.93-1.79-6.07.36m77.143 63.93l7.5 17.14 1.08 17.5-1.07 21.78v16.07l.72 20.72-2.85 8.57 4.64 3.93s3.58-5.36 3.93-7.14c.36-1.79 0-28.57 0-28.57l-.35-41.07-1.07-16.79-5.71-10.72m-18.58 20.72v16.78l-6.07 21.07-8.57 17.14 3.213 7.5 7.5-7.15 6.43-16.07 4.283-18.57-1.07-17.5-2.85-8.93"/></g><path d="M1032.287 10.627l-28.93 17.143 60.714.357-25.71 5.716-5 1.427 16.07 7.857-1.43 9.643s-47.5 27.143-49.28 27.857c-1.78.716-28.21 25.356-28.21 25.356l-13.22 14.287-2.5 2.5 28.93 1.79h18.58l-15.71 16.07-26.07 13.57-3.57 25.358s23.58 6.786 24.65 4.286c1.07-2.5 46.78-41.074 46.78-41.074l13.57-12.146 26.79-8.214 7.5.35-8.21 27.85-6.78 14.29 22.86-10 9.29-6.07 6.79-14.65 19.64-6.07 12.5-24.65 25.71-7.85 11.42-23.2 45.72 4.64 54.29 33.57 46.08 6.07 28.93-1.07-36.43-44.65-46.07-37.5-61.79-25.35-39.64 1.43 1.07 37.5-20.38-37.14-21.07-.355z" fill="#4da654"/><path d="M1196.214 167.056c-2.5 1.428-41.07 8.214-41.07 8.214s-51.073 16.43-52.5 17.5c-1.43 1.072-41.073 25.357-41.073 25.357l-41.07 28.93-28.21 22.856-6.78 6.07 2.5 3.93 8.22-1.43 8.57-4.284 29.64-25 45.72-31.79 28.57-16.07 47.5-18.22 43.58-7.15-1.78-7.14M1040.16 272.4l-2.5 3.214 2.5 5 30.356 6.072 41.428 7.5 20.36 1.07 46.07-2.144 15.36-.358 6.43-3.93 20.717-2.15-7.14-6.79-30.72 1.07-21.07 2.5-18.21 3.93-36.43-1.43-40-8.22-10.36-5zm198.21-106.07s25.357 4.284 26.786 4.284c1.428 0 76.07 37.857 76.07 37.857l28.93 36.79 23.57 23.93-13.213 6.07-40.355 1.43-43.57 5.36-12.144-2.15-3.213-8.93 21.08 4.65 50.35-4.64 31.43-1.42-9.65-11.43-13.57-15-22.49-29.29-25.71-12.14-49.66-26.78-21.78-2.5" fill="#652a31"/><path d="M1132.287 9.556l17.5 25.714 9.64 23.572 26.787 60.71 37.857 130.36 30.72 104.644 1.78 70.714-27.86 16.072-108.57 7.5-123.93 4.64-20.72-6.43-16.07-1.79 33.94 18.22 51.07 8.93 21.08 9.644 136.07 2.5-29.64-9.643-15.35-5-1.43-6.43 71.07-.713 34.65-5.714 15-10.357 22.86-1.79 14.29-1.43 26.79-10 78.57-.72-38.57-19.29-42.5-6.78-27.5-41.07-30.36-72.85-25-49.28-19.64-65.71-6.08-44.64-31.79-70-35.71-54.29z" fill="#bd6530" stroke="#bd6530"/><path d="M1021.57 9.913l-23.927 17.5 89.643-1.43-9.65-7.14-53.22 3.213 12.86-12.5zm88.93 18.57c-1.43 0-43.93 14.644-43.93 14.644L1031.928 54.2l-21.07 13.57-24.643 16.787-13.57 14.286-6.43 6.07-2.144 9.286-13.57 9.28 22.15-.35 5 3.93 6.07-.36 12.86-3.93 4.65 2.5-4.64 6.08-26.78 16.79-9.64 9.65-6.07 13.58.72 14.29 8.21 1.07 24.65-18.22 16.07-10.71 17.15-11.8 28.21-22.14 18.58-11.07 9.64-7.14 5-4.64 6.78-3.57-7.5 23.93-6.78 13.57-5 7.15-2.15 11.43-2.15 9.65 1.43 1.43 21.79-17.14 11.07-11.07 21.07-6.07 1.07-6.79-32.14 17.14-12.86 8.93 3.93-14.29 7.14-20.72 2.14-11.79 3.92-12.14-27.5 14.64-29.29 23.2-29.62 21.4-29.28 17.14-15 10-4.64-3.58 8.93-15 23.57-16.78 14.29-12.85-.71-6.07-6.79-3.92-27.14-1.79 7.14-12.5 6.43-10L1013 74.91l33.57-17.857 24.29-10.357 28.57-7.144 7.86-3.93 4.64-3.57V28.84l.36-1.072m90.355 27.857l20.357.715 17.857 12.5 20.35 9.28 15.35-1.07s4.64 5.71 3.21 6.07c-1.43.35-19.65-.72-19.65-.72l-26.07-11.79-17.15-8.21h-13.57m30.71-40.714l23.93 8.57 15.71 4.655 13.57 10.36 12.5 17.86 5.35 13.57 7.86 7.5 15.72 8.22 12.14 14.65.72 12.86-8.57-8.21-12.15-13.57-7.14-8.92-18.57-11.79-8.93-16.78-17.86-17.5-30.72-17.5" fill="#30632b"/><g fill="#c5d451"><path d="M1057.287 28.483L1045.5 41.7l-1.786 5.713 3.93 2.857 5.713.357.714-5.714 6.08-8.93 4.65-3.213-.72-4.643m69.64 1.786l-10.35 11.43-9.64 4.64-10.35 2.145-35-1.785-3.21 3.213 1.43 5.357 32.5-.357.36 4.643-9.64 10-18.57 11.78-20.36 6.43-27.5 8.93L998 113.12v6.072l6.07 2.14 16.43-11.08 13.927-8.92 12.86-5.72 21.427-5.36 13.93-5 14.64-10.35 10.714-11.07 12.15-7.5 11.78-6.43 17.86.36 3.57-4.29-4.287-4.64-6.07-1.43-3.21-8.57-3.58-2.5m-159.64 120.72l-9.28 5-6.08 6.427-2.85 8.58-.71 4.65s2.5 3.22 3.93 3.22c1.43 0 5.72-2.14 5.72-2.14l-.36-8.57 4.28-2.14 3.93-6.43 3.57-4.28m-4.64 29.28l5 5.36h7.15l10.36-7.85 11.08-11.07 17.86-18.93 12.86-11.46 1.79-3.57-2.85-3.93-7.15 2.14-12.5 15-15 15-7.15 10.71-9.29 2.86-5.36 3.57-3.93-.36"/><path d="M1110.857 67.413l-8.214 6.786-5.357 7.5-4.29 18.21.358 8.57 3.93 3.93 5-1.43-.36-14.64 1.786-10.72 7.143-8.57 3.57-1.79 2.5-3.22-2.857-5zm49.286 3.93l-6.43 11.427-16.426 16.073-13.573 13.927-16.428 10.357-14.65 10.357-6.43 2.15 3.57 5 9.28-2.5 6.78-5.71 17.14-10.71 8.57-4.28 16.8-17.87 10.36-12.14 5.35-3.57 2.14-3.57-1.43-7.14-2.86-3.92m28.23-54.31l11.07-2.5 12.5 1.07 23.216 11.786 21.073 13.93 10.715 7.142 2.143 4.28-2.14 4.64-7.144-.72-14.29-10.35-32.86-21.43-10.36-2.85-9.29 1.43-6.79-.715v-4.644m22.14 58.573l18.93 9.643 29.28 13.21 11.78 8.93 11.43 4.64 17.14.36 16.78 1.78 7.14-2.5 8.93-2.86-2.86-3.57-5.36-.72-7.86 2.86-26.79-.36s-7.86 0-8.93-1.79c-1.08-1.79-8.58-9.29-8.58-9.29l-37.5-16.07-21.78-10.72-7.86-4.29 1.79 6.42z"/></g><path d="M1018.714 285.627c-1.428-1.07-8.57-6.07-8.57-6.07l-4.287-2.144-5.357.714-1.072 3.93 5.36 4.642 5.36 3.92 2.86 15.35 1.07 27.15-3.57 23.57s2.15 50.72 2.15 52.15c0 1.43 2.5 21.79 2.5 21.79l6.79 8.22 3.22 6.43-2.5 5.72-11.43-.36-7.88 1.06-10 1.07-2.14 3.21 8.22 4.29 25.72 6.07s37.5 2.5 40.357 3.21c2.85.71 18.92 0 18.92 0l-13.93 7.5-3.22 3.21-.36 4.29 12.86 2.14 28.572-1.81 50-2.5 53.214 2.14 2.15-3.22-2.5-3.93-13.21-2.15-66.43.71-26.78 1.07H1088l8.57-2.15 3.93-4.29 6.07-2.86-1.43-3.57-5-2.5-16.78-.36-42.86-1.4-10.72-1.43v-2.86h12.5l27.85-1.07 41.07 2.14 38.59-1.78-3.58 3.93v1.78l2.85 2.5 24.64 2.85h60.36l20.36.72 1.08-3.21-4.64-3.92-23.57-1.78-55.36-.71-12.85.71-3.93-2.86 4.65-1.43 26.79-.71 41.78-1.43 20 .36 26.07 2.15-11.08-30.74-5.357-46.43-5-37.5-18.93-61.79-11.07-35.36-15-51.07-8.213-37.86-15.36-44.29-6.43-9.65-6.43-23.58-16.78-29.64-5.36 5.36 16.07 22.5 3.57 27.85 6.43 7.5 13.21 34.64 8.21 24.28 1.43 20.72 9.28 28.21 9.28 31.78 3.22 14.64 9.64 27.5 7.5 26.07 8.57 26.43 2.5 27.5 3.57 43.57-3.56 13.22-.72 10.71-10.36 3.21-24.65 4.65-78.22 4.64-42.86-.71-25.71-2.5-21.07-5-17.5-12.14-7.15-16.07V365.9l-1.07-51.43z"/><path d="M1102.287 335.627l-10.716.715-7.14 11.78-2.85 12.85-4.28 16.43 1.07 28.57 1.79 20 3.2-1.06 6.79 3.215 5-14.285 7.15-1.08 7.5-16.43.71-10.36 5-9.64 7.86-1.79 6.43 4.28-.72 8.21 6.78 12.5.71 6.42 1.07 8.93 2.14 4.64-2.86 2.14-6.07-7.15-6.79-4.64.36 3.57 5 5 1.78 10.36s2.5 1.78 3.57 1.78c1.07 0 8.57-1.43 8.57-1.43l4.28-4.29 2.14-8.22-5-14.65-4.29-8.57.71-5-3.22-6.425-1.43-7.14-3.22-3.93 2.5-18.21-8.57-.716-3.58-1.07-2.14-6.78-4.29-1.78-3.93 3.93-3.57.36-1.43-5.71 7.14-5.35 7.14 1.79 3.21 2.86 1.43 5.36v5l7.86 2.14.36-15-6.07-5.72-7.85-5-8.57.36-8.21 4.64zm64.284-314.284c.72 1.427 12.86 23.213 12.86 23.213l16.43 21.787 4.64 7.856 5.36 12.5 1.43 12.5 5.36 5.71 3.57 14.28 11.43 25.35 2.15 12.5 4.64 33.21 5 22.85 10.36 27.5 9.64 24.64 8.93 18.57 8.93 18.92 9.29 14.64 3.58 10.36 3.93 15 7.15 15.71 8.93 15 14.28 18.22 11.79 17.86 22.86 8.57 12.15 2.86 5.72-6.07 3.93-6.07h10.36l7.15-2.14 11.07 12.15 7.5 13.93 27.5 1.79-13.93 10.72-36.43.36-25.71-2.5h-8.93l-27.88 1.75-15 2.5-4.29 2.14-1.43 3.21 2.5 2.85 18.93 2.14 32.14-5.36 17.86-.72 29.28 1.42 16.79 4.643-16.07.36-11.07 1.43-2.86 2.14-.36 2.5 10 3.93 23.57-.36 16.79-2.144-.71-6.07-10-6.43 4.64-11.785 7.5-7.86-1.43-9.64h-23.22l-13.93-19.29-5.72-5.36-4.65-2.5-6.79 1.07-7.85 3.21h-7.14l-5 1.78-6.07 9.64-21.43-7.15-7.85-5.36-6.78-15-12.86-15.72-7.14-9.65-10-23.22-3.2-16.42-16.07-27.86-4.64-14.65-11.78-16.43-16.79-44.64-3.57-17.5-3.57-17.86-4.29-23.93-3.21-9.65 1.43-7.86-7.5-11.79-8.57-27.15-6.78-7.5-2.14-14.28-7.14-13.9-1.07-7.86-17.87-20.7-6.81-14.25-5-3.57h-4.29"/><path d="M1259.427 239.913l31.787 5.357 5.714 7.5.72 2.857-2.5 1.786-8.21-7.857-13.21-2.857-11.78-1.43-2.5-.36m128.57 27.14l2.14 15.35 3.57 9.64-.71 13.93v17.5l3.93 25 2.5 23.58-1.42 24.65 1.43 21.07-6.07-3.21-1.07-28.21-2.14-17.86.72-22.85-4.64-28.57-3.57-20 1.07-16.78-3.93-12.5"/></svg>