<svg width="500" height="500" viewBox="0 0 500.00001 500.00001"><path d="M247.5 162.5l-65.714 18.57s-81.43 40-84.286 41.787c-2.857 1.786-53.214 44.286-53.214 44.286l12.5 9.286 11.785 4.28-1.07 76.07-11.43 58.93S102.15 439.64 105 440c2.857.357 85.357 4.643 85.357 4.643l110.357-7.5 87.857 9.643 83.58 9.285-29.28-29.28 10.36-7.5-12.85-160.71-48.93-55.71-76.44-39.3z" fill="#f0de41"/><g fill="#bea64d"><path d="M76.786 290.714l.714 38.93-.714 41.785 3.928 2.14L83.93 370l8.213-30.357 5.714-17.143 11.072-11.786 8.92-11.428L115 295h-5.714l-12.5 17.5s-14.643 30.714-14.643 27.857c0-2.857 1.428-32.857 1.428-32.857v-10l-.71-6.43M135 217.5l-7.857 14.286-8.572 11.07-5 5.715v4.65s3.22 2.15 4.65 2.15c1.43 0 5-2.14 5-2.14l9.65-15.71 9.29-13.93-.71-3.57zm-34.643 130l-1.786 18.57 1.43 14.644 2.15 18.215.72 5.35s6.43 2.14 6.43-.72-.36-18.22-.36-18.22l-3.57-12.5.72-19.29 1.79-2.5-2.5-5-5-.71zM260 307.5l-1.07 26.07-1.43 12.5-3.214 12.86-.357 12.5 2.5 13.57 5 11.786 3.92 8.57s1.07 3.215 2.5 3.573c1.43.35 5.71-.36 5.71-.36v-6.79l-4.63-6.78-.72-7.15-5.36-9.65 1.08-13.2.35-16.79 3.57-5 1.07-13.93-1.08-13.57-1.79-6.79zm-53.93 20.357l-.356 20.714-.357 24.65 3.93 17.86 4.642 9.65s2.85.36 4.28.36c1.43 0 4.28-.71 4.28-2.14 0-1.43 1.43-3.93 0-4.64-1.43-.71-5.72-11.78-5.72-11.78l-3.57-28.93 1.8-18.22-.36-4.28 3.93 4.65 5.72 20 6.43 14.28v10.36l-.36 3.93-4.29 3.57v5l3.22 3.22 6.07-2.5 5.36-4.28v-10l-3.93-19.64-10.72-33.21-10.72-18.21-5.36-2.5-3.22 1.43-1.79 2.5 3.21 7.14 6.43 10.72-1.07 1.43-5-2.86zm-34.284 38.213l-4.643 11.073-2.857 19.643-4.643 9.285-1.786 13.58 5.357 3.22 7.857-3.21.72-2.85 2.15 6.43 2.14 4.29 9.65 3.22 6.79-2.85-2.14-3.92-7.85-2.5-1.07-16.79-5.71-3.57-8.21 7.86.72-9.64s3.22-3.57 3.58-5.71c.36-2.14 0-12.86 0-12.86l2.86-3.21 3.93-6.07-.35-5-2.86-.71zm-52.5-147.14c-1.43-.716-10.357 1.07-10.357 1.07l-10.36 5-5 6.43-3.22 4.64-4.65 1.43-.72 4.286 3.21 3.57 7.85-2.142 15.36-13.928 9.28-2.857 3.57-3.93zm14.644 38.57v5.714l4.284 1.786 6.072-4.643 10.357-11.786 14.286-6.78 6.42-2.14 6.43-.71 4.28-2.14 3.93 2.5 10-7.14 16.78-14.64 9.28-6.43 11.43-2.5 5.36-1.42-1.43-5.35-7.5-1.07h-12.86l-12.86 10-11.79 12.86-8.58 7.86-7.5-1.79-8.57 2.5-13.93 5.71-11.79 8.58-7.5 7.14zm62.856-71.07l-5.357 6.427-7.15 6.43-5.72 2.142-7.86 5.71-.36 5 3.21 2.86 8.21-4.65 9.64-5.72 7.5-5.72 4.28-6.79-1.79-5.36z"/><path d="M244.286 177.143l6.428 15 4.643 12.5 1.786 10.714.357 10-6.07 1.786-5-2.5-3.93 7.5-12.143 11.786-3.928 5.71-6.08.35-2.5-4.29 3.93-6.79 14.28-11.08L240 220l3.93-4.643 5.713-1.07-8.214-22.144-2.5-9.286 1.42-4.286zM117.5 278.213l9.643 17.144 12.143 10 12.857 1.43 15-9.644 7.857-8.93-4.286-5.713-8.214 4.643L151.07 295l-9.64 1.43-9.287-11.073-6.786-9.286-3.214-1.78-3.572 1.07zm105.714-21.427l8.572-3.215s6.07 1.08 8.214 1.08c2.143 0 7.857-3.21 7.857-3.21L250 247.5l4.286-2.5 4.285 2.5-.71 6.43-7.14 3.57-8.57 5.357-8.21 1.072-5.36.71-6.07-1.43-1.07-3.57zm77.143-77.143l19.643.714 20.357 5.714 17.143 7.15 10.714 8.93-.714 2.5-6.786 2.14-13.57-11.43-11.787-4.64s-14.286-5-17.857-4.28c-3.57.72-15-1.43-15-1.43zm41.786 101.427l13.928 27.5 5.36 18.216 10.72-10.357 12.15-18.22 3.57-25.72-5-.72-4.64 3.21.36 10-.35 11.07-6.78 11.07-10 7.85-7.86-21.79-4.28-12.15-2.14-2.14m-16.79-65.71l8.22-3.57 11.79 10s12.5 8.57 15 8.21c2.5-.36 22.86-.72 22.86-.72l14.65-1.43 1.79 6.78-8.21 1.78H371.8s-6.074.71-7.86 0c-1.79-.72-10-3.93-11.79-5.36-1.785-1.43-10.713-11.08-10.713-11.08l-3.93-1.79-6.07.36m77.143 63.93l7.5 17.146 1.08 17.5-1.07 21.78v16.07l.72 20.72-2.85 8.57 4.64 3.93s3.58-5.357 3.93-7.14c.36-1.788 0-28.57 0-28.57l-.35-41.07-1.07-16.79-5.71-10.718m-18.58 20.72v16.785l-6.07 21.07-8.57 17.14 3.213 7.5 7.5-7.15 6.43-16.07 4.283-18.57-1.07-17.5-2.85-8.93"/></g><path d="M83.93.714L55 17.857l60.714.357L90 23.93l-5 1.427 16.07 7.857-1.427 9.643S52.143 70 50.357 70.714C48.57 71.43 22.143 96.07 22.143 96.07L8.93 110.358l-2.5 2.5 28.927 1.786H53.93l-15.716 16.07-26.07 13.573-3.573 25.357s23.58 6.786 24.65 4.286c1.07-2.5 46.78-41.074 46.78-41.074l13.57-12.143 26.79-8.214 7.5.35-8.21 27.85-6.78 14.29 22.86-10 9.29-6.07 6.79-14.65 19.64-6.07 12.5-24.65 25.71-7.85 11.42-23.2 45.72 4.64 54.29 33.57 46.08 6.07 28.93-1.07-36.43-44.65-46.07-37.5-61.79-25.35-39.64 1.43 1.07 37.5L192.86 0l-21.07-.357z" fill="#4da654"/><path d="M247.857 157.143c-2.5 1.428-41.07 8.214-41.07 8.214s-51.073 16.43-52.5 17.5c-1.43 1.072-41.073 25.357-41.073 25.357l-41.07 28.93L43.928 260l-6.787 6.07 2.5 3.93 8.22-1.43 8.57-4.284 29.64-25 45.72-31.786 28.57-16.07 47.5-18.216 43.58-7.143-1.78-7.14M91.79 262.5l-2.5 3.214 2.5 5 30.356 6.072 41.428 7.5 20.36 1.07 46.07-2.142 15.36-.357 6.43-3.928 20.715-2.15-7.14-6.79-30.72 1.07-21.07 2.5-18.21 3.93-36.43-1.43-40-8.22-10.36-5zM290 156.43s25.357 4.284 26.786 4.284c1.428 0 76.07 37.857 76.07 37.857l28.93 36.79 23.57 23.93-13.213 6.07-40.357 1.43-43.572 5.36L336.07 270l-3.213-8.93 21.072 4.644 50.35-4.643 31.43-1.42-9.65-11.43-13.57-15L390 203.93l-25.714-12.144L314.643 165l-21.786-2.5" fill="#652a31"/><path d="M183.93-.357l17.5 25.714 9.64 23.572 26.787 60.71L275.714 240l30.715 104.643 1.78 70.714-27.86 16.072-108.57 7.5-123.93 4.64-20.72-6.43-16.07-1.79L45 453.57l51.07 8.93 21.073 9.643 136.07 2.5-29.64-9.643-15.357-5-1.428-6.43 71.07-.713 34.644-5.714 15-10.357L350.357 435l14.286-1.43 26.786-10 78.57-.713-38.57-19.286-42.5-6.78-27.5-41.07-30.36-72.85-25-49.28-19.64-65.71-6.08-44.64-31.79-70-35.71-54.29z" fill="#bd6530" stroke="#bd6530"/><path d="M73.214 0L49.286 17.5l89.643-1.43-9.65-7.14-53.22 3.213 12.86-12.5zm88.93 18.57c-1.43 0-43.93 14.644-43.93 14.644L83.57 44.286 62.5 57.856 37.857 74.644 24.287 88.93 17.857 95l-2.144 9.286-13.57 9.285 22.142-.35 5 3.93 6.07-.36 12.858-3.93 4.643 2.5-4.643 6.08-26.785 16.79-9.644 9.65-6.072 13.58.715 14.29 8.213 1.07 24.643-18.22 16.07-10.71 17.147-11.8 28.214-22.14 18.572-11.07 9.643-7.14 5-4.64 6.78-3.57-7.5 23.93-6.78 13.57-5 7.15-2.15 11.43-2.15 9.65 1.43 1.43 21.79-17.14 11.07-11.07 21.07-6.07 1.07-6.784-32.14 17.14-12.86 8.93 3.93-14.286 7.14-20.72 2.14-11.79 3.92-12.14-27.5 14.64-29.29 23.2L59.28 140 30 157.143l-15 10-4.643-3.572 8.93-15 23.57-16.78 14.286-12.85-.714-6.07-6.79-3.92-27.14-1.79 7.14-12.5 6.43-10L64.64 65l33.57-17.857 24.29-10.357 28.57-7.143 7.86-3.93 4.64-3.57V18.93l.36-1.073m90.356 27.857l20.357.715 17.857 12.5 20.357 9.28 15.357-1.07s4.643 5.71 3.215 6.07c-1.43.35-19.65-.72-19.65-.72L285.71 60.7l-17.148-8.21H255m30.714-40.715l23.93 8.57L325.356 25l13.572 10.357 12.5 17.857 5.356 13.572 7.857 7.5 15.72 8.214 12.14 14.643.72 12.857-8.57-8.214-12.15-13.572-7.14-8.928L346.79 67.5l-8.93-16.786-17.86-17.5-30.714-17.5" fill="#30632b"/><g fill="#c5d451"><path d="M108.93 18.57L97.142 31.787 95.357 37.5l3.93 2.857 5.713.357.714-5.714 6.072-8.93 4.643-3.213-.72-4.643M185.35 20L175 31.43l-9.643 4.64L155 38.215l-35-1.785-3.214 3.213L118.214 45l32.5-.357.357 4.643-9.64 10-18.57 11.784-20.36 6.43L75 86.43l-25.357 16.784v6.072l6.07 2.143 16.43-11.08 13.927-8.92 12.86-5.72 21.427-5.36 13.93-5L148.927 65l10.714-11.07 12.15-7.5L183.57 40l17.86.357L205 36.07l-4.286-4.64-6.07-1.43-3.215-8.57-3.58-2.5M28.21 139.643l-9.283 5-6.08 6.428-2.85 8.58-.715 4.65s2.5 3.22 3.928 3.22c1.43 0 5.715-2.14 5.715-2.14l-.36-8.57 4.28-2.14 3.93-6.43 3.57-4.28m-4.64 29.28l5 5.36h7.143l10.358-7.85 11.075-11.07 17.86-18.93L90 129.29l1.786-3.57-2.857-3.93-7.15 2.14-12.5 15-15 15-7.15 10.71-9.29 2.857-5.36 3.57-3.93-.357"/><path d="M162.5 57.5l-8.214 6.786-5.357 7.5L144.64 90l.357 8.57 3.93 3.93 5-1.43-.36-14.64 1.786-10.716 7.143-8.57 3.57-1.787 2.5-3.214-2.857-5zm49.286 3.93l-6.43 11.427L188.93 88.93l-13.573 13.927-16.428 10.357-14.65 10.357-6.43 2.15 3.57 5 9.28-2.5 6.78-5.71 17.14-10.71 8.57-4.28 16.8-17.87 10.36-12.14 5.35-3.57 2.14-3.57-1.43-7.14-2.86-3.92M241.78 5l11.07-2.5 12.5 1.07 23.215 11.787 21.073 13.93 10.715 7.142 2.143 4.28-2.14 4.64-7.144-.72-14.282-10.35-32.86-21.43L255.715 10l-9.285 1.43-6.785-.716V6.07m22.143 58.573l18.927 9.643L310 87.5l11.786 8.93 11.428 4.64 17.143.36 16.786 1.784 7.143-2.5 8.928-2.857-2.857-3.57L375 93.57l-7.857 2.86-26.786-.36s-7.857 0-8.928-1.784C330.35 92.5 322.85 85 322.85 85l-37.5-16.07-21.786-10.716-7.857-4.285 1.786 6.42z"/></g><path d="M70.357 275.714c-1.428-1.07-8.57-6.07-8.57-6.07L57.5 267.5l-5.357.714-1.072 3.93 5.36 4.642 5.36 3.928 2.86 15.357 1.07 27.15-3.57 23.57s2.15 50.72 2.15 52.15c0 1.43 2.5 21.79 2.5 21.79l6.79 8.22 3.22 6.43-2.5 5.72-11.43-.36L55 441.8l-10 1.07-2.14 3.214 8.22 4.29 25.72 6.07s37.5 2.5 40.358 3.214c2.85.714 18.92 0 18.92 0l-13.93 7.5-3.22 3.214-.36 4.29 12.86 2.143L160 475l50-2.5 53.214 2.143 2.143-3.214-2.5-3.93-13.214-2.15-66.43.71-26.784 1.07h-16.79l8.57-2.15 3.93-4.29 6.07-2.86-1.43-3.57-5-2.5-16.78-.36-42.86-1.4-10.72-1.43v-2.86h12.5l27.85-1.07 41.07 2.14 38.59-1.78-3.58 3.93v1.78l2.85 2.5 24.64 2.85h60.36l20.36.72 1.08-3.21-4.64-3.92-23.57-1.78-55.36-.71-12.85.71-3.93-2.86 4.65-1.43 26.79-.71 41.78-1.43 20 .36 26.07 2.15L315 413.21l-5.357-46.428-5-37.5-18.93-61.786-11.07-35.358-15-51.072-8.214-37.856-15.36-44.285-6.43-9.645-6.43-23.572-16.78-29.64-5.36 5.36 16.07 22.5 3.57 27.856 6.43 7.5 13.21 34.643 8.21 24.282 1.43 20.72 9.28 28.21 9.28 31.78 3.22 14.64 9.64 27.5 7.5 26.07 8.57 26.43 2.5 27.5 3.57 43.57-3.56 13.22-.72 10.71-10.36 3.21-24.65 4.65-78.22 4.64-42.86-.71-25.71-2.5-21.07-5-17.5-12.14-7.15-16.07v-48.57l-1.07-51.43z"/><path d="M153.93 325.714l-10.716.715-7.143 11.78-2.85 12.85-4.28 16.43 1.07 28.57 1.79 20L135 415l6.786 3.214 5-14.285 7.143-1.08 7.5-16.43.71-10.36 5-9.64 7.86-1.79 6.43 4.28-.72 8.21 6.78 12.5.71 6.42 1.07 8.93 2.14 4.64-2.86 2.14-6.07-7.15-6.79-4.64.36 3.57 5 5 1.78 10.36s2.5 1.78 3.57 1.78c1.07 0 8.57-1.43 8.57-1.43l4.28-4.29 2.14-8.22-5-14.65-4.29-8.57.71-5-3.22-6.425-1.43-7.14-3.22-3.93 2.5-18.21-8.57-.716-3.58-1.07-2.14-6.786-4.29-1.785-3.93 3.93-3.57.36-1.43-5.71 7.14-5.353 7.14 1.79 3.21 2.86 1.43 5.36v5l7.853 2.14.36-15-6.075-5.72-7.854-5-8.57.36-8.21 4.64zM218.214 11.43c.715 1.427 12.857 23.213 12.857 23.213L247.5 56.43l4.643 7.856 5.357 12.5 1.43 12.5L264.285 95l3.57 14.286 11.43 25.357 2.143 12.5 4.64 33.214 5 22.857 10.36 27.5 9.64 24.643L320 273.93l8.93 18.927 9.284 14.643 3.572 10.357 3.928 15 7.143 15.714 8.93 15 14.284 18.22 11.79 17.86 22.86 8.57 12.15 2.86 5.72-6.07 3.93-6.07h10.36l7.15-2.14 11.07 12.15 7.5 13.93 27.5 1.79-13.93 10.72-36.43.36-25.71-2.5h-8.93L383.22 435l-15 2.5-4.288 2.143-1.43 3.214 2.5 2.857 18.93 2.143 32.14-5.357 17.86-.714 29.28 1.428 16.79 4.643-16.07.357-11.075 1.43-2.857 2.142-.358 2.5 10 3.928 23.57-.357 16.79-2.143-.714-6.07-10-6.43 4.643-11.785 7.5-7.86-1.43-9.64h-23.22l-13.93-19.29-5.72-5.36-4.65-2.5-6.79 1.07-7.85 3.21h-7.14l-5 1.78-6.07 9.64-21.43-7.15-7.85-5.36-6.78-15-12.86-15.72-7.14-9.65-10-23.22-3.2-16.42-16.07-27.86-4.64-14.65-11.78-16.43-16.79-44.64-3.57-17.5-3.57-17.86-4.29-23.93-3.21-9.65 1.43-7.86-7.5-11.79-8.57-27.148-6.78-7.5-2.14-14.284-7.14-13.9-1.07-7.86-17.87-20.7L230 12.14l-5-3.572h-4.286"/><path d="M311.07 230l31.787 5.357 5.714 7.5.72 2.857-2.5 1.786-8.21-7.857-13.21-2.857-11.78-1.43-2.5-.356m128.57 27.143l2.14 15.357 3.57 9.643-.71 13.928v17.5l3.93 25 2.5 23.58-1.42 24.65 1.43 21.07-6.07-3.21-1.07-28.21-2.14-17.86.72-22.85-4.64-28.57-3.57-20 1.07-16.78-3.93-12.5"/></svg>