<?xml version="1.0" encoding="UTF-8" standalone="no"?>
<svg
   xmlns:dc="http://purl.org/dc/elements/1.1/"
   xmlns:cc="http://creativecommons.org/ns#"
   xmlns:rdf="http://www.w3.org/1999/02/22-rdf-syntax-ns#"
   xmlns:svg="http://www.w3.org/2000/svg"
   xmlns="http://www.w3.org/2000/svg"
   xmlns:sodipodi="http://sodipodi.sourceforge.net/DTD/sodipodi-0.dtd"
   xmlns:inkscape="http://www.inkscape.org/namespaces/inkscape"
   width="600"
   height="600"
   viewBox="0 0 600.00001 600.00001"
   id="svg2"
   version="1.1"
   inkscape:version="0.91 r13725"
   sodipodi:docname="logo2.svg">
  <metadata
     id="metadata36">
    <rdf:RDF>
      <cc:Work
         rdf:about="">
        <dc:format>image/svg+xml</dc:format>
        <dc:type
           rdf:resource="http://purl.org/dc/dcmitype/StillImage" />
        <dc:title></dc:title>
      </cc:Work>
    </rdf:RDF>
  </metadata>
  <defs
     id="defs34" />
  <sodipodi:namedview
     pagecolor="#ffffff"
     bordercolor="#666666"
     borderopacity="1"
     objecttolerance="10"
     gridtolerance="10"
     guidetolerance="10"
     inkscape:pageopacity="0"
     inkscape:pageshadow="2"
     inkscape:window-width="2147"
     inkscape:window-height="1654"
     id="namedview32"
     showgrid="false"
     inkscape:zoom="1.888"
     inkscape:cx="276.94151"
     inkscape:cy="320.51034"
     inkscape:window-x="1680"
     inkscape:window-y="362"
     inkscape:window-maximized="0"
     inkscape:current-layer="svg2" />
  <path
     d="m 247.5,262.5 -65.714,18.57 c 0,0 -81.43,40 -84.286,41.787 -2.857,1.786 -53.214,44.286 -53.214,44.286 l 12.5,9.286 11.785,4.28 -1.07,76.07 -11.43,58.93 c 0,0 46.079,23.931 48.929,24.291 2.857,0.357 85.357,4.643 85.357,4.643 l 110.357,-7.5 87.857,9.643 83.58,9.285 -29.28,-29.28 10.36,-7.5 -12.85,-160.71 -48.93,-55.71 -76.44,-39.3 z"
     id="path4"
     inkscape:connector-curvature="0"
     style="fill:#f0de41" />
  <g
     id="g6"
     style="fill:#bea64d"
     transform="translate(0,100)">
    <path
       d="m 76.786,290.714 0.714,38.93 -0.714,41.785 3.928,2.14 3.216,-3.569 8.213,-30.357 5.714,-17.143 11.072,-11.786 8.92,-11.428 L 115,295 l -5.714,0 -12.5,17.5 c 0,0 -14.643,30.714 -14.643,27.857 0,-2.857 1.428,-32.857 1.428,-32.857 l 0,-10 -0.71,-6.43 M 135,217.5 l -7.857,14.286 -8.572,11.07 -5,5.715 0,4.65 c 0,0 3.22,2.15 4.65,2.15 1.43,0 5,-2.14 5,-2.14 l 9.65,-15.71 9.29,-13.93 -0.71,-3.57 z m -34.643,130 -1.786,18.57 1.43,14.644 2.15,18.215 0.72,5.35 c 0,0 6.43,2.14 6.43,-0.72 0,-2.86 -0.36,-18.22 -0.36,-18.22 l -3.57,-12.5 0.72,-19.29 1.79,-2.5 -2.5,-5 -5,-0.71 z m 159.643,-40 -1.07,26.07 -1.43,12.5 -3.214,12.86 -0.357,12.5 2.5,13.57 5,11.786 3.92,8.57 c 0,0 1.07,3.215 2.5,3.573 1.43,0.35 5.71,-0.36 5.71,-0.36 l 0,-6.79 -4.63,-6.78 -0.72,-7.15 -5.36,-9.65 1.08,-13.2 0.35,-16.79 3.57,-5 1.07,-13.93 -1.08,-13.57 -1.79,-6.79 z m -53.93,20.357 -0.356,20.714 -0.357,24.65 3.93,17.86 4.642,9.65 c 0,0 2.85,0.36 4.28,0.36 1.43,0 4.28,-0.71 4.28,-2.14 0,-1.43 1.43,-3.93 0,-4.64 -1.43,-0.71 -5.72,-11.78 -5.72,-11.78 l -3.57,-28.93 1.8,-18.22 -0.36,-4.28 3.93,4.65 5.72,20 6.43,14.28 0,10.36 -0.36,3.93 -4.29,3.57 0,5 3.22,3.22 6.07,-2.5 5.36,-4.28 0,-10 -3.93,-19.64 -10.72,-33.21 -10.72,-18.21 -5.36,-2.5 -3.22,1.43 -1.79,2.5 3.21,7.14 6.43,10.72 -1.07,1.43 -5,-2.86 z m -34.284,38.213 -4.643,11.073 -2.857,19.643 -4.643,9.285 -1.786,13.58 5.357,3.22 7.857,-3.21 0.72,-2.85 2.15,6.43 2.14,4.29 9.65,3.22 6.79,-2.85 -2.14,-3.92 -7.85,-2.5 -1.07,-16.79 -5.71,-3.57 -8.21,7.86 0.72,-9.64 c 0,0 3.22,-3.57 3.58,-5.71 0.36,-2.14 0,-12.86 0,-12.86 l 2.86,-3.21 3.93,-6.07 -0.35,-5 -2.86,-0.71 z m -52.5,-147.14 c -1.43,-0.716 -10.357,1.07 -10.357,1.07 l -10.36,5 -5,6.43 -3.22,4.64 -4.65,1.43 -0.72,4.286 3.21,3.57 7.85,-2.142 15.36,-13.928 9.28,-2.857 3.57,-3.93 z m 14.644,38.57 0,5.714 4.284,1.786 6.072,-4.643 10.357,-11.786 14.286,-6.78 6.42,-2.14 6.43,-0.71 4.28,-2.14 3.93,2.5 10,-7.14 16.78,-14.64 9.28,-6.43 11.43,-2.5 5.36,-1.42 -1.43,-5.35 -7.5,-1.07 -12.86,0 -12.86,10 -11.79,12.86 -8.58,7.86 -7.5,-1.79 -8.57,2.5 -13.93,5.71 -11.79,8.58 -7.5,7.14 z m 62.856,-71.07 -5.357,6.427 -7.15,6.43 -5.72,2.142 -7.86,5.71 -0.36,5 3.21,2.86 8.21,-4.65 9.64,-5.72 7.5,-5.72 4.28,-6.79 -1.79,-5.36 z"
       id="path8"
       inkscape:connector-curvature="0" />
    <path
       d="m 244.286,177.143 6.428,15 4.643,12.5 1.786,10.714 0.357,10 -6.07,1.786 -5,-2.5 -3.93,7.5 -12.143,11.786 -3.928,5.71 -6.08,0.35 -2.5,-4.29 3.93,-6.79 14.28,-11.08 L 240,220 l 3.93,-4.643 5.713,-1.07 -8.214,-22.144 -2.5,-9.286 1.42,-4.286 z m -126.786,101.07 9.643,17.144 12.143,10 12.857,1.43 15,-9.644 7.857,-8.93 -4.286,-5.713 -8.214,4.643 -11.43,7.857 -9.64,1.43 -9.287,-11.073 -6.786,-9.286 -3.214,-1.78 -3.572,1.07 z m 105.714,-21.427 8.572,-3.215 c 0,0 6.07,1.08 8.214,1.08 2.143,0 7.857,-3.21 7.857,-3.21 L 250,247.5 l 4.286,-2.5 4.285,2.5 -0.71,6.43 -7.14,3.57 -8.57,5.357 -8.21,1.072 -5.36,0.71 -6.07,-1.43 -1.07,-3.57 z m 77.143,-77.143 19.643,0.714 20.357,5.714 17.143,7.15 10.714,8.93 -0.714,2.5 -6.786,2.14 -13.57,-11.43 -11.787,-4.64 c 0,0 -14.286,-5 -17.857,-4.28 -3.57,0.72 -15,-1.43 -15,-1.43 z m 41.786,101.427 13.928,27.5 5.36,18.216 10.72,-10.357 12.15,-18.22 3.57,-25.72 -5,-0.72 -4.64,3.21 0.36,10 -0.35,11.07 -6.78,11.07 -10,7.85 -7.86,-21.79 -4.28,-12.15 -2.14,-2.14 m -16.79,-65.71 8.22,-3.57 11.79,10 c 0,0 12.5,8.57 15,8.21 2.5,-0.36 22.86,-0.72 22.86,-0.72 l 14.65,-1.43 1.79,6.78 -8.21,1.78 -24.691,0 c 0,0 -6.074,0.71 -7.86,0 -1.79,-0.72 -10,-3.93 -11.79,-5.36 -1.785,-1.43 -10.713,-11.08 -10.713,-11.08 l -3.93,-1.79 -6.07,0.36 m 77.143,63.93 7.5,17.146 1.08,17.5 -1.07,21.78 0,16.07 0.72,20.72 -2.85,8.57 4.64,3.93 c 0,0 3.58,-5.357 3.93,-7.14 0.36,-1.788 0,-28.57 0,-28.57 l -0.35,-41.07 -1.07,-16.79 -5.71,-10.718 m -18.58,20.72 0,16.785 -6.07,21.07 -8.57,17.14 3.213,7.5 7.5,-7.15 6.43,-16.07 4.283,-18.57 -1.07,-17.5 -2.85,-8.93"
       id="path10"
       inkscape:connector-curvature="0" />
  </g>
  <path
     d="M 81.281695,91.709763 48.907075,113.3102 11.492166,155.93187 57.118644,145.92903 115.714,118.214 90,123.93 l -5,1.427 16.07,7.857 -1.427,9.643 c 0,0 -47.5,27.143 -49.286,27.857 -1.787,0.716 -28.214,25.356 -28.214,25.356 l -13.213,14.288 -2.5,2.5 28.927,1.786 18.573,0 -15.716,16.07 -26.07,13.573 -3.573,25.357 c 0,0 23.58,6.786 24.65,4.286 1.07,-2.5 46.78,-41.074 46.78,-41.074 l 13.57,-12.143 26.79,-8.214 7.5,0.35 -8.21,27.85 -6.78,14.29 22.86,-10 9.29,-6.07 6.79,-14.65 19.64,-6.07 12.5,-24.65 25.71,-7.85 11.42,-23.2 45.72,4.64 54.29,33.57 46.08,6.07 28.93,-1.07 -36.43,-44.65 -46.07,-37.5 -61.79,-25.35 -39.64,1.43 1.07,37.5 113.09358,-11.18561 c -53.95522,-64.361692 -42.65345,-23.20537 0.84791,-1.49269 l 68.04653,19.40052 27.74121,-14.74196 -34.80147,-23.86966 -41.31727,-19.901291 -59.25426,-17.918486 31.0383,-10.63943 -42.03665,-17.302322 -71.88574,-7.544482 -29.91057,-20.262637 -24.74008,15.500937 0.37696,16.617316 -65.78615,9.681372 20.28956,14.215609 -51.78037,25.329249 z"
     id="path12"
     inkscape:connector-curvature="0"
     style="fill:#4da654"
     sodipodi:nodetypes="ccccccccccccccccccsccccccccccccccccccccccccccccccccccccccc" />
  <path
     d="m 247.857,257.143 c -2.5,1.428 -41.07,8.214 -41.07,8.214 0,0 -51.073,16.43 -52.5,17.5 -1.43,1.072 -41.073,25.357 -41.073,25.357 l -41.07,28.93 -28.216,22.856 -6.787,6.07 2.5,3.93 8.22,-1.43 8.57,-4.284 29.64,-25 45.72,-31.786 28.57,-16.07 47.5,-18.216 43.58,-7.143 -1.78,-7.14 M 91.79,362.5 l -2.5,3.214 2.5,5 30.356,6.072 41.428,7.5 20.36,1.07 46.07,-2.142 15.36,-0.357 6.43,-3.928 20.715,-2.15 -7.14,-6.79 -30.72,1.07 -21.07,2.5 -18.21,3.93 -36.43,-1.43 -40,-8.22 -10.36,-5 z M 290,256.43 c 0,0 25.357,4.284 26.786,4.284 1.428,0 76.07,37.857 76.07,37.857 l 28.93,36.79 23.57,23.93 -13.213,6.07 -40.357,1.43 -43.572,5.36 -12.144,-2.151 -3.213,-8.93 21.072,4.644 50.35,-4.643 31.43,-1.42 -9.65,-11.43 -13.57,-15 L 390,303.93 364.286,291.786 314.643,265 292.857,262.5"
     id="path14"
     inkscape:connector-curvature="0"
     style="fill:#652a31" />
  <path
     d="m 194.52322,109.70656 6.90678,15.65044 9.64,23.572 26.787,60.71 37.857,130.361 30.715,104.643 1.78,70.714 -27.86,16.072 -108.57,7.5 -123.93,4.64 -20.72,-6.43 -16.07,-1.79 33.941,18.221 51.07,8.93 21.073,9.643 136.07,2.5 -29.64,-9.643 -15.357,-5 -1.428,-6.43 71.07,-0.713 34.644,-5.714 15,-10.357 22.855,-1.786 14.286,-1.43 26.786,-10 78.57,-0.713 -38.57,-19.286 -42.5,-6.78 -27.5,-41.07 -30.36,-72.85 -25,-49.28 -19.64,-65.71 -6.08,-44.64 -31.79,-70 -25.48388,-42.11359 -22.93798,-14.824715 z"
     id="path16"
     inkscape:connector-curvature="0"
     style="fill:#bd6530;stroke:#bd6530"
     sodipodi:nodetypes="ccccccccccccccccccccccccccccccccccccc" />
  <path
     d="M 87.514847,87.817797 40.252191,115.29163 10.620746,155.63559 55.348877,146.8084 138.929,116.07 129.279,108.93 28.919169,146.57097 43.368152,124.53707 106.5703,88.584959 Z M 162.144,118.57 c -1.43,0 -43.93,14.644 -43.93,14.644 l -34.644,11.072 -21.07,13.57 -24.643,16.788 -13.57,14.286 -6.43,6.07 -2.144,9.286 -13.57,9.285 22.142,-0.35 5,3.93 6.07,-0.36 12.858,-3.93 4.643,2.5 -4.643,6.08 -26.785,16.79 -9.644,9.65 -6.072,13.58 0.715,14.29 8.213,1.07 24.643,-18.22 16.07,-10.71 17.147,-11.8 28.214,-22.14 18.572,-11.07 9.643,-7.14 5,-4.64 6.78,-3.57 -7.5,23.93 -6.78,13.57 -5,7.15 -2.15,11.43 -2.15,9.65 1.43,1.43 21.79,-17.14 11.07,-11.07 21.07,-6.07 1.07,-6.784 -32.14,17.14 -12.86,8.93 3.93,-14.286 7.14,-20.72 2.14,-11.79 3.92,-12.14 -27.5,14.64 -29.29,23.2 L 59.28,240 30,257.143 l -15,10 -4.643,-3.572 8.93,-15 23.57,-16.78 14.286,-12.85 -0.714,-6.07 -6.79,-3.92 -27.14,-1.79 7.14,-12.5 6.43,-10 L 64.64,165 l 33.57,-17.857 24.29,-10.357 28.57,-7.143 7.86,-3.93 4.64,-3.57 0,-3.213 0.36,-1.073 m 90.356,27.857 20.357,0.715 17.857,12.5 20.357,9.28 15.357,-1.07 c 0,0 4.643,5.71 3.215,6.07 -1.43,0.35 -19.65,-0.72 -19.65,-0.72 L 285.71,160.7 l -17.148,-8.21 -13.562,0 m 30.714,-40.715 29.75627,2.21407 81.36206,20.12364 20.00312,-7.66168 4.84099,1.63332 -24.95173,15.86236 -31.32352,-9.29486 L 338.5108,127.06942 325.356,125 l 13.572,10.357 12.5,17.857 5.356,13.572 7.857,7.5 15.72,8.214 12.14,14.643 0.72,12.857 -8.57,-8.214 -12.15,-13.572 -7.14,-8.928 -18.571,-11.786 -8.93,-16.786 -17.86,-17.5 -30.714,-17.5"
     id="path18"
     inkscape:connector-curvature="0"
     style="fill:#30632b"
     sodipodi:nodetypes="ccccccccccccccccccccccccccccccccccccccccccccccccccccccccccccccccccccccccccccccccccccccccccccccccccccccccccccc" />
  <g
     id="g20"
     style="fill:#c5d451"
     transform="translate(0,100)">
    <path
       d="m 108.93,18.57 -11.788,13.217 -1.785,5.713 3.93,2.857 5.713,0.357 0.714,-5.714 6.072,-8.93 4.643,-3.213 -0.72,-4.643 M 185.35,20 175,31.43 165.357,36.07 155,38.215 120,36.43 l -3.214,3.213 1.428,5.357 32.5,-0.357 0.357,4.643 -9.64,10 -18.57,11.784 -20.36,6.43 -27.501,8.93 -25.357,16.784 0,6.072 6.07,2.143 16.43,-11.08 13.927,-8.92 12.86,-5.72 21.427,-5.36 13.93,-5 14.64,-10.349 10.714,-11.07 12.15,-7.5 11.779,-6.43 17.86,0.357 3.57,-4.287 -4.286,-4.64 -6.07,-1.43 -3.215,-8.57 -3.58,-2.5 M 28.21,139.643 l -9.283,5 -6.08,6.428 -2.85,8.58 -0.715,4.65 c 0,0 2.5,3.22 3.928,3.22 1.43,0 5.715,-2.14 5.715,-2.14 l -0.36,-8.57 4.28,-2.14 3.93,-6.43 3.57,-4.28 m -4.64,29.28 5,5.36 7.143,0 10.358,-7.85 11.075,-11.07 17.86,-18.93 L 90,129.29 l 1.786,-3.57 -2.857,-3.93 -7.15,2.14 -12.5,15 -15,15 -7.15,10.71 -9.29,2.857 -5.36,3.57 -3.93,-0.357"
       id="path22"
       inkscape:connector-curvature="0" />
    <path
       d="m 162.5,57.5 -8.214,6.786 -5.357,7.5 -4.289,18.214 0.357,8.57 3.93,3.93 5,-1.43 -0.36,-14.64 1.786,-10.716 7.143,-8.57 3.57,-1.787 2.5,-3.214 -2.857,-5 z m 49.286,3.93 -6.43,11.427 -16.426,16.073 -13.573,13.927 -16.428,10.357 -14.65,10.357 -6.43,2.15 3.57,5 9.28,-2.5 6.78,-5.71 17.14,-10.71 8.57,-4.28 16.8,-17.87 10.36,-12.14 5.35,-3.57 2.14,-3.57 -1.43,-7.14 -2.86,-3.92 M 241.78,5 l 11.07,-2.5 12.5,1.07 23.215,11.787 21.073,13.93 10.715,7.142 2.143,4.28 -2.14,4.64 -7.144,-0.72 L 298.93,34.279 266.07,12.849 255.715,10 l -9.285,1.43 -6.785,-0.716 0,-4.644 m 22.143,58.573 18.927,9.643 L 310,87.5 l 11.786,8.93 11.428,4.64 17.143,0.36 16.786,1.784 7.143,-2.5 8.928,-2.857 -2.857,-3.57 -5.357,-0.717 -7.857,2.86 -26.786,-0.36 c 0,0 -7.857,0 -8.928,-1.784 C 330.35,92.5 322.85,85 322.85,85 l -37.5,-16.07 -21.786,-10.716 -7.857,-4.285 1.786,6.42 z"
       id="path24"
       inkscape:connector-curvature="0" />
  </g>
  <path
     d="m 70.357,375.714 c -1.428,-1.07 -8.57,-6.07 -8.57,-6.07 L 57.5,367.5 l -5.357,0.714 -1.072,3.93 5.36,4.642 5.36,3.928 2.86,15.357 1.07,27.15 -3.57,23.57 c 0,0 2.15,50.72 2.15,52.15 0,1.43 2.5,21.79 2.5,21.79 l 6.79,8.22 3.22,6.43 -2.5,5.72 -11.43,-0.36 -7.881,1.059 -10,1.07 -2.14,3.214 8.22,4.29 25.72,6.07 c 0,0 37.5,2.5 40.358,3.214 2.85,0.714 18.92,0 18.92,0 l -13.93,7.5 -3.22,3.214 -0.36,4.29 12.86,2.143 L 160,575 l 50,-2.5 53.214,2.143 2.143,-3.214 -2.5,-3.93 -13.214,-2.15 -66.43,0.71 -26.784,1.07 -16.79,0 8.57,-2.15 3.93,-4.29 6.07,-2.86 -1.43,-3.57 -5,-2.5 -16.78,-0.36 -42.86,-1.4 -10.72,-1.43 0,-2.86 12.5,0 27.85,-1.07 41.07,2.14 38.59,-1.78 -3.58,3.93 0,1.78 2.85,2.5 24.64,2.85 60.36,0 20.36,0.72 1.08,-3.21 -4.64,-3.92 -23.57,-1.78 -55.36,-0.71 -12.85,0.71 -3.93,-2.86 4.65,-1.43 26.79,-0.71 41.78,-1.43 20,0.36 26.07,2.15 L 315,513.21 l -5.357,-46.428 -5,-37.5 -18.93,-61.786 -11.07,-35.358 -15,-51.072 -8.214,-37.856 -15.36,-44.285 -6.43,-9.645 -6.43,-23.572 -16.78,-29.64 -5.36,5.36 16.07,22.5 3.57,27.856 6.43,7.5 13.21,34.643 8.21,24.282 1.43,20.72 9.28,28.21 9.28,31.78 3.22,14.64 9.64,27.5 7.5,26.07 8.57,26.43 2.5,27.5 3.57,43.57 -3.56,13.22 -0.72,10.71 -10.36,3.21 -24.65,4.65 -78.22,4.64 -42.86,-0.71 -25.71,-2.5 -21.07,-5 -17.5,-12.14 -7.15,-16.07 0,-48.57 -1.07,-51.43 z"
     id="path26"
     inkscape:connector-curvature="0" />
  <path
     d="m 153.93,425.714 -10.716,0.715 -7.143,11.78 -2.85,12.85 -4.28,16.43 1.07,28.57 1.79,20 L 135,515 l 6.786,3.214 5,-14.285 7.143,-1.08 7.5,-16.43 0.71,-10.36 5,-9.64 7.86,-1.79 6.43,4.28 -0.72,8.21 6.78,12.5 0.71,6.42 1.07,8.93 2.14,4.64 -2.86,2.14 -6.07,-7.15 -6.79,-4.64 0.36,3.57 5,5 1.78,10.36 c 0,0 2.5,1.78 3.57,1.78 1.07,0 8.57,-1.43 8.57,-1.43 l 4.28,-4.29 2.14,-8.22 -5,-14.65 -4.29,-8.57 0.71,-5 -3.22,-6.425 -1.43,-7.14 -3.22,-3.93 2.5,-18.21 -8.57,-0.716 -3.58,-1.07 -2.14,-6.786 -4.29,-1.785 -3.93,3.93 -3.57,0.36 -1.43,-5.71 7.14,-5.353 7.14,1.79 3.21,2.86 1.43,5.36 0,5 7.853,2.14 0.36,-15 -6.075,-5.72 -7.854,-5 -8.57,0.36 -8.21,4.64 z M 218.214,111.43 c 0.715,1.427 12.857,23.213 12.857,23.213 l 16.429,21.787 4.643,7.856 5.357,12.5 1.43,12.5 5.355,5.714 3.57,14.286 11.43,25.357 2.143,12.5 4.64,33.214 5,22.857 10.36,27.5 9.64,24.643 8.932,18.573 8.93,18.927 9.284,14.643 3.572,10.357 3.928,15 7.143,15.714 8.93,15 14.284,18.22 11.79,17.86 22.86,8.57 12.15,2.86 5.72,-6.07 3.93,-6.07 10.36,0 7.15,-2.14 11.07,12.15 7.5,13.93 27.5,1.79 -13.93,10.72 -36.43,0.36 -25.71,-2.5 -8.93,0 -27.881,1.749 -15,2.5 -4.288,2.143 -1.43,3.214 2.5,2.857 18.93,2.143 32.14,-5.357 17.86,-0.714 29.28,1.428 16.79,4.643 -16.07,0.357 -11.075,1.43 -2.857,2.142 -0.358,2.5 10,3.928 23.57,-0.357 16.79,-2.143 -0.714,-6.07 -10,-6.43 4.643,-11.785 7.5,-7.86 -1.43,-9.64 -23.22,0 -13.93,-19.29 -5.72,-5.36 -4.65,-2.5 -6.79,1.07 -7.85,3.21 -7.14,0 -5,1.78 -6.07,9.64 -21.43,-7.15 -7.85,-5.36 -6.78,-15 -12.86,-15.72 -7.14,-9.65 -10,-23.22 -3.2,-16.42 -16.07,-27.86 -4.64,-14.65 -11.78,-16.43 -16.79,-44.64 -3.57,-17.5 -3.57,-17.86 -4.29,-23.93 -3.21,-9.65 1.43,-7.86 -7.5,-11.79 -8.57,-27.148 -6.78,-7.5 -2.14,-14.284 -7.14,-13.9 -1.07,-7.86 -17.87,-20.7 -6.811,-14.257 -5,-3.572 -4.286,0"
     id="path28"
     inkscape:connector-curvature="0" />
  <path
     d="m 311.07,330 31.787,5.357 5.714,7.5 0.72,2.857 -2.5,1.786 -8.21,-7.857 -13.21,-2.857 -11.78,-1.43 -2.5,-0.356 m 128.57,27.143 2.14,15.357 3.57,9.643 -0.71,13.928 0,17.5 3.93,25 2.5,23.58 -1.42,24.65 1.43,21.07 -6.07,-3.21 -1.07,-28.21 -2.14,-17.86 0.72,-22.85 -4.64,-28.57 -3.57,-20 1.07,-16.78 -3.93,-12.5"
     id="path30"
     inkscape:connector-curvature="0" />
  <g
     inkscape:groupmode="layer"
     id="layer1"
     inkscape:label="Layer 1" />
  <path
     style="fill:#30632b;fill-rule:evenodd;stroke:none;stroke-width:1px;stroke-linecap:butt;stroke-linejoin:miter;stroke-opacity:1;fill-opacity:1"
     d="m 176.37712,62.394067 -22.77542,-8.474576 -9.00424,-5.29661 8.47457,9.533898 27.01272,11.122881 -29.13136,1.059322 -30.19068,16.949153 -11.65254,10.063559 1.58898,1.588983 13.77119,-1.059322 26.48305,-10.59322 21.7161,-5.29661 -12.1822,10.063559 -19.0678,14.300846 12.71187,-0.52966 22.77542,-13.241525 6.88559,-10.063559 0.52966,-4.237288 9.00424,11.122881 0.52966,11.652541 4.76695,-14.830507 -2.6483,-8.474576 12.1822,2.118644 43.4322,12.182203 -14.30084,-16.419491 -26.48306,-4.237288 -13.77118,-2.648306 10.06356,-6.355932 5.29661,-4.237288 -5.82627,-3.707627 -15.36017,6.355932 6.35593,-12.711864 -1.05932,-9.533899 -13.77119,9.533899 -3.17797,11.652542 -4.23728,-17.478813 -9.00424,-7.944916 4.23729,13.241526 z"
     id="path4167"
     inkscape:connector-curvature="0" />
  <path
     style="fill:#30632b;fill-rule:evenodd;stroke:none;stroke-width:1px;stroke-linecap:butt;stroke-linejoin:miter;stroke-opacity:1;fill-opacity:1"
     d="M 387.71186,104.76695 336.33475,81.991525 288.13559,67.690677 318.85593,56.038135 293.96186,45.444915 277.01271,39.618643 227.22458,34.851694 205.50847,29.555084 177.9661,11.54661 163.66525,17.372881 150.95339,27.43644 175.3178,17.372881 l 14.30084,6.355932 16.94916,12.711864 64.61864,6.355933 36.54661,12.711864 -22.24576,9.004237 0,7.944916 41.84322,12.711864 38.13559,12.711864 33.36865,19.067795 6.35593,5.82627"
     id="path4169"
     inkscape:connector-curvature="0" />
  <path
     style="fill:#30632b;fill-rule:evenodd;stroke:none;stroke-width:1px;stroke-linecap:butt;stroke-linejoin:miter;stroke-opacity:1;fill-opacity:1"
     d="m 191.20763,122.77542 7.41525,-23.305082 19.59746,11.122882 11.12288,0.52966 -29.66102,-15.88983 -9.53389,7.41525 -3.17797,14.30085"
     id="path4171"
     inkscape:connector-curvature="0" />
  <path
     style="fill:#c5d451;fill-rule:evenodd;stroke:none;stroke-width:1px;stroke-linecap:butt;stroke-linejoin:miter;stroke-opacity:1;fill-opacity:1"
     d="m 362.28814,96.822033 -51.90678,-13.241525 -41.31356,-7.944915 3.70762,-6.355933 6.35594,-11.652542 11.12288,-0.529661 -21.7161,-4.766949 -25.95339,-3.707627 -27.01272,-7.415254 3.70763,7.944915 29.66102,6.885593 24.36441,2.648305 -7.94492,12.182204 0.52966,9.533898 24.36441,5.29661 58.26271,11.652542 14.83051,6.885596 14.83051,9.00423 1.05932,-3.17796"
     id="path4173"
     inkscape:connector-curvature="0" />
  <path
     style="fill:#c5d451;fill-rule:evenodd;stroke:none;stroke-width:1px;stroke-linecap:butt;stroke-linejoin:miter;stroke-opacity:1;fill-opacity:1"
     d="m 164.19492,73.516949 -27.01272,-7.415255 -33.36864,1.588983 11.12288,-6.355932 25.42373,0.529661 13.77119,0 11.12288,5.29661"
     id="path4175"
     inkscape:connector-curvature="0" />
  <path
     style="fill:#30632b;fill-opacity:1;fill-rule:evenodd;stroke:none;stroke-width:1px;stroke-linecap:butt;stroke-linejoin:miter;stroke-opacity:1"
     d="m 89.512712,55.508474 9.934505,8.256797 -2.260568,-6.431537 65.948941,-14.537124 -39.72457,2.118644 -50.847461,10.59322"
     id="path4177"
     inkscape:connector-curvature="0"
     sodipodi:nodetypes="cccccc" />
</svg>
