<svg xmlns="http://www.w3.org/2000/svg" width="1750" height="700" viewBox="0 0 1750 700.00002">
  <path d="M1694.987 567.362h6.152l3.73 2.49q-1.54 22.34-7.47 22.34-38.38 3.442-38.38 9.887v17.43l3.66 1.17q5.64-2.42 16.11-2.42h9.96l3.73 3.66v22.34l-3.74 3.73h-9.96q-14.87 0-14.87-2.49l-4.91 1.24v14.87q0 7.47 9.88 7.47l32.22 6.15 3.73 21.09-3.74 2.49h-50.79q-33.47-6.08-33.47-23.59v-1.24q0-71.63 16.11-100.42 27.54-6.23 62.03-6.23zm-129.273-1.318h8.863q41.67 2.93 41.67 10.107v11.42q0 44.16-59.4 65.7-10.11 6.66-10.11 8.86h11.35q17.21 0 30.32-5.06 4.61 0 15.23 27.83-4.1 11.35-56.91 13.91h-8.86q-41.75-2.93-41.75-10.11v-11.4q0-44.16 59.47-65.69 10.1-6.67 10.1-8.86h-11.43q-17.21 0-30.32 5.06-4.62 0-15.17-27.83 4.03-11.35 56.91-13.91zm-106.786.952h2.416q22.998 0 22.998 14.502l9.668 99.17v4.834q0 11.206-18.164 13.33h-3.59q-3.74 0-8.5-14.502h-2.42q-14.72 14.502-26.59 14.502h-2.42q-44.75-10.913-44.75-25.415l-2.42-55.664 1.17-1.17v-1.24l-1.17-13.25v-18.17l-1.25-4.83q0-8.49 15.74-8.49h12.08q6 0 6 52 2.42 0 2.42 12.16v9.67q0 12.09 18.16 16.92h4.83q7.32 0 16.99-14.5l-3.66-45.99 1.24-1.18v-1.24l-1.25-13.33v-15.68l2.42-2.41zm-139.6 0h15.894q31.348 0 45.19 48.78l2.417 20.8q0 30.615-30.54 54.932-9.96 7.324-23.14 7.324-35.82 0-59.85-39.038-4.9-8.423-4.9-14.65v-18.382q0-33.326 35.38-53.687l19.56-6.08zm-21.533 59.253q7.764 27.61 24.243 27.61h5.713q13.41 0 17.29-16.12v-3.44q-6.15-31.13-19.55-31.13h-2.34q-14.14 0-25.35 21.9v1.17zm-120.483-59.18h39.038q37.866 10.32 37.866 37.79 0 12.82-9.814 24.46 18.31 13.84 18.31 30.47 0 18.53-20.727 32.96-4.834 6.08-10.987 6.08h-21.973l-7.325-1.24-1.17 1.25q-29.298-1.17-29.298-9.74l1.245-8.57v-70.76l1.172-4.9-1.18-4.83q0-32.96 4.83-32.96zm23.218 29.29l1.17 23.14 1.247 1.24h1.24q13.84-6.16 20.72-18.31v-1.25q-6.89-12.16-17.07-12.16h-3.66q-2.49 0-3.66 7.32zm7.324 47.53q-3.662 4.54-3.662 17.14v3.66l1.172 4.83-1.172 3.66 1.172 3.66q16.333 0 28.125-20.73 0-10.4-25.63-12.23zm-160.913-76.54h3.67q42.56 7.32 42.56 24.32l8.56 8.57 14.57-20.73q14.87-9.74 35.3-12.16h3.66q7.76 3.95 13.4 58.44v64.52q0 8.49-10.99 8.49h-10.92q-14.21 0-19.48-4.84l2.41-68.19q-19.19 13.04-23.15 29.22l-4.84 3.59h-3.66l-10.99-20.65q-3.67-1.54-7.26-10.98-2.93 0-7.32-6.08v1.25l2.42 71.85q-5.27 4.84-19.48 4.84h-10.91q-10.99 0-10.99-8.49V625.8q5.64-54.49 13.4-58.44zm-96.82-.29h25.86q13.99 0 22.2 27.1 30.76 64.45 30.76 93.6 2.49 0 2.49 6.15l-3.66 4.9-14.79-1.25h-20.95q-3.07 0-8.64-28.35l-1.17-1.17q0-6.16-11.13-6.16-11.86-3.73-22.12-3.73-7.39 2.13-7.39 14.8-2.78 0-6.15 12.31-7.4 12.16-9.89 12.31h-7.4l-4.9-1.24-3.66 1.25q-10.98 0-16.04-6.15v-1.25q0-16.62 46.81-109.57 6.08-12.52 9.82-13.55zm16.04 38.16l-11.06 27.1v1.24q0 4.55 20.88 6.16l1.25-1.24v-1.24l-8.57-32h-2.49zm-166.78-37.86h38.97q37.72 10.32 37.72 37.72 0 18.45-20.66 32.88v2.41q18.67 15.01 36.47 42.62v1.24q-18.24 12.08-29.23 13.33l-32.81-47.46-3.66-1.18 1.17 1.17-1.17 6.08v1.24l3.66 34.05q0 6.08-7.33 6.08v1.24q-29.23-1.17-29.23-9.74l1.24-8.5v-70.6l1.17-4.91-1.17-4.83q0-32.89 4.83-32.89zm23.15 29.22l1.24 23.14 1.17 1.17h1.24q13.77-6.08 20.65-18.24v-1.25q-6.81-12.16-16.99-12.16h-3.67q-2.42 0-3.66 7.32zm-40.07-29.89h6q2.85 0 4.76 9.52 0 14.28-27.39 14.28l-1.18 1.17h-1.24q3.59 91.33 6 97.63 0 6.66-21.46 9.52h-11.86q-13.11-1.83-13.11-5.93 4.76-68.56 7.1-78.59v-16.62l-2.35-2.42q-7.25 3.59-21.46 3.59l-1.17-1.18v-6q2.49-22.56 17.87-22.56 18.31-2.42 59.47-2.42zm-84.01 97.93h-38.96l4.17-16.48.44-10.7h39.04l-3.66 11.72 2.12 7.1-3.15 8.35zm-59.26-97.92h6q2.85 0 4.76 9.52 0 14.28-27.4 14.28l-1.17 1.17h-1.25q3.59 91.33 6.01 97.63 0 6.66-21.46 9.52h-11.86q-13.11-1.83-13.11-5.94 4.76-68.56 7.1-78.59v-16.62l-2.35-2.42q-7.25 3.59-21.46 3.59l-1.18-1.18v-6.01q2.49-22.56 17.87-22.56 18.32-2.41 59.48-2.41zm-171.09.36h3.44q18.6 2.79 34.35 12.16l13.77 23.22h1.17q0-27.9 9.15-34.2 21.75 0 21.75 8.57l7.98 96.39v9.74l1.17 4.91q-2.71 8.57-13.77 8.57h-14.86q-9.16 0-9.16-9.81v-21.9q0-8.93-9.16-13.47-8.35-19.04-21.76-30.47v1.18l2.27 72q-4.98 4.91-18.31 4.91h-10.32q-10.33 0-10.33-8.57v-64.7q5.35-54.56 12.6-58.52zm-77.2-.07h15.89q31.35 0 45.19 48.78l2.41 20.8q0 30.62-30.54 54.93-9.96 7.33-23.14 7.33-35.82 0-59.84-39.04-4.91-8.42-4.91-14.65v-18.39q0-33.32 35.37-53.68l19.55-6.08zm-21.53 59.25q7.76 27.61 24.24 27.61h5.71q13.4 0 17.28-16.11v-3.44q-6.16-31.13-19.56-31.13h-2.34q-14.13 0-25.34 21.9v1.17zm-112.79-59.55h39.11q37.94 10.33 37.94 37.94 0 18.53-20.81 33.04-11.5 10.99-29.37 10.99l1.24 1.24-1.24 6.08v1.25l3.66 34.28q0 6.08-7.33 6.08v1.25q-29.37-1.17-29.37-9.81l1.24-8.57v-70.9l1.17-4.91-1.17-4.91q0-33.03 4.9-33.03zm23.22 29.37l1.24 23.22 1.17 1.25h1.24q13.92-6.15 20.8-18.38v-1.17q-6.88-12.23-17.14-12.23h-3.66q-2.42 0-3.66 7.32z" fill="#bd6530"/>
  <path d="M920.085 369.994h2.417q22.998 0 22.998 14.502l9.668 99.17v4.834q0 11.206-18.164 13.33h-3.59q-3.74 0-8.5-14.502h-2.42q-14.72 14.502-26.59 14.502h-2.42q-44.75-10.913-44.75-25.415l-2.42-55.66 1.17-1.17v-1.24l-1.17-13.25v-18.17l-1.25-4.836q0-8.5 15.74-8.5h12.08q6 0 6 52 2.42 0 2.42 12.16v9.66q0 12.08 18.16 16.92h4.83q7.32 0 16.99-14.51l-3.66-46 1.24-1.17v-1.25l-1.25-13.33v-15.68l2.42-2.42zm-139.6 0h15.894q31.34 0 45.19 48.78l2.41 20.8q0 30.615-30.54 54.932-9.96 7.324-23.14 7.324-35.81 0-59.84-39.038-4.9-8.423-4.9-14.65V429.76q0-33.326 35.38-53.687l19.56-6.08zm-21.533 59.253q7.764 27.612 24.243 27.612h5.713q13.403 0 17.285-16.12v-3.44q-6.152-31.13-19.555-31.13h-2.344q-14.14 0-25.35 21.9v1.17zm-120.997-59.693h14.65l1.244 1.245 1.24-1.25h23.29q37.79 0 46.51 64.89v3.66q0 33.4-34.28 57.56-12.89 6.15-30.62 6.15-28.2-1.54-28.2-9.82l1.24-8.56V412.4l1.17-4.9-1.17-4.9q0-33.03 4.9-33.03zm22.047 30.616q2.417 5.493 2.417 15.893v34.35l2.49 2.41h8.57q14.2 0 18.31-17.14v-3.66q-6.52-33.11-20.8-33.11h-2.42l-8.57 1.24zm-111.62-30.103h25.853q13.99 0 22.193 27.1 30.76 64.453 30.76 93.603 2.492 0 2.492 6.153l-3.663 4.9-14.794-1.25h-20.948q-3.076 0-8.642-28.35l-1.172-1.17q0-6.15-11.13-6.15-11.86-3.74-22.12-3.74-7.39 2.12-7.39 14.79-2.78 0-6.15 12.3-7.4 12.15-9.89 12.3h-7.39l-4.91-1.24-3.66 1.24q-10.99 0-16.04-6.16v-1.24q0-16.63 46.8-109.57 6.08-12.53 9.82-13.55zm16.04 38.16l-11.06 27.1v1.244q0 4.54 20.873 6.16l1.245-1.25v-1.25l-8.57-32.01h-2.49zm-94.85-38.673h7.03q4.47 0 13.04 25.928v3.59q0 1.757-4.762 3.515l-11.792-2.344q-16.553 0-31.934 11.79v1.17q39.62 22.7 46.07 41.38 2.12 0 4.76 12.96 0 13.84-24.83 28.34-17.14 5.93-30.69 5.93h-3.52q-31.94-3.01-31.94-8.28-9.45-7.33-9.45-37.8l1.17-1.17h2.34q26.88 12.96 31.93 12.96h16.55l2.34-2.34v-3.52q-10.77-13.11-41.39-28.42l-12.97-11.79v-9.45q0-15.38 37.79-33.03 22.12-9.45 40.21-9.45zm-100.195 0h7.03q4.47 0 13.038 25.928v3.59q0 1.757-4.76 3.515l-11.793-2.344q-16.552 0-31.933 11.79v1.17q39.62 22.7 46.07 41.38 2.12 0 4.76 12.96 0 13.84-24.83 28.34-17.14 5.93-30.69 5.93h-3.52q-31.93-3.01-31.93-8.28-9.45-7.33-9.45-37.8l1.17-1.17h2.35q26.88 12.96 31.94 12.96h16.55l2.35-2.34v-3.52q-10.76-13.11-41.38-28.42l-12.98-11.77v-9.45q0-15.38 37.8-33.03 22.12-9.45 40.21-9.45zm-161.426.513h25.86q13.99 0 22.2 27.1 30.76 64.453 30.76 93.603 2.49 0 2.49 6.153l-3.66 4.9-14.79-1.25h-20.95q-3.07 0-8.64-28.35l-1.17-1.17q0-6.15-11.13-6.15-11.86-3.74-22.12-3.74-7.39 2.12-7.39 14.79-2.78 0-6.15 12.3-7.39 12.15-9.88 12.3h-7.4l-4.93-1.23-3.66 1.24q-10.98 0-16.04-6.16v-1.24q0-16.63 46.8-109.57 6.08-12.53 9.82-13.55zm16.04 38.16l-11.06 27.1v1.244q0 4.54 20.88 6.16l1.25-1.25v-1.25l-8.57-32.01H224zm-198.41-38.82h10.99q14.36 0 19.63 4.908l-2.42 73.54q9.82-7.764 9.82-13.477 6.74-2.343 13.48-23.29l1.25-1.245h4.84q3.3 1.46 15.97 23.36 9.16 9.23 12.31 9.74v-1.17l-2.49-67.46q5.28-4.91 19.63-4.91h11.06q9.38 0 10.99 4.9v68.63q-5.64 54.93-13.47 58.88h-3.67q-42.92-7.4-42.92-24.54l-8.57-8.57-14.72 20.87q-14.94 9.81-35.59 12.23H28q-7.762-3.96-13.475-58.89v-64.96q0-8.57 11.06-8.57z" fill="#4da654"/>
  <path d="M715.23 242.87h2.872l1.743 1.163q-.718 10.425-3.486 10.425-17.92 1.606-17.92 4.614v8.135l1.71.547q2.63-1.128 7.52-1.128h4.64l1.74 1.71v10.424l-1.75 1.743h-4.65q-6.94 0-6.94-1.162l-2.29.59v6.94q0 3.49 4.61 3.49l15.04 2.87 1.74 9.85-1.75 1.17h-23.72q-15.62-2.83-15.62-11v-.58q0-33.43 7.51-46.86 12.85-2.9 28.95-2.9zm-41.528-.307h2.803q1.333 0 2.222 4.444 0 6.665-12.783 6.665l-.547.547h-.58q1.673 42.62 2.8 45.56 0 3.11-10.013 4.44h-5.537q-6.12-.86-6.12-2.77 2.223-31.99 3.317-36.68v-7.76l-1.094-1.13q-3.384 1.67-10.015 1.67l-.546-.55v-2.8q1.16-10.53 8.33-10.53 8.54-1.13 27.75-1.13zm-57.353.308h8.03q6.87 0 6.87 10.33l5.16 48.74v.58q-.55 1.71-3.42 1.71h-3.45q-8.79 0-14.9-6.32v-53.32l1.71-1.71zm-45.63 0h18.18q17.6 4.82 17.6 17.61 0 8.62-9.64 15.35v1.13q8.71 7.01 17.02 19.89v.58q-8.51 5.64-13.64 6.22l-15.31-22.15-1.71-.54.54.55-.55 2.84v.58l1.71 15.9q0 2.84-3.42 2.84v.58q-13.64-.54-13.64-4.54l.58-3.96V262.8l.55-2.29-.55-2.255q0-15.35 2.25-15.35zm10.8 13.64l.58 10.8.54.55h.58q6.42-2.83 9.64-8.51v-.58q-3.18-5.67-7.93-5.67h-1.71q-1.13 0-1.71 3.42zm-52.57-13.77h12.06q6.53 0 10.35 12.65 14.35 30.08 14.35 43.68 1.16 0 1.16 2.87l-1.71 2.29-6.91-.58h-9.77q-1.44 0-4.04-13.22l-.55-.54q0-2.87-5.2-2.87-5.54-1.74-10.32-1.74-3.45.99-3.45 6.9-1.3 0-2.87 5.75-3.46 5.68-4.62 5.74H514l-2.29-.58-1.71.58q-5.125 0-7.484-2.87v-.58q0-7.76 21.84-51.13 2.84-5.84 4.58-6.32zm7.48 17.81l-5.16 12.65v.58q0 2.12 9.74 2.87l.58-.58v-.58l-4-14.93h-1.17zm-74.78-18.05h6.83l.58.58.58-.58h10.87q17.63 0 21.7 30.29v1.71q0 15.59-16 26.87-6.02 2.87-14.29 2.87-13.16-.71-13.16-4.58l.58-4V262.5l.54-2.29-.55-2.29q0-15.414 2.29-15.414zm10.29 14.29q1.12 2.57 1.12 7.42v16.03l1.16 1.13h4q6.63 0 8.54-7.99v-1.71q-3.05-15.45-9.71-15.45h-1.13l-4 .58zm-34.42-13.91h8.03q6.87 0 6.87 10.32l5.16 48.74v.58q-.55 1.71-3.42 1.71h-3.45q-8.79 0-14.9-6.32v-53.32l1.71-1.71zm-27.93 0h2.32l1.74 1.74-.58 1.75.58 6.94v1.16l.58 17.95-.58 15.62q0 3.25 19.07 4.62 1.16 1.16 2.32 10.43l-1.75 1.17h-2.87q-30.11-.71-30.11-4.61-6.36-14.87-6.36-46.89 0-6.56 15.62-9.84zm-45.77-.17h7.41q14.63 0 21.09 22.77l1.13 9.71q0 14.29-14.25 25.64-4.65 3.42-10.8 3.42-16.72 0-27.93-18.21-2.29-3.93-2.29-6.83v-8.58q0-15.55 16.51-25.05l9.12-2.83zm-10.05 27.65q3.62 12.89 11.31 12.89h2.66q6.25 0 8.06-7.52v-1.6q-2.87-14.52-9.13-14.52h-1.09q-6.6 0-11.83 10.22v.55zm-25.94-27.85h3.28q2.08 0 6.08 12.1v1.68q0 .82-2.22 1.64l-5.5-1.09q-7.73 0-14.91 5.5v.55q18.49 10.6 21.5 19.31.99 0 2.22 6.05 0 6.46-11.59 13.23-8 2.77-14.32 2.77h-1.65q-14.9-1.4-14.9-3.86-4.41-3.41-4.41-17.63l.55-.54h1.09q12.54 6.05 14.9 6.05h7.72l1.09-1.09v-1.64q-5.03-6.12-19.31-13.26l-6.05-5.5v-4.41q0-7.18 17.63-15.41 10.32-4.41 18.76-4.41z" fill="#3d3d3f"/>
  <path d="M1247.523 249.457l-65.714 18.57s-81.43 40-84.29 41.787c-2.86 1.786-53.22 44.286-53.22 44.286l12.5 9.286 11.78 4.28-1.07 76.07-11.43 58.93s46.08 23.93 48.93 24.29c2.85.358 85.35 4.644 85.35 4.644l110.35-7.5 87.85 9.643 83.58 9.285-29.28-29.28 10.36-7.5-12.85-160.71-48.93-55.71-76.44-39.3z" fill="#f0de41"/>
  <g fill="#bea64d">
    <path d="M1076.81 377.67l.713 38.93-.714 41.786 3.92 2.14 3.21-3.57 8.21-30.356 5.71-17.143 11.07-11.786 8.92-11.42-2.85-4.28h-5.71l-12.5 17.5s-14.65 30.72-14.65 27.86c0-2.85 1.43-32.85 1.43-32.85v-10l-.71-6.43m52.14-73.57l-7.86 14.29-8.57 11.07-5 5.72v4.65s3.22 2.15 4.65 2.15c1.43 0 5-2.14 5-2.14l9.65-15.71 9.29-13.93-.71-3.57zm-34.65 130l-1.79 18.57 1.43 14.64 2.15 18.22.72 5.35s6.43 2.14 6.43-.72c0-2.86-.36-18.22-.36-18.22l-3.57-12.5.72-19.29 1.79-2.5-2.5-5-5-.71zm159.64-40l-1.07 26.07-1.43 12.5-3.22 12.86-.36 12.5 2.5 13.57 5 11.79 3.92 8.57s1.07 3.22 2.5 3.58c1.43.35 5.71-.36 5.71-.36v-6.79l-4.63-6.78-.72-7.15-5.36-9.65 1.08-13.2.35-16.79 3.57-5 1.07-13.93-1.08-13.57-1.79-6.79zm-53.93 20.36l-.36 20.72-.36 24.65 3.93 17.86 4.64 9.65s2.85.36 4.28.36c1.43 0 4.28-.71 4.28-2.14 0-1.43 1.43-3.93 0-4.64-1.43-.71-5.72-11.78-5.72-11.78l-3.57-28.93 1.8-18.22-.36-4.28 3.93 4.65 5.72 20 6.43 14.28v10.36l-.36 3.93-4.29 3.57v5l3.22 3.22 6.07-2.5 5.36-4.28v-10l-3.93-19.64-10.72-33.21-10.72-18.21-5.36-2.5-3.22 1.43-1.79 2.5 3.21 7.14 6.43 10.72-1.07 1.43-5-2.86zm-34.28 38.21l-4.65 11.08-2.86 19.65-4.65 9.29-1.79 13.58 5.36 3.22 7.86-3.21.72-2.85 2.15 6.43 2.14 4.29 9.65 3.22 6.79-2.85-2.14-3.92-7.85-2.5-1.07-16.79-5.71-3.57-8.21 7.86.72-9.64s3.22-3.57 3.58-5.71c.36-2.14 0-12.86 0-12.86l2.86-3.21 3.93-6.07-.35-5-2.86-.71zm-52.5-147.14c-1.43-.71-10.36 1.07-10.36 1.07l-10.36 5-5 6.43-3.22 4.64-4.65 1.43-.72 4.29 3.21 3.57 7.85-2.14 15.36-13.92 9.28-2.86 3.57-3.93zm14.64 38.57v5.72l4.28 1.79 6.07-4.64 10.35-11.78 14.28-6.78 6.42-2.14 6.43-.71 4.28-2.14 3.93 2.5 10-7.14 16.78-14.64 9.28-6.43 11.43-2.5 5.36-1.42-1.43-5.35-7.5-1.07h-12.86l-12.86 10-11.79 12.86-8.58 7.86-7.5-1.79-8.57 2.5-13.93 5.71-11.79 8.58-7.5 7.14zm62.85-71.07l-5.36 6.43-7.15 6.43-5.72 2.14-7.86 5.71-.36 5 3.21 2.86 8.21-4.65 9.64-5.72 7.5-5.72 4.28-6.79-1.79-5.36z"/>
    <path d="M1244.31 264.1l6.427 15 4.643 12.5 1.786 10.714.357 10-6.07 1.786-5-2.5-3.93 7.5-12.143 11.786-3.928 5.71-6.08.35-2.5-4.29 3.93-6.79 14.28-11.08 3.94-7.83 3.93-4.642 5.714-1.07-8.214-22.144-2.5-9.286 1.42-4.286zm-126.787 101.07l9.643 17.144 12.143 10 12.85 1.43 15-9.644 7.85-8.93-4.29-5.713-8.22 4.643-11.43 7.857-9.64 1.43-9.29-11.073-6.79-9.286-3.22-1.78-3.58 1.07zm105.714-21.427l8.572-3.215s6.07 1.08 8.21 1.08c2.14 0 7.85-3.21 7.85-3.21l2.14-3.94 4.28-2.5 4.28 2.5-.71 6.43-7.14 3.57-8.57 5.356-8.21 1.072-5.36.71-6.07-1.43-1.07-3.57zm77.143-77.143l19.643.714 20.357 5.714 17.143 7.15 10.714 8.93-.714 2.5-6.786 2.14-13.57-11.43-11.787-4.64s-14.286-5-17.857-4.28c-3.57.72-15-1.43-15-1.43zm41.786 101.427l13.928 27.5 5.36 18.216 10.72-10.357 12.15-18.22 3.57-25.72-5-.72-4.64 3.21.36 10-.35 11.07-6.78 11.07-10 7.85-7.86-21.79-4.28-12.15-2.14-2.14m-16.79-65.71l8.22-3.57 11.79 10s12.5 8.57 15 8.21c2.5-.36 22.86-.72 22.86-.72l14.65-1.43 1.79 6.78-8.21 1.78h-24.69s-6.075.71-7.86 0c-1.79-.72-10-3.93-11.79-5.36-1.786-1.43-10.714-11.08-10.714-11.08l-3.93-1.79-6.07.36m77.143 63.93l7.5 17.146 1.08 17.5-1.07 21.78v16.07l.72 20.72-2.85 8.57 4.64 3.93s3.58-5.357 3.93-7.14c.36-1.788 0-28.57 0-28.57l-.35-41.07-1.07-16.79-5.71-10.718m-18.58 20.72v16.785l-6.07 21.07-8.57 17.14 3.213 7.5 7.5-7.15 6.43-16.07 4.283-18.57-1.07-17.5-2.85-8.93"/>
  </g>
  <path d="M1081.304 78.667l-32.374 21.6-37.415 42.622 45.626-10.01 58.6-27.72-25.71 5.71-5 1.42 16.07 7.85-1.42 9.64s-47.5 27.14-49.28 27.85c-1.78.71-28.21 25.35-28.21 25.35l-13.21 14.28-2.5 2.5 28.93 1.78h18.58l-15.71 16.07-26.07 13.57-3.57 25.36s23.58 6.78 24.65 4.28c1.07-2.5 46.78-41.076 46.78-41.076l13.57-12.14 26.79-8.214 7.5.35-8.21 27.85-6.78 14.29 22.86-10 9.29-6.07 6.79-14.65 19.64-6.07 12.5-24.65 25.71-7.85 11.42-23.2 45.72 4.64 54.29 33.57 46.08 6.07 28.93-1.07-36.43-44.65-46.07-37.5-61.79-25.35-39.64 1.43 1.07 37.5 113.09-11.184c-53.95-64.36-42.65-23.204.85-1.49l68.05 19.4 27.74-14.74-34.8-23.87-41.32-19.9-59.25-17.92 31.04-10.636-42.03-17.3-71.89-7.543-29.91-20.26-24.74 15.5.38 16.62-65.78 9.68L1105 54.64l-51.78 25.33z" fill="#4da654"/>
  <path d="M1247.88 244.1c-2.5 1.428-41.07 8.214-41.07 8.214s-51.073 16.43-52.5 17.5c-1.43 1.072-41.073 25.357-41.073 25.357l-41.07 28.93-28.216 22.86-6.78 6.07 2.5 3.93 8.22-1.43 8.57-4.28 29.64-25 45.72-31.78 28.57-16.07 47.5-18.21 43.58-7.14-1.78-7.14m-157.87 103.57l-2.5 3.22 2.5 5 30.36 6.08 41.43 7.5 20.36 1.07 46.07-2.14 15.36-.35 6.43-3.93 20.72-2.15-7.14-6.79-30.72 1.07-21.07 2.5-18.21 3.93-36.43-1.43-40-8.22-10.36-5zm198.21-106.07s25.36 4.29 26.79 4.29c1.43 0 76.07 37.86 76.07 37.86l28.93 36.79 23.57 23.93-13.21 6.07-40.35 1.43-43.57 5.36-12.14-2.15-3.21-8.93 21.07 4.65 50.35-4.64 31.43-1.42-9.65-11.43-13.57-15-22.49-29.29-25.71-12.14L1314.7 252l-21.783-2.5" fill="#652a31"/>
  <path d="M1194.546 96.664l6.907 15.65 9.64 23.572 26.787 60.71 37.857 130.36 30.715 104.644 1.78 70.714-27.86 16.072-108.57 7.5-123.93 4.64-20.72-6.43-16.07-1.79 33.94 18.22 51.07 8.93 21.074 9.644 136.07 2.5-29.64-9.643-15.357-5-1.43-6.43 71.07-.713 34.64-5.714 15-10.357 22.85-1.786 14.28-1.43 26.78-10 78.57-.713-38.57-19.286-42.5-6.78-27.5-41.07-30.36-72.85-25-49.28-19.64-65.71-6.08-44.64-31.79-70-25.49-42.113-22.94-14.825z" fill="#bd6530"/>
  <path d="M1087.538 74.775l-47.263 27.474-29.63 40.34 44.727-8.83 83.58-30.74-9.65-7.14-100.36 37.64 14.45-22.04 63.2-35.95zm74.63 30.752c-1.43 0-43.93 14.644-43.93 14.644l-34.645 11.08-21.07 13.57-24.643 16.79-13.57 14.29-6.43 6.07-2.144 9.29-13.57 9.29 22.142-.35 5 3.93 6.07-.36 12.858-3.93 4.643 2.5-4.65 6.08-26.79 16.79-9.65 9.65-6.07 13.58.71 14.29 8.21 1.07 24.64-18.22 16.07-10.71 17.14-11.8 28.21-22.14 18.57-11.07 9.64-7.14 5-4.64 6.78-3.57-7.5 23.93-6.78 13.57-5 7.15-2.15 11.43-2.15 9.65 1.43 1.43 21.79-17.14 11.07-11.07 21.07-6.07 1.07-6.78-32.14 17.14-12.86 8.93 3.93-14.28 7.14-20.72 2.14-11.79 3.92-12.14-27.5 14.64-29.29 23.2-29.62 21.4-29.26 17.13-15 10-4.64-3.57 8.93-15 23.57-16.78 14.28-12.85-.72-6.07-6.79-3.92-27.14-1.79 7.14-12.5 6.43-10 28.57-19.66 33.57-17.85 24.29-10.35 28.57-7.14 7.86-3.93 4.64-3.57v-3.22l.36-1.07m90.36 27.86l20.36.72 17.86 12.5 20.36 9.28 15.36-1.07s4.64 5.71 3.21 6.07c-1.43.35-19.65-.72-19.65-.72l-26.07-11.79-17.15-8.21H1255m30.715-40.71l29.755 2.22 81.36 20.13 20-7.66 4.84 1.63-24.95 15.86-31.33-9.295-26.89-7.585-13.16-2.07 13.57 10.36 12.5 17.853 5.36 13.57 7.86 7.5 15.72 8.218 12.14 14.65.72 12.86-8.57-8.214-12.15-13.57-7.14-8.924-18.57-11.784-8.93-16.786-17.86-17.5-30.72-17.5" fill="#30632b"/>
  <g fill="#c5d451">
    <path d="M1108.953 105.527l-11.788 13.217-1.785 5.713 3.93 2.857 5.713.357.714-5.71 6.072-8.93 4.64-3.21-.72-4.64m69.64 1.79l-10.35 11.43-9.64 4.64-10.36 2.15-35-1.78-3.22 3.21 1.42 5.36 32.5-.35.35 4.65-9.64 10-18.57 11.79-20.36 6.43-27.5 8.93-25.36 16.79v6.07l6.07 2.15 16.43-11.08 13.92-8.92 12.86-5.72 21.42-5.36 13.93-5 14.64-10.35 10.71-11.07 12.15-7.5 11.78-6.43 17.86.36 3.57-4.28-4.29-4.64-6.07-1.43-3.22-8.57-3.58-2.5m-159.63 120.7l-9.28 5-6.08 6.43-2.85 8.58-.72 4.65s2.5 3.22 3.93 3.22c1.43 0 5.72-2.14 5.72-2.14l-.36-8.57 4.28-2.14 3.93-6.43 3.57-4.28m-4.64 29.28l5 5.36h7.14l10.36-7.85 11.08-11.07 17.86-18.93 12.86-11.46 1.786-3.57-2.86-3.93-7.15 2.14-12.5 15-15 15-7.15 10.71-9.29 2.86-5.36 3.57-3.93-.353"/>
    <path d="M1162.523 144.457l-8.214 6.786-5.36 7.5-4.29 18.214.36 8.57 3.93 3.93 5-1.43-.36-14.64 1.78-10.716 7.14-8.57 3.57-1.78 2.5-3.21-2.86-5zm49.286 3.93l-6.43 11.427-16.43 16.073-13.58 13.927-16.43 10.357-14.65 10.36-6.43 2.15 3.57 5 9.28-2.5 6.78-5.71 17.14-10.71 8.57-4.28 16.8-17.87 10.36-12.14 5.35-3.57 2.14-3.57-1.43-7.14-2.86-3.92m28.23-54.31l11.07-2.5 12.5 1.07 23.21 11.79 21.07 13.93 10.71 7.14 2.14 4.28-2.14 4.64-7.15-.72-14.28-10.35-32.86-21.43-10.36-2.85-9.29 1.43-6.79-.71v-4.65m22.14 58.58l18.92 9.65 29.29 13.22 11.78 8.93 11.42 4.64 17.142.36 16.787 1.78 7.14-2.5 8.925-2.86-2.857-3.57-5.36-.71-7.85 2.86-26.79-.36s-7.85 0-8.93-1.78-8.58-9.28-8.58-9.28l-37.5-16.07-21.78-10.71-7.855-4.28 1.782 6.42z"/>
  </g>
  <path d="M1070.38 362.67c-1.428-1.07-8.57-6.07-8.57-6.07l-4.287-2.143-5.357.714-1.072 3.93 5.36 4.65 5.36 3.93 2.86 15.36 1.07 27.15-3.57 23.57s2.15 50.72 2.15 52.15c0 1.43 2.5 21.79 2.5 21.79l6.79 8.22 3.22 6.43-2.5 5.72-11.43-.36-7.88 1.06-10 1.07-2.14 3.22 8.22 4.29 25.72 6.07s37.5 2.5 40.357 3.22c2.85.72 18.92 0 18.92 0l-13.93 7.5-3.22 3.22-.36 4.29 12.86 2.14 28.58-1.8 50-2.5 53.22 2.14 2.15-3.21-2.5-3.93-13.21-2.15-66.43.71-26.78 1.07h-16.79l8.57-2.15 3.93-4.29 6.07-2.86-1.43-3.57-5-2.5-16.78-.36-42.86-1.4-10.72-1.43v-2.86h12.5l27.85-1.07 41.07 2.14 38.59-1.78-3.58 3.93v1.78l2.85 2.5 24.64 2.85h60.36l20.36.72 1.08-3.21-4.64-3.92-23.57-1.78-55.36-.71-12.85.71-3.93-2.86 4.65-1.43 26.79-.71 41.78-1.43 20 .36 26.07 2.15-11.08-30.74-5.35-46.43-5-37.5-18.93-61.78-11.07-35.36-15-51.07-8.21-37.85-15.36-44.28-6.43-9.64-6.43-23.57-16.78-29.64-5.36 5.36 16.07 22.5 3.57 27.858 6.43 7.5 13.21 34.64 8.21 24.28 1.43 20.72 9.28 28.21 9.28 31.78 3.22 14.64 9.64 27.5 7.5 26.07 8.57 26.43 2.5 27.5 3.57 43.57-3.56 13.22-.72 10.71-10.36 3.21-24.65 4.65-78.22 4.64-42.86-.71-25.71-2.5-21.07-5-17.5-12.14-7.15-16.07v-48.57l-1.07-51.43z"/>
  <path d="M1153.953 412.67l-10.716.716-7.143 11.78-2.85 12.85-4.28 16.43 1.07 28.57 1.79 20 3.2-1.06 6.785 3.215 5-14.28 7.14-1.08 7.5-16.43.71-10.36 5-9.64 7.86-1.79 6.43 4.28-.72 8.21 6.78 12.5.71 6.42 1.07 8.93 2.14 4.64-2.86 2.14-6.07-7.15-6.79-4.64.36 3.57 5 5 1.78 10.36s2.5 1.78 3.57 1.78c1.07 0 8.57-1.43 8.57-1.43l4.28-4.29 2.14-8.22-5-14.65-4.29-8.57.71-5-3.22-6.42-1.43-7.14-3.22-3.93 2.5-18.21-8.57-.71-3.58-1.07-2.14-6.78-4.29-1.78-3.93 3.93-3.57.36-1.43-5.71 7.14-5.35 7.14 1.79 3.21 2.86 1.43 5.36v5l7.85 2.14.36-15-6.08-5.72-7.86-5-8.57.36-8.21 4.64zm64.284-314.283c.715 1.427 12.857 23.213 12.857 23.213l16.43 21.787 4.642 7.856 5.357 12.5 1.43 12.5 5.355 5.714 3.57 14.286 11.43 25.357 2.143 12.5 4.64 33.214 5 22.857 10.36 27.5 9.64 24.65 8.94 18.58 8.93 18.93 9.29 14.65 3.57 10.36 3.93 15 7.14 15.72 8.93 15 14.29 18.22 11.79 17.86 22.86 8.57 12.15 2.86 5.72-6.07 3.93-6.07h10.36l7.15-2.14 11.07 12.15 7.5 13.93 27.5 1.79-13.93 10.72-36.43.36-25.71-2.5h-8.93l-27.88 1.75-15 2.5-4.29 2.14-1.43 3.22 2.5 2.86 18.93 2.14 32.14-5.35 17.86-.71 29.28 1.43 16.79 4.65-16.07.36-11.07 1.43-2.85 2.145-.35 2.5 10 3.928 23.57-.35 16.79-2.143-.71-6.07-10-6.43 4.65-11.784 7.5-7.86-1.43-9.64h-23.22l-13.93-19.29-5.72-5.36-4.65-2.5-6.79 1.07-7.85 3.21h-7.14l-5 1.78-6.07 9.64-21.43-7.15-7.85-5.36-6.78-15-12.86-15.72-7.14-9.65-10-23.22-3.2-16.42-16.07-27.86-4.64-14.65-11.78-16.43-16.79-44.64-3.57-17.5L1294 258l-4.29-23.93-3.21-9.65 1.43-7.86-7.5-11.79-8.57-27.15-6.78-7.5-2.14-14.282-7.14-13.9-1.07-7.86-17.87-20.7-6.81-14.256-5-3.57h-4.29"/>
  <path d="M1311.093 316.957l31.787 5.357 5.714 7.5.72 2.857-2.5 1.79-8.21-7.85-13.21-2.85-11.78-1.43-2.5-.35m128.57 27.15l2.14 15.36 3.57 9.65-.71 13.93v17.5l3.93 25 2.5 23.58-1.42 24.65 1.43 21.07-6.07-3.21-1.07-28.21-2.14-17.86.72-22.85-4.64-28.57-3.57-20 1.07-16.78-3.93-12.5"/>
  <path d="M1176.4 49.35l-22.776-8.473-9.004-5.297 8.475 9.534 27.012 11.123-29.13 1.06-30.192 16.948-11.652 10.064 1.59 1.58 13.77-1.06 26.483-10.6 21.716-5.3L1160.51 79l-19.068 14.3 12.712-.53 22.775-13.24 6.88-10.065.53-4.237 9 11.125.53 11.653 4.76-14.83-2.65-8.474 12.18 2.12 43.43 12.18-14.3-16.42-26.49-4.236-13.77-2.65 10.06-6.353 5.29-4.237-5.83-3.71-15.36 6.357 6.35-12.71-1.06-9.534-13.77 9.53-3.18 11.65-4.24-17.48-9.01-7.94 4.24 13.24z" fill="#30632b"/>
  <path d="M1387.735 91.724l-51.377-22.775-48.2-14.31 30.72-11.66-24.893-10.6-16.95-5.83-49.788-4.77-21.716-5.3-27.54-18.01-14.3 5.82-12.71 10.06 24.36-10.06 14.3 6.35 16.95 12.71 64.62 6.35 36.55 12.71-22.24 9.01v7.95l41.85 12.71 38.14 12.71 33.37 19.06 6.36 5.82m-213.98 0l7.42-23.3 19.6 11.12 11.12.53-29.66-15.89-9.53 7.41-3.17 14.3" fill="#30632b"/>
  <path d="M1362.31 83.78l-51.906-13.242-41.313-7.945 3.71-6.356 6.36-11.653 11.13-.53-21.71-4.766-25.95-3.708-27.01-7.415 3.71 7.945 29.66 6.885 24.37 2.65-7.94 12.18.53 9.535 24.37 5.296 58.26 11.653 14.83 6.88 14.83 9 1.06-3.18m-215.05-36.54l-27.01-7.42-33.37 1.58 11.13-6.36 25.42.53h13.77l11.13 5.29" fill="#c5d451"/>
  <path d="M1089.535 42.466l9.935 8.257-2.26-6.432 65.948-14.53-39.724 2.12-50.848 10.59" fill="#30632b"/>
</svg>
