<svg width="500" height="190" viewBox="0 0 1771.6535 673.22834" xmlns="http://www.w3.org/2000/svg">
  <path d="M-.505 422.687l9.79-6.244 5.715-.358.714-7.857 3.93-.714s2.5-7.857 1.07-7.143c-1.428.72-9.643 1.79-9.643 1.79l-8.57 3.57 4.29-8.21 13.93-1.78-2.5-3.93-6.43-7.14-8.21 6.79 2.5-12.14 10.72-2.14 9.29 6.79s4.65-3.57 7.15-3.93c2.5-.35 14.65.36 14.65.36l-12.14 6.79-7.14 10.72-.35 5.72 10.35-1.78s2.5-12.5 5.36-13.57c2.86-1.07 16.07-.35 16.07-.35l3.22 5.72 13.57-2.5 7.86-8.21 3.22-4.64v-8.93l-10.71-4.64-2.86-6.43 3.2-13.95 2.86 9.64 1.79 6.43 1.43-12.5-1.07-7.5 5.36-3.92 12.5-2.14-8.93 7.86 2.5 6.07 5.36-5 3.57-7.85 5 .72v10.36l-9.28 8.57-1.78 6.79 8.22-1.78-1.07-6.07 7.86-1.79-2.5 10.72-6.79 3.57 7.86 2.86 6.07-3.93 7.5-1.43s4.28-7.5 1.78-8.57c-2.5-1.07-4.28-3.21-4.28-3.21l-4.64-4.64 3.57-1.07 15 1.78 1.79 23.22 10.36 6.07 15.36 14.64s48.93 5.36 51.43 4.29 15.36-4.64 15.36-4.64l5.72 1.79 8.57-2.5h16.78l3.21 6.79-3.22 15.36-5.356-10-6.783-6.07-6.07.35-10 5.718-3.93 4.646 8.57 6.07 4.64 6.43 8.21-4.29 16.07-2.5 2.14-6.43 15-2.5 8.573 4.29 6.43-1.783 4.64-1.43 4.64 3.577 5 6.43 1.07 12.5s3.93 3.93 6.07 3.93 13.57-1.43 13.57-1.43l5.36-12.5.36-15.36 13.57-2.5 2.14 6.79 7.14-1.43 12.14 3.57 8.21 5.71 7.14 4.65h12.146l7.5 7.5 5.71-.35-6.43-7.5 12.5-2.5 7.5 4.282 4.29-5 8.93-3.21 18.57 3.21-2.14-9.286 2.86-12.86 10.357-1.784 10.36.72-13.22-7.5c10 6.07 23.93-7.858 23.93-7.858l12.14 22.5-5.35-17.5-9.64-9.64-6.07-3.93 18.93 2.86 18.57.36 12.86-1.79L520 378.6l-4.286 9.642H545l1.43 7.5 7.5 5.714-2.5 13.214 17.856-3.93 10.357 3.93 4.643 8.57 12.143-.715 7.85-10.714-6.79-3.57-6.43-3.93 5.36-6.43-3.58-5.71-6.79-1.78 2.86-5.35s6.07-8.57 8.57-8.21c2.5.36 10.35 5.72 10.35 5.72l-6.79 9.65 2.5 7.15 9.28-8.93-2.5-8.92-6.07-5.71 8.57-2.14 4.64 5.36 5.35-5.71 10.36 5.36 5.71 5.71 16.43 5 1.43 7.14 1.28 77.65L.38 473.7" fill="#33691E"/>
  <path d="M654.452 389.67l13.572-6.07 11.428-3.572 2.5-12.143-5.714-5.715s-5-1.07-6.43-1.428c-1.427-.357-8.927-1.786-8.927-1.786l10-2.857-2.14-5 4.65-8.58-.71-6.07 25.72-3.57 4.65 4.64 5.72 2.85 8.22-3.93 6.43 11.78s10 17.14 8.57 17.14c-1.42 0-21.42-7.86-21.42-7.86l-11.07-6.07-3.21 8.57 4.65 11.07-6.43 3.21-2.5 12.86 5.72 4.64s18.22 2.14 17.5-1.07c-.71-3.22-6.07-16.08-6.07-16.08l-3.57-4.65-1.43-5.36 15.71.71 7.86 7.14 2.85 5 8.21-3.21 9.29 4.28 15.72-2.86 10.72 6.78 5 7.5-13.92-2.86-6.43-2.14-17.14 3.93s7.5 3.93 8.93 4.29c1.43.36 15.71.71 15.71.71l5.71 5.72s2.5 7.14-2.5 6.07c-5-1.07-18.93-5.36-18.93-5.36l10.36 11.78 10.35 2.87 24.29 3.57 7.86-9.64 8.93-.36s5.71 9.284 5.36 5c-.36-4.288-2.5-15.716-2.5-15.716l10.71-8.21 19.64 1.78s-5-6.784-6.78-6.784c-1.79 0-17.86-3.21-17.86-3.21l9.287-3.57 16.43 1.79s7.855 6.43 6.784 4.28c-1.07-2.14 0-12.14-4.29-12.5-4.29-.36-14.29-1.79-14.29-1.79l13.21-7.5 8.93 10 8.93-1.43s8.93-3.93 10.72-3.93c1.79 0 18.21 2.5 18.21 2.5l-11.07 2.856s-13.93 4.29-10 4.64c3.93.36 13.93 4.64 13.93 4.64s7.5 2.86 11.78 3.57c4.29.72 10 4.65 10 4.65l-22.14 3.93-1.07 5.71s-4.28 7.5.36 7.86c4.64.36 22.5 2.5 22.5 2.5l11.07 2.5 18.93 5 15.71 11.07 17.86 3.21 5.714-7.86 34.65-2.14 6.07 2.86 34.65 5 .71-6.43-.715-7.85 18.93 1.43 3.22-7.14 25.356 10s6.786-8.215 5.357-8.93c-1.42-.714-11.42-2.14-11.42-2.14l3.93-4.28 12.14 1.07 10-2.86 15 1.43 11.78-1.43 2.5 3.57 11.07 6.07-1.07 8.58 16.79 6.784s-1.08 6.785.35 7.14c1.42.36 23.57 3.21 23.57 3.21l31.43 2.5-10.72-8.57-10.36.72s-8.217-1.43-3.93-2.15c4.283-.71 13.21-5 13.21-5s10-1.78 6.07-3.93c-3.923-2.14-7.85-4.64-10.71-4.64-2.86 0-10 .36-10 .36l3.214-6.43 16.07-3.93 10.714 3.575 12.86-2.86 7.5 6.43 25.35-.36s1.43 5.35 2.86 5.35 17.14-6.07 17.14-6.07l1.07-10s6.08-3.57-3.92-3.93c-10-.35-19.64-1.07-19.64-1.07l5-9.28 9.64 2.86 7.144-6.79 6.07-10.36 13.22 3.57 6.07 8.215 11.07-6.43-11.07-5 15-1.785 6.78 8.214 8.21 12.5-15.71 9.64 16.07 11.07 6.43-8.57 5.71 7.86 16.07-6.07 16.42 1.09-1.79 7.854 8.21 12.14 16.43 4.645-1.01 41.305-767.29-.9-10.63-42.91" fill="#33691E"/>
  <path d="M1005.036 393.7l13.572-6.07 11.428-3.572 2.5-12.143-5.714-5.714s-5-1.07-6.43-1.42c-1.427-.36-8.927-1.78-8.927-1.78l10-2.85-2.143-5 4.643-8.57-.714-6.07 25.72-3.57 4.65 4.65 5.72 2.86 8.22-3.92 6.43 11.79s10 17.15 8.57 17.15c-1.42 0-21.42-7.85-21.42-7.85l-11.07-6.07-3.21 8.57 4.65 11.07-6.43 3.22-2.5 12.86 5.72 4.64s18.22 2.14 17.5-1.07c-.71-3.22-6.07-16.07-6.07-16.07l-3.57-4.64-1.43-5.35 15.72.71 7.86 7.15 2.86 5 8.21-3.21 9.29 4.29 15.72-2.86 10.72 6.79 5 7.5-13.93-2.86-6.43-2.14-17.14 3.93s7.5 3.928 8.93 4.28c1.42.358 15.71.71 15.71.71l5.71 5.72s2.5 7.148-2.5 6.07c-5-1.07-18.93-5.36-18.93-5.36l10.36 11.79 10.36 2.86 24.29 3.57 7.86-9.644 8.93-.354s5.72 9.28 5.36 5c-.36-4.29-2.5-15.72-2.5-15.72l10.71-8.21 19.65 1.78s-5-6.785-6.78-6.785-17.856-3.22-17.856-3.22l9.287-3.573 16.43 1.79s7.856 6.43 6.785 4.29c-1.07-2.14 0-12.14-4.28-12.5-4.29-.35-14.29-1.78-14.29-1.78l13.22-7.5 8.93 10 8.93-1.42s8.93-3.93 10.71-3.93c1.79 0 18.22 2.5 18.22 2.5l-11.07 2.86s-13.93 4.29-10 4.65c3.93.36 13.93 4.645 13.93 4.645s7.5 2.86 11.79 3.57c4.28.71 10 4.64 10 4.64l-22.148 3.93-1.07 5.72s-4.29 7.5.35 7.86c4.64.36 22.5 2.5 22.5 2.5l11.07 2.5 18.93 5 15.71 11.07 17.86 3.22 5.71-7.85 34.65-2.146 6.07 2.86 34.64 5 .71-6.43-.71-7.857 18.93 1.43 3.21-7.148 25.36 10s6.785-8.216 5.36-8.93c-1.43-.715-11.43-2.14-11.43-2.14l3.92-4.29 12.14 1.07 10-2.856 15 1.43 11.78-1.43 2.5 3.57 11.07 6.07-1.07 8.57 16.79 6.79s-1.07 6.782.36 7.14c1.43.36 23.57 3.21 23.57 3.21l31.43 2.5-10.71-8.57-10.36.71s-8.21-1.42-3.93-2.14c4.29-.71 13.22-5 13.22-5s10-1.78 6.07-3.92c-3.93-2.15-7.86-4.65-10.72-4.65-2.86 0-10 .36-10 .36l3.212-6.43 16.07-3.93 10.71 3.57 12.85-2.86 7.5 6.43 25.36-.36s1.43 5.36 2.86 5.36 17.14-6.07 17.14-6.07l1.07-10s6.07-3.57-3.93-3.93c-10-.36-19.645-1.07-19.645-1.07l5-9.29 9.64 2.86 7.14-6.784 6.07-10.36 13.21 3.57 6.07 8.21 11.07-6.43-11.07-5 15-1.783 6.788 8.22 8.21 12.5-15.715 9.64 16.07 11.07 6.43-8.57 5.71 7.86 16.075-6.07 16.43 1.07-1.79 7.86 8.218 12.14 14.91-10.51-.51 52.417-764.762-1.905-12.14-37.86" fill="#33691E"/>
  <path d="M2.02 447.46c5.05 0 81.823-8.587 84.853-8.587 3.03 0 101.52-2.02 101.52-2.02s104.046.505 107.077.505c3.03 0 135.865 8.586 135.865 8.586l103.036-1.01s68.19 3.03 70.21 3.03c2.02 0 122.74-9.596 122.74-9.596l176.78 7.07 99 3.03 269.71-2.524 114.15 6.06 99.5 4.042 124.25-4.546 114.15-2.02 48.99 3.03-1.51 151.018L0 597.972-.505 448.47" fill="#e64a19"/>
  <path d="M1772.857 449.657c-3.93-.714-98.214-1.786-98.214-1.786l-174.286 6.08-25.357.72-185.357-10.35-81.786-.35-191.786 3.22-125.71-3.57-97.85-3.93-62.14-1.07-13.57-.71-109.64 9.29-72.16-3.95-86.78 1.08-107.85-5.71-43.21-2.14-46.43-1.07-87.85.36-81.43 2.15-82.14 8.93.36 11.43 412.86-.71 194.29-1.78 209.28-.71 850 9.64 107.15-2.14" fill="#533a32"/>
  <path d="M468.84 392.867l7.16-64.64 5.714-102.856-2.143-30.71-30-28.57-22.14-8.93-43.93-2.85-28.57-2.85 10.72-2.14 28.57 2.15 5.72-4.28-24.64-11.43-13.57-13.57-26.42-16.43-6.07-11.78 7.5 2.86 8.22 5.72 18.57 1.79 14.65-4.64 5-1.79h10.72l-15.71 5.71 13.22 10.36s3.93 11.79 5.36 14.64c1.43 2.85 14.29 11.78 14.29 11.78l29.29 8.58L456 154.3l4.286-2.143-6.072-6.43s-6.785-9.642-4.285-8.213c2.5 1.43 13.57 5.357 13.57 5.357l3.21-6.78-11.43-2.85-6.07-4.64 5.35-.71 12.5 2.86v-7.5l-3.93-5s-7.5-4.28-10.36-4.28c-2.86 0-22.5-3.21-22.5-3.21l10.35-1.43 13.92 2.5-15.71-11.79-14.29-10.36 14.64 2.14 6.07 8.57 17.14 10.36 9.28 4.64 5.71.36 7.14-2.85 6.43 2.15s-1.79 5-4.29 5-7.5 1.07-7.5 1.07l-.36 8.22 5 1.43 7.86-5 5-3.21h17.14l3.22-3.93-10.71-10.35 13.21-1.07 9.64 8.57 7.14 10.36-9.29 2.14-17.85 3.22s-16.07 2.85-20.36 2.85c-4.28 0-10.71 2.5-10.71 2.5l-2.86 6.07-.36 3.58 9.284 2.86 17.5-.71 8.93 4.29 16.78-8.21-4.28-9.64-.72-4.643 16.07-4.644-1.07 13.22 6.43 1.07 13.93-3.214 5.71-2.144 11.07-7.86s9.643-1.07 11.072-1.07c1.42 0 8.92-1.07 8.92-1.07s-4.28-7.14-6.07-7.14c-1.78 0-10-2.14-10-2.14l-15.71-1.79-10.355-1.43-7.146-3.57-64.64-8.93-15.36-11.43-35-32.854-11.79-3.22 17.5-6.07L462 62.586 472.734 84l28.57 10.72 1.79-3.218.36-9.64-14.28-10.35L491 61.1l1.07-5.712 5.36-3.21v5.36l-2.5 8.93 3.212 5.72 13.57 7.14.36 7.5 2.15 10 5.36-6.43-1.42-8.57L516 68.59l1.07-7.86 2.86-7.5 4.64-6.43 8.218-1.07-1.786 5-7.5 7.14-.713 10 1.78 3.57 7.5-3.93-1.42-4.64 10.72-4.64 8.93-4.64 3.57 1.43-6.07 2.85-10.36 6.43-4.29 6.43-4.65 2.147 8.21 1.43H546s.714 3.927-2.143 3.927c-2.857 0-11.786-.714-11.786-.714l-4.28 1.43.72 4.285-4.28 10 9.65 2.855 6.43-3.57 4.29-4.642 9.29-.716 6.79-1.43.35-6.437-3.21-8.214 6.07-3.93 8.57 1.07-6.08 8.57-1.78 9.29-8.6 5.72-5.71 2.5-1.78 6.07 11.07-2.14 2.15 5 3.57 3.57 5 2.15 13.22-2.5 2.5 5.72 6.07 1.07 7.86-1.78 3.55-12.16 1.07-13.93 2.86-8.92-.71-23.57 3.93-7.5 3.22.72-.35 6.79-2.14 5-.35 3.21 7.145-1.78 5-5 3.214-3.57 3.214.72-10 13.57 2.86 2.5 8.57-5.36s8.93-2.85 10.72-3.93c1.79-1.07 8.57-6.42 8.57-6.42l6.43 1.07-13.57 6.43-10.36 5.72-4.64 4.65-11.43 8.21-6.42 8.93-1.78 8.57-3.93 14.64.36 5.71-3.57 7.15 17.15-.71 3.22-6.78s-.71-3.57 5.36-6.07c6.08-2.5 16.08-10.71 17.5-10.71 1.43 0 12.15-6.43 12.15-6.43l5.72 1.43-7.5 7.15-10 2.86-4.28 7.15.357 5.72 11.785 2.5 10-3.57s15-2.86 16.783-3.21c1.79-.35 19.64-1.78 19.64-1.78s5.353 6.43.353 6.43-23.93 2.5-23.93 2.5l-13.57 2.86 20 1.79h14.646l2.5 4.29s-18.22 2.14-20 1.79c-1.79-.35-28.22-5-28.22-5l-12.14 3.57-12.5 3.93-15 1.43-13.93-.36-9.29 2.86s-4.64 4.64-6.78 6.43-16.79 9.29-16.79 9.29l-11.07 8.21s-2.146 9.65-2.146 12.15-1.43 15.717-1.43 15.717l-4.29 38.93-.55 162.37-30.02-1.08 4.18-9.93 12.5-7.59-9.58 1.285-18.92 1.088-17.57-4.223 13.584 13.42 4.87 17.15-11.727-21.6-12.67 14.78" fill="#795548"/>
  <path d="M547.786 180.014c3.214 0 22.5-3.214 22.5-3.214l12.5-9.643 18.57-4.286 7.5-2.5 12.5-15.71s3.215-11.78 5-11.78H631l-7.857 16.08-10.357 11.07 22.143 3.22 8.92-6.78s12.14-2.86 14.64-.36 17.14 6.08 17.14 6.08l5.71.36-14.65 1.79-24.29.36s-2.15 3.57-5.36 3.22c-3.22-.36-8.93-1.43-8.93-1.43l-14.65 1.07-12.86 2.86-6.79.72-2.5 5.72-8.22 6.07-.71 5.36 19.64 1.79.71 3.57s5 2.86-.72 2.86-20.36-.36-20.36-.36l-12.86.36-9.64 3.21-6.79 6.43-6.43 10.36-12.14 3.93-10.36-24.29" fill="#795548"/>
  <path d="M452.522 459.33l-2.526 6.06-12.627 6.818s-9.6 1.515-10.61 1.263c-1.01-.25-8.84-1.26-8.84-1.26s-7.33-2.02-9.09-2.02c-1.77 0-16.67.76-16.67.76l-9.09-.5-4.55-2.27-7.83-5.3 10.35 10.11 10.6 2.27 9.59-1.76-7.33 4.3-2.78 3.03-7.83 5.05-9.34 6.57-2.78 9.34 4.8-6.56 6.56-5.3 7.07-4.04 7.32-6.06 6.82-5.05 4.29-.51 9.59.51 7.07 3.03h3.53l-10.36 5.05-11.36 10.61-12.13 8.33-6.06 3.79-6.06 3.79-9.85 1.52-5.3.5 12.62 1.52s11.36-1.51 12.37-2.02c1.01-.5 9.09-5.55 9.09-5.55l10.86-9.09 11.36-9.34 15.66-8.84 12.88-6.31 11.11-8.08 3.79-5.56h1.26l-.51 7.33-5.05 8.58-8.08 3.03-15.66 4.8-5.31 6.32-6.31 8.33-6.57 10.61 14.65-17.42 7.83-4.8 14.9-4.04-15.13 13.37-9.85 10.61-6.82 13.64L415.87 548l-9.596 15.4-3.534 4.04 7.576-4.3 7.58-9.35 4.04-8.08 4.8-17.43 3.53-9.34 8.84-10.605-1.52 6.565-5.81 13.135-3.53 12.12-1.765 6.82-5.55 8.08 8.84-10.1 6.32-16.41 8.08-15.408 5.31-14.9 9.09-8.84 10.36-8.588 6.57-8.84 1.01 4.04-2.27 20.46 2.53 15.91-7.07 10.86-9.09 4.8-8.58 3.79-9.59 6.56-7.58 1.51 7.33 1.51 8.08-4.55 2.52-2.78-3.79 8.33-3.54 8.58-1.77 3.79 1.77 6.56 1.26-9.85 5.05-9.34 3.79-9.34 7.83-4.04 5.81-3.03-5.05 9.59-4.04 10.35-4.54 11.11-3.03 5.55-8.08 4.54 10.36-4.04 4.3-3.79 3.28-9.09 4.3-13.638 5.3-9.35 6.57-11.364 1.76 8.84 1.77 12.12-3.03 15.66-5.05 8.84-12.63 12.12 20.455-17.17 8.08-13.64 3.28-13.14V517.9l-4.54-14.65-2.78-12.12 1.01-11.368 5.05-18.18 2.524 14.65L499 492.9l2.78 14.14v16.67l1.515 17.42 5.81 11.62 5.31 7.32 6.57 5.3L512.1 550l-3.28-11.618-1.265-5.555 10.1 4.548 8.33 1.778 8.08 7.83 6.318 5.81 6.82 3.285-7.827-6.82-6.565-8.334 6.57 3.79 5.05 7.328 10.61 5.806 3.54-.255-9.59-6.82-9.09-9.34s-2.78-2.525-5.81-2.777c-3.03-.254-14.39-4.547-14.39-4.547l6.82-2.28 12.12 3.79-9.59-6.32-5.81.5-7.83 1.51-7.07-7.07-.75-15.66-3.28-16.67 14.14 12.12 6.82 9.09 7.82 9.85 6.32 5.05 11.36 2.27-8.33-3.79-11.37-11.87-6.31-8.84-14.39-14.65-5.56-7.07-4.54-11.62-.25-12.12 1.01-2.78 14.65 8.84 8.34 9.08 2.52 5.81 2.53 11.11 2.28 9.35s20.45 19.7 19.44 19.7c-1.01 0-9.35-13.89-9.35-13.89l-5.81-9.09-2.772-14.14 11.11 16.41 13.633 13.89 13.64 7.57 15.158 7.57 13.138 9.09 4.04 5.05-8.59-14.4-9.85-6.57-16.67-5.81-8.84-6.06-5.56-7.07 8.33 2.78 10.86 6.562 10.1 3.536 10.1 6.31-9.6-10.1-17.42-8.84-21.97-12.88-8.59-15.41-13.64-16.92 23.99 16.16 15.15 9.35 14.4 10.355 11.368 13.89 12.63 9.35 13.135 5.3 14.14 1.77 8.08-1.26-20.46-5.56-14.65-8.58-16.92-16.416-14.14-13.64-8.84-5.308 15.91-2.777 9.6-.5 7.32 2.78 5.56 4.29 8.84 8.84 10.605 7.575 7.83 5.31 8.08 12.63-5.81-13.89-8.84-7.325-9.85-5.81s-7.83-8.84-8.84-9.6c-1.01-.76-4.8-4.29-4.8-4.29l18.184 1.52 11.363-3.54 10.353-9.85-10.86 6.31-14.145 2.02-22.22-2.02-18.69 1.51-12.63.504-13.13-5.05-3.783-5.56 5.81-12.12-77.782-.506" fill="#533a32"/>
  <path d="M356 100.728c-2.857-1.428-18.93-1.07-18.93-1.07l-10.713 3.57 11.072 10.357 23.92 7.143 3.93 4.286-7.15.714s-11.07 3.93-14.65 3.93c-3.57 0-13.22-1.073-13.22-1.073s-3.93 8.572-2.5 8.93c1.42.356 12.85 13.928 12.85 13.928s26.07 3.214 26.42 0c.36-3.215 17.14-11.072 17.14-11.072s5.36 2.86 3.22-4.64c-2.15-7.5-2.5-8.93-2.5-8.93l8.57 3.93 9.64 3.22 8.21-3.21-4.65-5.35s-12.86-3.92-12.86-5.71 0-16.43-1.79-16.43-10-2.14-10-2.14l-6.43-2.14-4.64-11.43-6.79 3.22-4.64-1.07-3.57 1.07m62.15-8.92l-25.72-2.5 9.28-6.79 16.78-1.43 11.78 5.72 19.28 3.57 3.22 11.79-24.29.36-9.29-2.14m-36.79-47.5c-4.64-1.78-20-10-20-10l15.72-8.21 38.57 1.07 23.93 7.14 4.64-5.71 22.5 8.57-7.15 6.79-4.29 5.36L478.78 59l-20.72 1.07-31.78-3.93-25.33-.37 14.64-10-7.856-5.35-13.22 3.22m93.217 5.71l-8.57-5 5.36-5.36 17.5-.36 10 12.14 10 8.57-21.78.714-12.5 2.5M483.5 96.8L506 85.728l26.786 8.215 23.57 9.285-38.927 6.072-31.43 8.57-14.29-4.285-3.22-7.5 3.57-9.642-2.5-20 7.86 12.5 10.35-11.786 1.78 10m39.65-38.214c2.14 0 15.35 3.214 15.35 3.214l17.86-9.286s6.78-4.64 4.28-6.07c-2.5-1.43-16.43-7.14-16.43-7.14l-24.65-.71-9.28 10 .72 7.86m56.78 27.5s15.71 14.28 18.21 14.28 20.71-5.71 20.71-5.71l18.21.36 10-9.64-11.07-7.5-19.29-5-22.14 3.93-18.93-2.5-11.43 1.43 1.78 8.93m49.28-25.02l30.37 11.43 20-5 18.22-5s-5.72-10.35-8.22-8.57c-2.5 1.79-30.71 7.5-30.71 7.5l-12.5-2.14 7.15-7.14s-2.14-2.5-3.57-4.28c-1.43-1.78-2.86-8.93-6.78-10.35-3.93-1.43-17.5-1.78-17.5-1.78s-17.5 6.07-15.36 6.07c2.14 0 18.57 5.72 18.57 5.72s10.71 3.22 9.28 3.57c-1.43.36-24.29 5-24.29 5l7.14 5m25.355 66.79c-4.28.72-23.93 5.36-23.93 5.36l15 8.57v11.07l11.07 5-13.21 9.29L626 163.6l27.5 5s-4.284 10 1.07 9.645c5.36-.36 35-2.146 35-2.146l-1.425-8.22s-22.5-3.21-23.93-3.57c-1.43-.35-4.647-12.85-4.647-12.85l-21.07-2.86-8.93-15 6.08-.71s12.5-4.64 11.787-6.42c-.71-1.79-7.86-7.86-7.86-7.86M651 91.09l9.643 10.36 24.286-6.076 27.14 4.29 3.57-10.36-8.22-8.57-28.22 1.43 7.14-7.14 1.43-10.358-12.15.354-7.5 8.93-8.22 3.927s-10.72-4.64-14.29-3.925c-3.58.71 2.5 9.64 2.5 9.64m28.93 37.85l35.36 9.642 25.71-7.5 2.5-12.143-25.72-4.64-25.36 1.43-19.64 2.86" fill="#3e6928"/>
</svg>
