<svg width="500" height="130" viewBox="0 0 1771.6535 460.62992" xmlns="http://www.w3.org/2000/svg">
  <g fill="#bd6530">
    <path d="M141.07 394.916L150 315.63l5.714-102.857-2.143-30.715-30-28.57-22.14-8.93L57.5 141.7l-28.57-2.856 10.713-2.143 28.57 2.15 5.716-4.28-24.65-11.43-13.57-13.57L9.28 93.13 3.21 81.344l7.5 2.857 8.214 5.72L37.5 91.7l14.643-4.642 5-1.785h10.714l-15.714 5.714 13.214 10.357s3.93 11.786 5.357 14.643C72.144 118.844 85 127.773 85 127.773l29.286 8.57 15.714 5.36 4.286-2.143-6.072-6.428s-6.785-9.643-4.285-8.214c2.5 1.428 13.57 5.357 13.57 5.357l3.21-6.786-11.43-2.86-6.07-4.65 5.35-.72 12.5 2.85v-7.5l-3.93-5s-7.5-4.29-10.36-4.29c-2.86 0-22.5-3.21-22.5-3.21l10.35-1.43 13.92 2.5-15.7-11.78-14.29-10.36 14.64 2.14 6.08 8.57 17.15 10.36 9.28 4.64 5.72.36 7.14-2.86 6.43 2.15s-1.79 5-4.29 5-7.5 1.07-7.5 1.07l-.36 8.21 5 1.43 7.86-5 5-3.21h17.14l3.21-3.93-10.71-10.35 13.21-1.07 9.64 8.57 7.14 10.36-9.29 2.14-17.86 3.21s-16.07 2.85-20.36 2.85c-4.29 0-10.72 2.5-10.72 2.5l-2.86 6.07-.36 3.57 9.29 2.85 17.5-.72 8.93 4.28 16.78-8.22-4.29-9.64-.71-4.65 16.07-4.65-1.07 13.21 6.42 1.07 13.93-3.22 5.71-2.14 11.07-7.85s9.64-1.07 11.07-1.07c1.43 0 8.93-1.08 8.93-1.08s-4.29-7.14-6.07-7.14c-1.79 0-10-2.14-10-2.14l-15.72-1.78-10.36-1.43-7.15-3.57L154.58 87l-15.35-11.42-35-32.86-11.78-3.21 17.5-6.07 26.07 16.43 10.705 21.42L175.295 82l1.79-3.213.36-9.647-14.28-10.34 1.8-10.35 1.07-5.71 5.36-3.216v5.36l-2.5 8.93 3.216 5.71 13.57 7.144.36 7.5 2.15 10 5.36-6.42-1.42-8.57-2.14-13.2 1.07-7.855 2.86-7.5 4.64-6.43 8.22-1.07-1.78 5-7.5 7.15-.71 10 1.78 3.57 7.5-3.927-1.42-4.646 10.71-4.64L224.3 41l3.57 1.43-6.07 2.858-10.36 6.428-4.286 6.43-4.643 2.144 8.22 1.428H220s.714 3.93-2.143 3.93c-2.857 0-11.786-.713-11.786-.713l-4.28 1.427.72 4.285-4.28 10 9.65 2.856 6.43-3.57 4.29-4.64 9.29-.716 6.79-1.427.36-6.43-3.21-8.214 6.07-3.93 8.58 1.072-6.07 8.57-1.78 9.287-8.58 5.7-5.71 2.5-1.79 6.075 11.07-2.143 2.15 5 3.58 3.57 5 2.145 13.21-2.5 2.5 5.712 6.07 1.07 7.86-1.785 3.56-12.15 1.07-13.93 2.86-8.93-.71-23.57 3.93-7.5 3.22.71-.35 6.78-2.14 5-.35 3.21 7.15-1.79 5-5 3.214-3.57 3.21.72-10 13.57 2.86 2.5 8.57-5.36s8.93-2.85 10.72-3.93c1.79-1.07 8.57-6.43 8.57-6.43l6.43 1.08-13.57 6.43-10.36 5.71-4.64 4.64-11.43 8.22-6.42 8.93-1.79 8.57-3.93 14.64.36 5.71-3.57 7.14 17.15-.72 3.22-6.79s-.76-3.57 5.31-6.07c6.07-2.5 16.07-10.72 17.5-10.72 1.43 0 12.14-6.43 12.14-6.43l5.714 1.43-7.5 7.14-10 2.85-4.29 7.14.35 5.71 11.78 2.5 10-3.57s15-2.86 16.78-3.22c1.78-.36 19.64-1.78 19.64-1.78s5.35 6.43.35 6.43-23.93 2.5-23.93 2.5l-13.57 2.86 20 1.79h14.65l2.5 4.29s-18.21 2.15-20 1.79c-1.78-.36-28.21-5-28.21-5l-12.15 3.6-12.5 3.93-15 1.43-13.93-.36-9.287 2.86s-4.647 4.64-6.79 6.43c-2.15 1.78-16.79 9.28-16.79 9.28l-11.07 8.22s-2.14 9.65-2.14 12.15-1.43 15.71-1.43 15.71l-4.29 38.93.716 175L205 399.92"/>
    <path d="M221.786 167.416c3.214 0 22.5-3.215 22.5-3.215l12.5-9.64 18.57-4.28 7.5-2.5 12.5-15.71s3.215-11.78 5-11.78H305l-7.857 16.07-10.357 11.08 22.143 3.22 8.92-6.78s12.14-2.85 14.64-.35 17.14 6.07 17.14 6.07l5.71.36-14.65 1.79-24.29.36s-2.15 3.58-5.36 3.22c-3.22-.35-8.93-1.43-8.93-1.43l-14.65 1.08-12.86 2.85-6.79.72-2.5 5.72-8.22 6.07-.71 5.36 19.64 1.79.71 3.57s5 2.86-.72 2.86-20.36-.36-20.36-.36l-12.86.36-9.64 3.21-6.79 6.43-6.43 10.36-12.14 3.93-10.36-24.29"/>
  </g>
  <g fill="#4caf50">
    <path d="M-.505 410.09l9.79-6.246 5.715-.357.714-7.857 3.93-.714s2.5-7.858 1.07-7.143c-1.428.714-9.643 1.785-9.643 1.785L2.5 393.13l4.286-8.214 13.928-1.786-2.5-3.93-6.428-7.142-8.215 6.786 2.5-12.143 10.72-2.14 9.29 6.79s4.65-3.57 7.15-3.93c2.5-.36 14.65.36 14.65.36l-12.14 6.78-7.14 10.72-.35 5.72 10.36-1.79s2.5-12.5 5.36-13.57c2.86-1.07 16.07-.35 16.07-.35l3.21 5.72 13.58-2.5 7.85-8.21 3.22-4.64v-8.93l-10.72-4.64-2.85-6.43 3.21-13.94 2.86 9.65 1.78 6.43 1.43-12.5-1.07-7.5 5.36-3.93 12.5-2.14-8.93 7.86 2.5 6.07 5.36-5 3.57-7.85 5 .72v10.36l-9.28 8.57-1.78 6.79 8.22-1.78-1.07-6.07 7.86-1.78-2.5 10.72-6.78 3.57 7.86 2.86 6.07-3.92 7.5-1.43s4.28-7.5 1.78-8.57c-2.5-1.07-4.28-3.21-4.28-3.21l-4.64-4.64 3.57-1.07 15 1.78 1.79 23.22 10.36 6.07 15.35 14.64s48.93 5.36 51.43 4.29c2.5-1.07 15.36-4.64 15.36-4.64l5.71 1.78 8.57-2.5h16.78l3.21 6.79-3.22 15.35-5.36-10-6.78-6.07-6.07.36-10 5.72-3.93 4.64 8.57 6.07 4.65 6.43 8.22-4.3 16.07-2.5 2.15-6.43 15-2.5 8.57 4.29 6.43-1.78 4.64-1.42 4.64 3.57 5 6.43 1.07 12.5s3.93 3.93 6.07 3.93c2.15 0 13.57-1.43 13.57-1.43l5.36-12.5.36-15.355 13.57-2.5 2.15 6.786 7.14-1.42L374 396.8l8.21 5.71 7.14 4.64h12.14l7.5 7.5 5.71-.36-6.43-7.5 12.5-2.5 7.5 4.287 4.29-5 8.93-3.21 18.56 3.2-2.14-9.282 2.86-12.86 10.36-1.79 10.36.72-13.214-7.5c10 6.07 23.93-7.86 23.93-7.86l12.14 22.5-5.36-17.5-9.64-9.64-6.07-3.93 18.93 2.86 18.57.36 12.858-1.78-13.563 8.2-4.285 9.65H545l1.43 7.5 7.5 5.72-2.5 13.22 17.856-3.93 10.357 3.93 4.643 8.57 12.143-.71 7.85-10.71-6.79-3.57-6.43-3.93 5.36-6.42-3.58-5.716-6.79-1.79 2.86-5.36s6.07-8.57 8.57-8.217c2.5.36 10.35 5.72 10.35 5.72l-6.79 9.65 2.5 7.15 9.28-8.93-2.5-8.93-6.07-5.71 8.57-2.144 4.64 5.357 5.35-5.71 10.36 5.36 5.71 5.715 16.42 5 1.43 7.146 1.28 77.64L.4 461.1"/>
    <path d="M654.452 377.072l13.572-6.07 11.428-3.573 2.5-12.15-5.714-5.72s-5-1.07-6.43-1.43c-1.427-.36-8.927-1.79-8.927-1.79l10-2.86-2.14-5 4.65-8.57-.71-6.08 25.72-3.57 4.65 4.64 5.72 2.85 8.22-3.93 6.43 11.78s10 17.14 8.57 17.14c-1.42 0-21.42-7.86-21.42-7.86l-11.07-6.08-3.21 8.57 4.65 11.08-6.43 3.21-2.5 12.86 5.72 4.64s18.22 2.14 17.5-1.07c-.71-3.21-6.07-16.07-6.07-16.07l-3.57-4.64-1.43-5.36 15.71.71 7.86 7.14 2.85 5 8.21-3.22 9.29 4.28 15.72-2.86 10.72 6.78 5 7.5-13.92-2.86-6.43-2.15L742 376.3s7.5 3.93 8.93 4.29c1.426.355 15.71.71 15.71.71l5.71 5.715s2.5 7.14-2.5 6.07c-5-1.07-18.93-5.36-18.93-5.36l10.36 11.786 10.356 2.86 24.26 3.59 7.856-9.64 8.93-.35s5.71 9.29 5.36 5c-.36-4.28-2.5-15.71-2.5-15.71l10.713-8.21 19.64 1.79s-5-6.78-6.78-6.78c-1.78 0-17.85-3.21-17.85-3.21l9.288-3.57 16.43 1.79s7.86 6.43 6.79 4.29c-1.07-2.14 0-12.14-4.29-12.5-4.283-.36-14.283-1.79-14.283-1.79l13.217-7.5 8.93 10 8.93-1.43s8.93-3.92 10.71-3.92c1.79 0 18.22 2.5 18.22 2.5l-11.08 2.85s-13.93 4.29-10 4.64c3.93.36 13.93 4.64 13.93 4.64s7.5 2.86 11.784 3.57 10 4.65 10 4.65L887.67 381l-1.07 5.715s-4.29 7.5.354 7.858c4.65.358 22.5 2.5 22.5 2.5l11.08 2.5 18.93 5 15.716 11.07 17.854 3.217 5.71-7.857 34.643-2.14 6.07 2.856 34.644 5 .72-6.43-.71-7.86 18.93 1.43 3.22-7.15 25.36 10s6.79-8.22 5.36-8.93c-1.43-.72-11.43-2.14-11.43-2.14l3.93-4.29 12.14 1.07 10-2.86 15 1.43 11.79-1.43 2.5 3.57 11.08 6.07-1.07 8.57 16.79 6.78s-1.07 6.78.36 7.14c1.43.36 23.57 3.21 23.57 3.21l31.43 2.5-10.72-8.58-10.35.71s-8.21-1.43-3.93-2.14c4.29-.72 13.22-5 13.22-5s10-1.79 6.07-3.93c-3.93-2.15-7.86-4.65-10.72-4.65s-10 .36-10 .36l3.22-6.43 16.07-3.93 10.72 3.57 12.86-2.86 7.5 6.43 25.36-.36s1.43 5.36 2.86 5.36 17.14-6.07 17.14-6.07l1.07-10s6.07-3.58-3.93-3.93c-10-.36-19.64-1.07-19.64-1.07l5-9.29 9.64 2.86 7.14-6.79 6.07-10.36 13.21 3.57 6.07 8.21 11.07-6.43-11.07-5 15-1.78 6.79 8.21 8.21 12.5-15.71 9.65 16.07 11.07 6.43-8.57 5.71 7.86 16.07-6.07 16.43 1.07-1.79 7.86 8.22 12.14 16.43 4.64-1.01 41.3-767.29-.9-10.63-42.91"/>
    <path d="M1005.036 381.103l13.572-6.072 11.428-3.57 2.5-12.14-5.714-5.71s-5-1.07-6.43-1.43c-1.427-.35-8.927-1.78-8.927-1.78l10-2.85-2.143-5 4.643-8.57-.714-6.07 25.72-3.57 4.65 4.65 5.72 2.86 8.22-3.93 6.43 11.79s10 17.15 8.57 17.15c-1.42 0-21.42-7.85-21.42-7.85l-11.07-6.07-3.21 8.57 4.65 11.07-6.43 3.22-2.5 12.86 5.72 4.64s18.22 2.14 17.5-1.07c-.71-3.21-6.07-16.07-6.07-16.07l-3.57-4.64-1.43-5.36 15.72.72 7.86 7.14 2.86 5 8.21-3.21 9.29 4.29 15.72-2.85 10.72 6.79 5 7.5-13.93-2.86-6.43-2.14-17.14 3.93s7.5 3.93 8.93 4.29c1.42.36 15.71.71 15.71.71l5.71 5.72s2.5 7.14-2.5 6.07c-5-1.07-18.93-5.36-18.93-5.36l10.36 11.79 10.36 2.86 24.29 3.57 7.86-9.64 8.93-.35s5.72 9.29 5.36 5c-.36-4.28-2.5-15.71-2.5-15.71l10.71-8.21 19.65 1.79s-5-6.78-6.78-6.78-17.85-3.22-17.85-3.22l9.29-3.57 16.43 1.79s7.86 6.43 6.79 4.28c-1.07-2.14 0-12.14-4.28-12.5-4.29-.35-14.29-1.78-14.29-1.78l13.22-7.5 8.93 10 8.93-1.43s8.93-3.93 10.71-3.93c1.79 0 18.22 2.5 18.22 2.5l-11.07 2.86s-13.93 4.29-10 4.64c3.93.36 13.93 4.65 13.93 4.65s7.5 2.86 11.79 3.57 10 4.64 10 4.64l-22.15 3.93-1.07 5.71s-4.29 7.5.35 7.86c4.64.36 22.5 2.5 22.5 2.5l11.07 2.5 18.93 5 15.71 11.07 17.86 3.21 5.71-7.86 34.65-2.14 6.07 2.86 34.64 5 .71-6.43-.71-7.86 18.93 1.43 3.22-7.14 25.36 10s6.78-8.21 5.357-8.93c-1.426-.71-11.426-2.14-11.426-2.14l3.925-4.282 12.145 1.07 10-2.86 15 1.43 11.78-1.43 2.5 3.57 11.07 6.08-1.07 8.57 16.782 6.79s-1.07 6.78.36 7.14c1.43.354 23.57 3.21 23.57 3.21l31.43 2.5L1573 423l-10.36.71s-8.214-1.43-3.93-2.14c4.286-.72 13.214-5 13.214-5s10-1.79 6.07-3.93c-3.93-2.145-7.86-4.645-10.72-4.645-2.86 0-10 .355-10 .355l3.213-6.43 16.07-3.92 10.71 3.57 12.85-2.86 7.5 6.43 25.353-.36s1.43 5.36 2.86 5.36 17.143-6.07 17.143-6.07l1.07-10s6.07-3.57-3.93-3.93c-10-.36-19.643-1.07-19.643-1.07l5-9.29 9.64 2.86 7.14-6.78 6.07-10.35 13.21 3.57 6.07 8.21 11.074-6.43-11.072-5 15-1.783 6.79 8.22 8.22 12.5-15.715 9.64 16.07 11.07 6.43-8.57 5.71 7.86 16.07-6.07 16.43 1.07-1.79 7.854 8.21 12.14 14.91-10.51-.51 52.41-764.77-1.91-12.147-37.86"/>
  </g>
  <path d="M30 88.13c-2.857-1.43-18.93-1.072-18.93-1.072L.358 90.63l11.072 10.357 23.927 7.143 3.93 4.286-7.144.714s-11.072 3.928-14.643 3.928c-3.57 0-13.214-1.07-13.214-1.07s-3.93 8.57-2.5 8.928c1.428.357 12.857 13.928 12.857 13.928s26.07 3.214 26.428 0c.36-3.214 17.15-11.07 17.15-11.07s5.36 2.856 3.22-4.644-2.5-8.93-2.5-8.93l8.57 3.93 9.65 3.214 8.22-3.214-4.64-5.357s-12.85-3.93-12.85-5.715c0-1.785 0-16.428-1.78-16.428s-10-2.143-10-2.143l-6.42-2.143L45 74.916l-6.786 3.214-4.643-1.072L30 78.13m62.143-8.93L66.43 66.7l9.284-6.784 16.786-1.43 11.786 5.715 19.285 3.58 3.22 11.79-24.28.36-9.28-2.14m-36.78-47.5c-4.64-1.78-20-10-20-10l15.72-8.21 38.57 1.07 23.93 7.15 4.65-5.71 22.5 8.57-7.14 6.79-4.28 5.36 22.5 11.07-20.71 1.08-31.78-3.93-25.41-.4 14.65-10-7.85-5.35L68.58 31m93.22 5.713l-8.57-5 5.36-5.355 17.5-.356 10 12.143 10 8.57-21.78.718-12.5 2.5M157.5 84.2L180 73.13l26.786 8.214 23.57 9.286-38.927 6.07-31.43 8.573-14.29-4.286-3.22-7.5 3.57-9.643-2.5-20 7.86 12.5 10.35-11.786 1.78 10m39.65-38.214c2.14 0 15.35 3.214 15.35 3.214l17.86-9.285s6.79-4.643 4.29-6.073c-2.5-1.42-16.43-7.14-16.43-7.14l-24.65-.71-9.28 10 .72 7.86m56.79 27.49s15.71 14.29 18.21 14.29 20.72-5.71 20.72-5.71l18.21.36L315 61l-11.07-7.5-19.29-5-22.142 3.93-18.93-2.5-11.42 1.428 1.784 8.93m49.28-25L313.57 46.7l20-5 18.216-5s-5.715-10.356-8.215-8.57c-2.5 1.786-30.71 7.5-30.71 7.5l-12.5-2.143 7.15-7.143s-2.14-2.5-3.57-4.286c-1.43-1.785-2.86-8.928-6.78-10.357-3.93-1.42-17.5-1.78-17.5-1.78s-17.5 6.07-15.35 6.07c2.15 0 18.57 5.72 18.57 5.72s10.72 3.22 9.29 3.58c-1.43.36-24.29 5-24.29 5l7.15 5m25.36 66.79c-4.28.72-23.93 5.36-23.93 5.36l15 8.57v11.08l11.07 5-13.21 9.29 10.71 9.64 27.5 5s-4.28 10 1.07 9.65c5.36-.36 35-2.14 35-2.14l-1.42-8.21s-22.5-3.21-23.93-3.57c-1.43-.35-4.64-12.85-4.64-12.85l-21.07-2.86-8.93-15 6.08-.71s12.5-4.64 11.79-6.43c-.72-1.79-7.86-7.86-7.86-7.86M325 78.49l9.644 10.355 24.286-6.07 27.14 4.284 3.57-10.36-8.214-8.57-28.216 1.43 7.143-7.15 1.43-10.36-12.144.35-7.5 8.93-8.22 3.93s-10.72-4.65-14.29-3.93c-3.58.71 2.5 9.64 2.5 9.64m28.93 37.85l35.36 9.64 25.71-7.5 2.5-12.15-25.71-4.64-25.36 1.43-19.64 2.86" fill="#4caf50"/>
</svg>
