<?xml version="1.0" encoding="UTF-8" standalone="no"?>
<!-- Created with Inkscape (http://www.inkscape.org/) -->

<svg
   xmlns:dc="http://purl.org/dc/elements/1.1/"
   xmlns:cc="http://creativecommons.org/ns#"
   xmlns:rdf="http://www.w3.org/1999/02/22-rdf-syntax-ns#"
   xmlns:svg="http://www.w3.org/2000/svg"
   xmlns="http://www.w3.org/2000/svg"
   xmlns:sodipodi="http://sodipodi.sourceforge.net/DTD/sodipodi-0.dtd"
   xmlns:inkscape="http://www.inkscape.org/namespaces/inkscape"
   width="500mm"
   height="190mm"
   viewBox="0 0 1771.6535 673.22834"
   id="svg6670"
   version="1.1"
   inkscape:version="0.91 r13725"
   sodipodi:docname="tree2.svg">
  <defs
     id="defs6672" />
  <sodipodi:namedview
     id="base"
     pagecolor="#ffffff"
     bordercolor="#666666"
     borderopacity="1.0"
     inkscape:pageopacity="0.0"
     inkscape:pageshadow="2"
     inkscape:zoom="0.98994949"
     inkscape:cx="840.40691"
     inkscape:cy="-13.006106"
     inkscape:document-units="px"
     inkscape:current-layer="layer9"
     showgrid="false"
     inkscape:window-width="3751"
     inkscape:window-height="2127"
     inkscape:window-x="89"
     inkscape:window-y="33"
     inkscape:window-maximized="1" />
  <metadata
     id="metadata6675">
    <rdf:RDF>
      <cc:Work
         rdf:about="">
        <dc:format>image/svg+xml</dc:format>
        <dc:type
           rdf:resource="http://purl.org/dc/dcmitype/StillImage" />
        <dc:title></dc:title>
      </cc:Work>
    </rdf:RDF>
  </metadata>
  <g
     inkscape:groupmode="layer"
     id="layer10"
     inkscape:label="Layer 3"
     transform="translate(0,212.59843)">
    <path
       style="fill:#795548;fill-opacity:1;fill-rule:evenodd;stroke:none;stroke-width:1px;stroke-linecap:butt;stroke-linejoin:miter;stroke-opacity:1"
       d="m 141.07137,194.91563 8.92857,-79.28572 5.71429,-102.85714 -2.14286,-30.71429 -30,-28.57142 -22.14286,-8.92858 -43.928571,-2.85714 -28.571429,-2.85714 10.714286,-2.14286 28.571429,2.14286 5.714286,-4.28572 -24.642858,-11.42857 -13.571428,-13.57143 -26.4285717,-16.42857 -6.0714286,-11.78571 7.5000003,2.85714 8.214285,5.71429 18.571429,1.78571 14.642857,-4.64286 5,-1.78571 10.714286,0 -15.714286,5.71429 13.214286,10.35714 c 0,0 3.928571,11.78571 5.357143,14.64286 1.428571,2.85714 14.285714,11.78571 14.285714,11.78571 l 29.285711,8.57143 15.71429,5.35714 4.28571,-2.14286 -6.07142,-6.42857 c 0,0 -6.78572,-9.64285 -4.28572,-8.21428 2.5,1.42857 13.57143,5.35714 13.57143,5.35714 l 3.21429,-6.78571 -11.42858,-2.85715 -6.07142,-4.64285 5.35714,-0.71429 12.5,2.85714 0,-7.5 -3.92857,-5 c 0,0 -7.5,-4.28571 -10.35715,-4.28571 -2.85714,0 -22.5,-3.21429 -22.5,-3.21429 l 10.35715,-1.42857 13.92857,2.5 -15.71429,-11.78571 -14.285712,-10.35715 14.642862,2.14286 6.07142,8.57143 17.14286,10.35714 9.28572,4.64286 5.71428,0.35714 7.14286,-2.85714 6.42857,2.14286 c 0,0 -1.78571,5 -4.28571,5 -2.5,0 -7.5,1.07143 -7.5,1.07143 l -0.35715,8.21428 5,1.42857 7.85715,-5 5,-3.21428 17.14285,0 3.21429,-3.92857 -10.71429,-10.35715 13.21429,-1.07143 9.64286,8.57143 7.14285,10.35715 -9.28571,2.14285 -17.85714,3.21429 c 0,0 -16.07143,2.85714 -20.35715,2.85714 -4.28571,0 -10.71428,2.5 -10.71428,2.5 l -2.85715,6.07143 -0.35714,3.57143 9.28572,2.85714 17.5,-0.71428 8.92857,4.28571 16.78571,-8.21429 -4.28571,-9.64285 -0.71429,-4.64286 16.07143,-4.64286 -1.07143,13.21429 6.42857,1.07143 13.92857,-3.21429 5.71429,-2.14286 11.07143,-7.85714 c 0,0 9.64286,-1.07143 11.07143,-1.07143 1.42857,0 8.92857,-1.07143 8.92857,-1.07143 0,0 -4.28572,-7.14285 -6.07143,-7.14285 -1.78571,0 -10,-2.14286 -10,-2.14286 l -15.71429,-1.78571 -10.35714,-1.42858 -7.14286,-3.57142 -64.64285,-8.92858 -15.35715,-11.42857 -35,-32.85714 -11.785711,-3.21429 17.500001,-6.07142 26.07143,16.42857 10.71428,21.42857 28.57143,10.71428 1.78572,-3.21428 0.35714,-9.64286 -14.28571,-10.35714 1.78571,-10.35714 1.07143,-5.71429 5.35714,-3.21429 0,5.35715 -2.5,8.92857 3.21429,5.71428 13.57143,7.14286 0.35714,7.5 2.14286,10 5.35714,-6.42857 -1.42857,-8.57143 -2.14286,-13.21428 1.07143,-7.85715 2.85714,-7.5 4.64286,-6.42857 8.21428,-1.07143 -1.78571,5 -7.5,7.14286 -0.71429,10 1.78572,3.57143 7.5,-3.92857 -1.42857,-4.64286 10.71428,-4.64286 8.92857,-4.64285 3.57143,1.42857 -6.07143,2.85714 -10.35714,6.42857 -4.28571,6.42857 -4.64286,2.14286 8.21429,1.42857 9.28571,0 c 0,0 0.71429,3.92857 -2.14286,3.92857 -2.85714,0 -11.78571,-0.71428 -11.78571,-0.71428 l -4.28572,1.42857 0.71429,4.28571 -4.28571,10 9.64285,2.85715 6.42857,-3.57143 4.28572,-4.64286 9.28571,-0.71429 6.78572,-1.42857 0.35714,-6.42857 -3.21429,-8.21428 6.07143,-3.92858 8.57143,1.07143 -6.07143,8.57143 -1.78571,9.28572 -8.57143,5.71428 -5.71429,2.5 -1.78571,6.07143 11.07143,-2.14286 2.14286,5 3.57142,3.57143 5,2.14286 13.21429,-2.5 2.5,5.71428 6.07143,1.07143 7.85714,-1.78571 3.57143,-12.14286 1.07143,-13.92857 2.85714,-8.92857 -0.71428,-23.57143 3.92857,-7.5 3.21428,0.71429 -0.35714,6.78571 -2.14286,5 -0.35714,3.21429 7.14286,-1.78572 5,-5 3.21428,-3.57143 3.21429,0.71429 -10,13.57143 2.85714,2.5 8.57143,-5.35715 c 0,0 8.92857,-2.85714 10.71429,-3.92857 1.78571,-1.07143 8.57142,-6.42857 8.57142,-6.42857 l 6.42858,1.07143 -13.57143,6.42857 -10.35715,5.71429 -4.64285,4.64285 -11.42857,8.21429 -6.42858,8.92857 -1.78571,8.57143 -3.92857,14.64286 0.35714,5.71428 -3.57143,7.14286 17.14286,-0.71429 3.21429,-6.78571 c 0,0 -0.71429,-3.57143 5.35714,-6.07143 6.07143,-2.5 16.07143,-10.71428 17.5,-10.71428 1.42857,0 12.14286,-6.42858 12.14286,-6.42858 l 5.71428,1.42858 -7.5,7.14285 -10,2.85715 -4.28571,7.14285 0.35714,5.71429 11.78571,2.5 10,-3.57143 c 0,0 15,-2.85714 16.78572,-3.21429 1.78571,-0.35714 19.64286,-1.78571 19.64286,-1.78571 0,0 5.35714,6.42857 0.35714,6.42857 -5,0 -23.92857,2.5 -23.92857,2.5 l -13.57143,2.85714 20,1.78572 14.64286,0 2.5,4.28571 c 0,0 -18.21429,2.14286 -20,1.78572 -1.78572,-0.35715 -28.21429,-5 -28.21429,-5 l -12.14286,3.57143 -12.5,3.92857 -15,1.42857 -13.92857,-0.35714 -9.28571,2.85714 c 0,0 -4.64286,4.64286 -6.78572,6.42857 -2.14285,1.78571 -16.78571,9.28571 -16.78571,9.28571 l -11.07143,8.21429 c 0,0 -2.14286,9.64286 -2.14286,12.14286 0,2.5 -1.42857,15.71428 -1.42857,15.71428 l -4.28571,38.92857 0.71428,175 -15.35714,10.35715"
       id="path7298"
       inkscape:connector-curvature="0" />
    <path
       style="fill:#795548;fill-opacity:1;fill-rule:evenodd;stroke:none;stroke-width:1px;stroke-linecap:butt;stroke-linejoin:miter;stroke-opacity:1"
       d="m 221.78565,-32.58437 c 3.21429,0 22.5,-3.21429 22.5,-3.21429 l 12.5,-9.64286 18.57143,-4.28571 7.5,-2.5 12.5,-15.71429 c 0,0 3.21429,-11.78571 5,-11.78571 1.78572,0 4.64286,0 4.64286,0 l -7.85714,16.07143 -10.35715,11.07143 22.14286,3.21428 8.92857,-6.78571 c 0,0 12.14286,-2.85714 14.64286,-0.35714 2.5,2.5 17.14286,6.07142 17.14286,6.07142 l 5.71428,0.35715 -14.64285,1.78571 -24.28572,0.35714 c 0,0 -2.14286,3.57143 -5.35714,3.21429 -3.21429,-0.35714 -8.92857,-1.42857 -8.92857,-1.42857 l -14.64286,1.07143 -12.85714,2.85714 -6.78572,0.71429 -2.5,5.71428 -8.21428,6.07143 -0.71429,5.35714 19.64286,1.78572 0.71428,3.57143 c 0,0 5,2.85714 -0.71428,2.85714 -5.71429,0 -20.35714,-0.35714 -20.35714,-0.35714 l -12.85715,0.35714 -9.64285,3.21428 -6.78572,6.42858 -6.42857,10.35714 -12.14286,3.92857 -10.35714,-24.28571"
       id="path7300"
       inkscape:connector-curvature="0" />
  </g>
  <g
     inkscape:label="Layer 1"
     inkscape:groupmode="layer"
     id="layer1"
     transform="translate(0,-379.13385)">
    <path
       style="fill:#4caf50;fill-opacity:1;fill-rule:evenodd;stroke:none;stroke-width:1px;stroke-linecap:butt;stroke-linejoin:miter;stroke-opacity:1"
       d="m -0.50513731,801.8212 9.79079061,-6.24472 5.7142857,-0.35714 0.714286,-7.85715 3.928571,-0.71428 c 0,0 2.5,-7.85715 1.071429,-7.14286 -1.428572,0.71429 -9.642857,1.78571 -9.642857,1.78571 l -8.571429,3.57143 4.2857143,-8.21428 13.9285717,-1.78572 -2.5,-3.92857 -6.428572,-7.14286 -8.2142854,6.78572 2.5,-12.14286 10.7142854,-2.14286 9.285715,6.78572 c 0,0 4.642857,-3.57143 7.142857,-3.92857 2.5,-0.35715 14.642857,0.35714 14.642857,0.35714 l -12.142857,6.78571 -7.142857,10.71429 -0.357143,5.71429 10.357143,-1.78572 c 0,0 2.5,-12.5 5.357142,-13.57143 2.857143,-1.07143 16.071429,-0.35714 16.071429,-0.35714 l 3.214286,5.71429 13.571428,-2.5 7.857143,-8.21429 3.214286,-4.64286 0,-8.92857 -10.714286,-4.64286 -2.857143,-6.42857 3.214286,-13.92857 2.857143,9.64286 1.785714,6.42857 1.428572,-12.5 -1.071429,-7.5 5.357143,-3.92857 12.499998,-2.14286 -8.928569,7.85714 2.5,6.07143 5.357142,-5 3.571427,-7.85714 5,0.71429 0,10.35714 -9.285712,8.57143 -1.785715,6.78571 8.214287,-1.78571 -1.07143,-6.07143 7.85714,-1.78572 -2.5,10.71429 -6.78571,3.57143 7.85714,2.85714 6.07143,-3.92857 7.5,-1.42857 c 0,0 4.28572,-7.5 1.78572,-8.57143 -2.5,-1.07143 -4.28572,-3.21429 -4.28572,-3.21429 l -4.64286,-4.64285 3.57143,-1.07143 15,1.78571 1.78572,23.21429 10.35714,6.07143 15.35714,14.64285 c 0,0 48.92857,5.35715 51.42857,4.28572 2.5,-1.07143 15.35715,-4.64286 15.35715,-4.64286 l 5.71428,1.78572 8.57143,-2.5 16.78572,0 3.21428,6.78571 -3.21428,15.35714 -5.35715,-10 -6.78571,-6.07143 -6.07143,0.35715 -10,5.71428 -3.92857,4.64286 8.57143,6.07143 4.64285,6.42857 8.21429,-4.28571 16.07143,-2.5 2.14286,-6.42858 15,-2.5 8.57142,4.28572 6.42858,-1.78572 4.64285,-1.42857 4.64286,3.57143 5,6.42857 1.07143,12.50001 c 0,0 3.92857,3.9286 6.07143,3.9286 2.14285,0 13.57143,-1.4286 13.57143,-1.4286 l 5.35714,-12.50001 0.35714,-15.35714 13.57143,-2.5 2.14286,6.78571 7.14285,-1.42857 12.14286,3.57143 8.21429,5.71429 7.14285,4.64285 12.14286,0 7.5,7.50004 5.71429,-0.3572 -6.42857,-7.49998 12.5,-2.5 7.5,4.28568 4.28571,-4.99996 8.92857,-3.21429 18.57143,3.21429 -2.14286,-9.28572 2.85715,-12.85714 10.35714,-1.78572 10.35714,0.71429 -13.21428,-7.5 c 10,6.07143 23.92857,-7.85714 23.92857,-7.85714 l 12.14285,22.5 -5.35714,-17.5 -9.64286,-9.64286 -6.07142,-3.92857 18.92857,2.85714 18.57143,0.35714 12.85714,-1.78571 -13.57143,8.21429 -4.28571,9.64285 11.42857,0 17.85714,0 1.42857,7.5 7.5,5.71429 -2.5,13.21428 17.85714,-3.92857 10.35715,3.92857 4.64285,8.57144 12.14286,-0.7143 7.85714,-10.71428 -6.78571,-3.57143 -6.42857,-3.92857 5.35714,-6.42857 -3.57143,-5.71429 -6.78571,-1.78571 2.85714,-5.35714 c 0,0 6.07143,-8.57143 8.57143,-8.21429 2.5,0.35714 10.35714,5.71429 10.35714,5.71429 l -6.78571,9.64285 2.5,7.14286 9.28571,-8.92857 -2.5,-8.92857 -6.07143,-5.71429 8.57143,-2.14285 4.64286,5.35714 5.35714,-5.71429 10.35715,5.35715 5.71428,5.71428 16.42857,5 1.42857,7.14286 1.28064,77.64362 -657.64793215,-0.4439"
       id="path7240"
       inkscape:connector-curvature="0"
       sodipodi:nodetypes="cccccsccccccccccscccccscccccccccccccccccccccccccccccccscccccccscccccccccccccccccccccccscccccccccccccccccccccccccccccccccccccccccccccccccsccccccccccccccc" />
    <path
       style="fill:#4caf50;fill-opacity:1;fill-rule:evenodd;stroke:none;stroke-width:1px;stroke-linecap:butt;stroke-linejoin:miter;stroke-opacity:1"
       d="m 654.4523,768.80422 13.57143,-6.07143 11.42857,-3.57143 2.5,-12.14286 -5.71429,-5.71428 c 0,0 -5,-1.07143 -6.42857,-1.42858 -1.42857,-0.35714 -8.92857,-1.78571 -8.92857,-1.78571 l 10,-2.85714 -2.14286,-5 4.64286,-8.57143 -0.71429,-6.07143 25.71429,-3.57143 4.64286,4.64286 5.71428,2.85714 8.21429,-3.92857 6.42857,11.78571 c 0,0 10,17.14286 8.57143,17.14286 -1.42857,0 -21.42857,-7.85714 -21.42857,-7.85714 l -11.07143,-6.07143 -3.21429,8.57143 4.64286,11.07143 -6.42857,3.21428 -2.5,12.85715 5.71428,4.64285 c 0,0 18.21429,2.14286 17.5,-1.07143 -0.71428,-3.21428 -6.07142,-16.07142 -6.07142,-16.07142 l -3.57143,-4.64286 -1.42857,-5.35714 15.71428,0.71428 7.85714,7.14286 2.85715,5 8.21428,-3.21429 9.28572,4.28572 15.71428,-2.85715 10.71429,6.78572 5,7.5 -13.92857,-2.85714 -6.42857,-2.14286 -17.14286,3.92857 c 0,0 7.5,3.92857 8.92857,4.28571 1.42857,0.35715 15.71429,0.71429 15.71429,0.71429 l 5.71428,5.71429 c 0,0 2.5,7.14285 -2.5,6.07142 -5,-1.07142 -18.92857,-5.35714 -18.92857,-5.35714 l 10.35714,11.78572 10.35715,2.85714 24.28571,3.57143 7.85714,-9.64286 8.92857,-0.35714 c 0,0 5.71429,9.28571 5.35715,5 -0.35715,-4.28572 -2.5,-15.71429 -2.5,-15.71429 l 10.71428,-8.21428 19.64286,1.78571 c 0,0 -5,-6.78571 -6.78571,-6.78571 -1.78572,0 -17.85715,-3.21429 -17.85715,-3.21429 l 9.28572,-3.57143 16.42857,1.78572 c 0,0 7.85714,6.42857 6.78571,4.28571 -1.07143,-2.14286 0,-12.14286 -4.28571,-12.5 -4.28572,-0.35714 -14.28572,-1.78571 -14.28572,-1.78571 l 13.21429,-7.5 8.92857,10 8.92857,-1.42858 c 0,0 8.92857,-3.92857 10.71429,-3.92857 1.78571,0 18.21428,2.5 18.21428,2.5 l -11.07142,2.85715 c 0,0 -13.92858,4.28571 -10,4.64285 3.92857,0.35715 13.92857,4.64286 13.92857,4.64286 0,0 7.5,2.85714 11.78571,3.57143 4.28572,0.71428 10,4.64286 10,4.64286 l -22.14286,3.92857 -1.07142,5.71428 c 0,0 -4.28572,7.5 0.35714,7.85715 4.64286,0.35714 22.5,2.5 22.5,2.5 l 11.07143,2.5 18.92857,5 15.71428,11.07138 17.85715,3.2143 5.71424,-7.8571 34.64283,-2.1429 6.0715,2.8572 34.6428,5 0.7143,-6.4286 -0.7143,-7.85714 18.9286,1.42857 3.2143,-7.14286 25.3571,10 c 0,0 6.7857,-8.21428 5.3572,-8.92857 -1.4286,-0.71428 -11.4286,-2.14286 -11.4286,-2.14286 l 3.9286,-4.28571 12.1428,1.07143 10,-2.85714 15,1.42857 11.7857,-1.42857 2.5,3.57142 11.0715,6.07143 -1.0715,8.57143 16.7857,6.7857 c 0,0 -1.0714,6.7857 0.3572,7.1429 1.4286,0.3571 23.5714,3.2143 23.5714,3.2143 l 31.4286,2.5 -10.7143,-8.5715 -10.3571,0.7143 c 0,0 -8.2143,-1.4286 -3.9286,-2.1428 4.2857,-0.7143 13.2143,-5 13.2143,-5 0,0 10,-1.7858 6.0714,-3.9286 -3.9286,-2.14287 -7.8571,-4.64287 -10.7143,-4.64287 -2.8571,0 -10,0.35714 -10,0.35714 l 3.2143,-6.42857 16.0714,-3.92857 10.7143,3.57143 12.8572,-2.85714 7.5,6.42857 25.3571,-0.35715 c 0,0 1.4286,5.35715 2.8571,5.35715 1.4286,0 17.1429,-6.07143 17.1429,-6.07143 l 1.0714,-10 c 0,0 6.0715,-3.57143 -3.9285,-3.92857 -10,-0.35715 -19.6429,-1.07143 -19.6429,-1.07143 l 5,-9.28572 9.6429,2.85715 7.1428,-6.78572 6.0714,-10.35714 13.2143,3.57143 6.0715,8.21428 11.0714,-6.42857 -11.0714,-5 15,-1.78571 6.7857,8.21428 8.2143,12.5 -15.7143,9.64286 16.0714,11.07143 6.4286,-8.57143 5.7143,7.85714 16.0714,-6.07142 16.4286,1.07142 -1.7858,7.85715 8.2143,12.14281 16.4286,4.6429 -1.0102,41.306 -767.2907,-0.8981 -10.62763,-42.9079"
       id="path7265"
       inkscape:connector-curvature="0"
       sodipodi:nodetypes="cccccsccccccccccscccccccsccccccccccccccsccsccccccscccscccssccccsccscscccscccccccccccccccccccccccccccccccccscccccccsccscccccccccccccccccccccccc" />
    <path
       style="fill:#4caf50;fill-opacity:1;fill-rule:evenodd;stroke:none;stroke-width:1px;stroke-linecap:butt;stroke-linejoin:miter;stroke-opacity:1"
       d="m 1005.0364,772.835 13.5714,-6.07143 11.4286,-3.57143 2.5,-12.14286 -5.7143,-5.71428 c 0,0 -5,-1.07143 -6.4286,-1.42858 -1.4285,-0.35714 -8.9285,-1.78571 -8.9285,-1.78571 l 10,-2.85714 -2.1429,-5 4.6429,-8.57143 -0.7143,-6.07143 25.7143,-3.57143 4.6428,4.64286 5.7143,2.85714 8.2143,-3.92857 6.4286,11.78571 c 0,0 10,17.14286 8.5714,17.14286 -1.4286,0 -21.4286,-7.85714 -21.4286,-7.85714 l -11.0714,-6.07143 -3.2143,8.57143 4.6429,11.07143 -6.4286,3.21428 -2.5,12.85715 5.7143,4.64285 c 0,0 18.2143,2.14286 17.5,-1.07143 -0.7143,-3.21428 -6.0714,-16.07142 -6.0714,-16.07142 l -3.5715,-4.64286 -1.4285,-5.35714 15.7142,0.71428 7.8572,7.14286 2.8571,5 8.2143,-3.21429 9.2857,4.28572 15.7143,-2.85715 10.7143,6.78572 5,7.5 -13.9286,-2.85714 -6.4285,-2.14286 -17.1429,3.92857 c 0,0 7.5,3.92857 8.9286,4.28571 1.4285,0.35715 15.7143,0.71429 15.7143,0.71429 l 5.7142,5.71429 c 0,0 2.5,7.14285 -2.5,6.07142 -5,-1.07142 -18.9285,-5.35714 -18.9285,-5.35714 l 10.3571,11.78572 10.3572,2.85714 24.2857,3.57146 7.8571,-9.64289 8.9286,-0.35714 c 0,0 5.7143,9.28573 5.3571,5 -0.3571,-4.28572 -2.5,-15.71429 -2.5,-15.71429 l 10.7143,-8.21428 19.6429,1.78571 c 0,0 -5,-6.78571 -6.7857,-6.78571 -1.7858,0 -17.8572,-3.21429 -17.8572,-3.21429 l 9.2857,-3.57143 16.4286,1.78572 c 0,0 7.8571,6.42857 6.7857,4.28571 -1.0714,-2.14286 0,-12.14286 -4.2857,-12.5 -4.2857,-0.35714 -14.2857,-1.78571 -14.2857,-1.78571 l 13.2143,-7.5 8.9285,10 8.9286,-1.42858 c 0,0 8.9286,-3.92857 10.7143,-3.92857 1.7857,0 18.2143,2.5 18.2143,2.5 l -11.0714,2.85715 c 0,0 -13.9286,4.28571 -10,4.64285 3.9285,0.35715 13.9285,4.64286 13.9285,4.64286 0,0 7.5,2.85714 11.7857,3.57143 4.2858,0.71428 10,4.64286 10,4.64286 l -22.1428,3.92857 -1.0714,5.71428 c 0,0 -4.2858,7.5 0.3571,7.85715 4.6429,0.35714 22.5,2.5 22.5,2.5 l 11.0714,2.5 18.9286,5 15.7143,11.0714 17.8571,3.2143 5.7143,-7.8571 34.6428,-2.1429 6.0715,2.8572 34.6428,5 0.7143,-6.4286 -0.7143,-7.85716 18.9286,1.42857 3.2143,-7.14286 25.3571,10.00005 c 0,0 6.7857,-8.21433 5.3572,-8.92862 -1.4286,-0.71428 -11.4286,-2.14286 -11.4286,-2.14286 l 3.9286,-4.28571 12.1428,1.07143 10,-2.85714 15,1.42857 11.7857,-1.42857 2.5,3.57142 11.0715,6.07143 -1.0715,8.57145 16.7857,6.7857 c 0,0 -1.0714,6.7857 0.3572,7.1429 1.4286,0.3571 23.5714,3.2143 23.5714,3.2143 l 31.4286,2.5 -10.7143,-8.5715 -10.3571,0.7143 c 0,0 -8.2143,-1.4286 -3.9286,-2.1428 4.2857,-0.7143 13.2143,-5 13.2143,-5 0,0 10,-1.7858 6.0714,-3.9286 -3.9286,-2.1429 -7.8571,-4.64289 -10.7143,-4.64289 -2.8571,0 -10,0.35714 -10,0.35714 l 3.2143,-6.42857 16.0714,-3.92857 10.7143,3.57143 12.8572,-2.85714 7.5,6.42857 25.3571,-0.35715 c 0,0 1.4286,5.35718 2.8571,5.35718 1.4286,0 17.1429,-6.07146 17.1429,-6.07146 l 1.0714,-10 c 0,0 6.0715,-3.57143 -3.9285,-3.92857 -10,-0.35715 -19.6429,-1.07143 -19.6429,-1.07143 l 5,-9.28572 9.6429,2.85715 7.1428,-6.78572 6.0714,-10.35714 13.2143,3.57143 6.0715,8.21428 11.0714,-6.42857 -11.0714,-5 15,-1.78571 6.7857,8.21428 8.2143,12.5 -15.7143,9.64286 16.0714,11.07143 6.4286,-8.57143 5.7143,7.85714 16.0714,-6.07142 16.4286,1.07142 -1.7858,7.85715 8.2143,12.14283 14.9134,-10.5094 -0.5051,52.4177 -764.7654,-1.9083 -12.14281,-37.8571"
       id="path7265-9"
       inkscape:connector-curvature="0"
       sodipodi:nodetypes="cccccsccccccccccscccccccscccccccccccccccccsccccccccccscccssccccsccscscccscccccccccccccccccccccccccccccccccscccccccsccscccccccccccccccccccccccc" />
  </g>
  <g
     inkscape:groupmode="layer"
     id="layer9"
     inkscape:label="Layer 2"
     style="display:inline"
     transform="translate(0,212.59843)">
    <path
       style="fill:#3e6928;fill-opacity:1;fill-rule:evenodd;stroke:none;stroke-width:1px;stroke-linecap:butt;stroke-linejoin:miter;stroke-opacity:1"
       d="m 29.999939,-111.87009 c -2.857143,-1.42857 -18.928571,-1.07143 -18.928571,-1.07143 l -10.71428618,3.57143 11.07142818,10.35715 23.928572,7.14285 3.928571,4.28572 -7.142857,0.71428 c 0,0 -11.071428,3.92857 -14.642857,3.92857 -3.571429,0 -13.2142857,-1.07142 -13.2142857,-1.07142 0,0 -3.92857148,8.57142 -2.5,8.92857 1.4285714,0.35714 12.8571427,13.92857 12.8571427,13.92857 0,0 26.071429,3.21428 26.428572,0 0.357142,-3.21429 17.142857,-11.07143 17.142857,-11.07143 0,0 5.357143,2.85714 3.214286,-4.64286 -2.142858,-7.5 -2.5,-8.92857 -2.5,-8.92857 l 8.571428,3.92857 9.642857,3.21429 8.214286,-3.21429 -4.642857,-5.35714 c 0,0 -12.857143,-3.92857 -12.857143,-5.71429 0,-1.78571 0,-16.42857 -1.785714,-16.42857 -1.785715,0 -10,-2.14285 -10,-2.14285 l -6.428572,-2.14286 -4.642857,-11.42857 -6.785714,3.21428 -4.642857,-1.07143 -3.571429,1.07143"
       id="path7243"
       inkscape:connector-curvature="0" />
    <path
       style="fill:#3e6928;fill-opacity:1;fill-rule:evenodd;stroke:none;stroke-width:1px;stroke-linecap:butt;stroke-linejoin:miter;stroke-opacity:1"
       d="m 92.142796,-130.79866 -25.714285,-2.5 9.285714,-6.78571 16.785714,-1.42857 11.785711,5.71428 19.28572,3.57143 3.21428,11.78571 -24.28571,0.35715 -9.285715,-2.14286"
       id="path7245"
       inkscape:connector-curvature="0" />
    <path
       style="fill:#3e6928;fill-opacity:1;fill-rule:evenodd;stroke:none;stroke-width:1px;stroke-linecap:butt;stroke-linejoin:miter;stroke-opacity:1"
       d="m 56.428511,-169.72723 c -4.642858,-1.78571 -20.000001,-10 -20.000001,-10 l 15.714286,-8.21429 38.571429,1.07143 23.928575,7.14286 4.64285,-5.71429 22.5,8.57143 -7.14285,6.78572 -4.28572,5.35714 22.5,11.07143 -20.71428,1.07143 -31.78572,-3.92857 -25.357141,-0.35715 14.642857,-10 -7.857143,-5.35714 -13.214285,3.21429"
       id="path7247"
       inkscape:connector-curvature="0" />
    <path
       style="fill:#3e6928;fill-opacity:1;fill-rule:evenodd;stroke:none;stroke-width:1px;stroke-linecap:butt;stroke-linejoin:miter;stroke-opacity:1"
       d="m 161.78565,-163.29866 -8.57142,-5 5.35714,-5.35714 17.5,-0.35714 10,12.14285 10,8.57143 -21.78572,0.71429 -12.5,2.5"
       id="path7249"
       inkscape:connector-curvature="0" />
    <path
       style="fill:#3e6928;fill-opacity:1;fill-rule:evenodd;stroke:none;stroke-width:1px;stroke-linecap:butt;stroke-linejoin:miter;stroke-opacity:1"
       d="m 157.49994,-115.79866 22.5,-11.07143 26.78571,8.21429 23.57143,9.28571 -38.92857,6.07143 -31.42857,8.57143 -14.28571,-4.28571 -3.21429,-7.5 3.57143,-9.64286 -2.5,-20 7.85714,12.5 10.35714,-11.78572 1.78572,10"
       id="path7251"
       inkscape:connector-curvature="0" />
    <path
       style="fill:#3e6928;fill-opacity:1;fill-rule:evenodd;stroke:none;stroke-width:1px;stroke-linecap:butt;stroke-linejoin:miter;stroke-opacity:1"
       d="m 203.21423,-163.6558 c 2.14285,0 15.35714,3.21428 15.35714,3.21428 l 17.85714,-9.28571 c 0,0 6.78572,-4.64286 4.28572,-6.07143 -2.5,-1.42857 -16.42858,-7.14286 -16.42858,-7.14286 l -24.64285,-0.71428 -9.28572,10 0.71429,7.85714"
       id="path7253"
       inkscape:connector-curvature="0" />
    <path
       style="fill:#3e6928;fill-opacity:1;fill-rule:evenodd;stroke:none;stroke-width:1px;stroke-linecap:butt;stroke-linejoin:miter;stroke-opacity:1"
       d="m 247.85708,-138.29866 c 0,0 15.71429,14.28572 18.21429,14.28572 2.5,0 20.71428,-5.71429 20.71428,-5.71429 l 18.21429,0.35714 10,-9.64285 -11.07143,-7.5 -19.28571,-5 -22.14286,3.92857 -18.92857,-2.5 -11.42857,1.42857 1.78571,8.92857"
       id="path7255"
       inkscape:connector-curvature="0" />
    <path
       style="fill:#3e6928;fill-opacity:1;fill-rule:evenodd;stroke:none;stroke-width:1px;stroke-linecap:butt;stroke-linejoin:miter;stroke-opacity:1"
       d="m 283.21423,-164.72723 30.35714,11.42857 20,-5 18.21428,-5 c 0,0 -5.71428,-10.35714 -8.21428,-8.57143 -2.5,1.78572 -30.71429,7.5 -30.71429,7.5 l -12.5,-2.14285 7.14286,-7.14286 c 0,0 -2.14286,-2.5 -3.57143,-4.28572 -1.42857,-1.78571 -2.85714,-8.92857 -6.78571,-10.35714 -3.92857,-1.42857 -17.5,-1.78571 -17.5,-1.78571 0,0 -17.5,6.07142 -15.35715,6.07142 2.14286,0 18.57143,5.71429 18.57143,5.71429 0,0 10.71429,3.21429 9.28572,3.57143 -1.42857,0.35714 -24.28572,5 -24.28572,5 l 7.14286,5"
       id="path7257"
       inkscape:connector-curvature="0" />
    <path
       style="fill:#3e6928;fill-opacity:1;fill-rule:evenodd;stroke:none;stroke-width:1px;stroke-linecap:butt;stroke-linejoin:miter;stroke-opacity:1"
       d="m 300.35708,-97.94152 c -4.28571,0.71429 -23.92857,5.35715 -23.92857,5.35715 l 15,8.57143 0,11.07142 11.07143,5 -13.21429,9.28572 10.71429,9.64286 27.5,5 c 0,0 -4.28571,10 1.07143,9.64285 5.35714,-0.35714 35,-2.14285 35,-2.14285 l -1.42857,-8.21429 c 0,0 -22.5,-3.21429 -23.92857,-3.57143 -1.42858,-0.35714 -4.64286,-12.85714 -4.64286,-12.85714 l -21.07143,-2.85714 -8.92857,-15 6.07143,-0.71429 c 0,0 12.5,-4.64286 11.78571,-6.42857 -0.71428,-1.78572 -7.85714,-7.85714 -7.85714,-7.85714"
       id="path7259"
       inkscape:connector-curvature="0" />
    <path
       style="fill:#3e6928;fill-opacity:1;fill-rule:evenodd;stroke:none;stroke-width:1px;stroke-linecap:butt;stroke-linejoin:miter;stroke-opacity:1"
       d="m 324.99994,-121.51294 9.64286,10.35714 24.28571,-6.07143 27.14286,4.28571 3.57143,-10.35714 -8.21429,-8.57143 -28.21428,1.42857 7.14285,-7.14285 1.42857,-10.35715 -12.14285,0.35715 -7.5,8.92857 -8.21429,3.92857 c 0,0 -10.71428,-4.64286 -14.28571,-3.92857 -3.57143,0.71428 2.5,9.64286 2.5,9.64286"
       id="path7261"
       inkscape:connector-curvature="0" />
    <path
       style="fill:#3e6928;fill-opacity:1;fill-rule:evenodd;stroke:none;stroke-width:1px;stroke-linecap:butt;stroke-linejoin:miter;stroke-opacity:1"
       d="m 351.07137,-91.1558 35.35714,9.64286 25.71429,-7.5 2.5,-12.14286 -25.71429,-4.64286 -25.35714,1.42857 -19.64286,2.85715"
       id="path7263"
       inkscape:connector-curvature="0" />
  </g>
</svg>
