<svg width="500" height="120" xmlns="http://www.w3.org/2000/svg">
  <g fill="#795548">
    <path d="M0 115.18l46.964-2.86 66.607 2.86 66.43-4.823 96.97 2.322 74.29-1.43 47.68 3.03 35.36.53 66.38.05-.74 5.32L.1 119.85"/>
    <path d="M315.546 24.54l-1.515 2.147-.25 2.147.13 2.4.76 2.524.51 1.894.89.884-.25 2.273-3.41 2.27-1.89 2.27-.63 6.06-.754 6.06-4.924 9.97-1.133 5.05-.38 2.9.887.38 1.14-2.91 1.39-4.8 3.91-5.68.88-1.38 1.263-5.81.253 7.823-.757 1.516-1.01 40.026 1.89 1.52.754.38v4.8l-3.03 3.66-.38 1.513 4.67-.63 1.89-.884.76-.38-.125-8.84 6.19-.63.88 8.84-1.64 2.393 8.366.502-2.43-3.154-1.51-8.46 1.77-.38 1.264-33.46-.25-4.677-2.4-3.537-2.78-2.53.377-2.905 3.665-.76 1.64-2.902-3.155-8.334-1.896-4.167s-1.64-1.64-2.27-1.77c-.63-.127-2.78-.506-2.78-.506l.125-1.51 1.39-2.4 1.64-1.52-.126-3.41-1.264-2.27-1.265-1.39-2.15-.38-2.02-.12m-50.28 38.66l-3.3 1.786-1.25 2.143-.09 3.66.98 2.86 1.79 2.32 1.516.893-.442 1.34-2.59 2.674-2.5 4.555-1.16 2.32-.27 4.47-.893 2.86-.27 1.07.625.357.986-.54.45-2.32.446-.27.084-2.768.36-2.41 2.41-3.75-.446 6.61.8 4.91.27 2.5.09 10.806.534 3.39-2.59 1.88 5.45.89.27-2.86-1.07-7.32.445-3.396.357-2.59.808.986.45 2.053.36 5.18.09 8.218 2.23.27-.448-3.304-.18-8.125.536-3.93.714-4.37.36-6.96.09-4.375 1.426.983.8 1.877-.36 2.32-2.053 1.61-.626 2.32.446 1.07 2.142-3.03 2.32-3.214-.538-3.39-1.43-3.75-2.77-3.303-2.41-.54-.09-1.43 1.52-2.32 1.34-2.41.264-3.75-.71-2.5-1.61-1.07-2.943-.714"/>
  </g>
  <path d="M23.393 115.893c.357-4.286.178-39.286.178-39.286l103.4-.893.36 41.072z" fill="#795548"/>
  <path d="M4.643 75.536l1.786-6.072L74.28 17.68l5.178.177 63.75 47.857 4.823 8.572-36.96 4.464-65.35.893-35.53-1.963" fill="#795548"/>
  <path d="M4.107 77.143L25 79.286l49.82 1.964 45.894-1.786 25.357-3.75 3.22-1.785s-4.64-.54-5.71-.36c-1.07.18-14.82 1.96-14.82 1.96l-45 1.07-51.25-.18-16.6-.72-10.54-1.78-2.5 1.25" fill="#46312a"/>
</svg>
