<svg width="500" height="120" xmlns="http://www.w3.org/2000/svg">
  <g fill="#795548">
    <path d="M0 115.18l46.964-2.86 66.607 2.86 66.43-4.823 96.97 2.322 74.29-1.43 47.68 3.03 35.36.53 66.38.05-.74 5.32L.1 119.85"/>
    <path d="M130.548 63.957l-3.304 1.785-1.25 2.143-.09 3.66.983 2.858 1.786 2.32 1.518.894-.44 1.34-2.59 2.678-2.5 4.554-1.16 2.32-.27 4.46-.89 2.86-.26 1.07.63.36.986-.54.446-2.32.447-.27.09-2.77.352-2.41 2.41-3.75-.45 6.6.8 4.91.27 2.5.09 10.8.53 3.39-2.59 1.873 5.45.89.27-2.86-1.073-7.32.447-3.394.357-2.59.805.985.444 2.053.36 5.18.09 8.212 2.23.27-.446-3.306-.18-8.123.537-3.93.72-4.373.358-6.964.09-4.374 1.43.98.808 1.875-.357 2.32-2.057 1.605-.627 2.32.444 1.07 2.14-3.034 2.32-3.213-.532-3.397-1.425-3.75-2.77-3.31-2.41-.54-.09-1.43 1.52-2.32 1.34-2.41.264-3.75-.712-2.5-1.61-1.07-2.943-.714m351.29 2.7l-3.3 1.783-1.25 2.14-.086 3.66.982 2.86 1.783 2.32 1.52.895-.446 1.34-2.588 2.677-2.5 4.556-1.16 2.32-.27 4.465-.89 2.86-.27 1.07.624.36.98-.535.448-2.32.447-.27.09-2.77.356-2.41 2.41-3.75-.45 6.61.803 4.91.265 2.5.09 10.804.533 3.392-2.59 1.873 5.446.892.266-2.86-1.07-7.324.444-3.393.36-2.59.8.983.45 2.05.36 5.18.09 8.215 2.23.27-.442-3.306-.18-8.126.54-3.93.714-4.374.36-6.965.09-4.372 1.43.983.804 1.87-.36 2.32-2.055 1.61-.624 2.32.445 1.075 2.142-3.035 2.32-3.214-.536-3.394-1.43-3.75-2.762-3.304-2.41-.537-.09-1.43 1.517-2.32 1.34-2.41.27-3.75-.716-2.5-1.606-1.07-2.95-.715"/>
  </g>
  <path d="M369.794 114.737c.298-3.772.15-34.58.15-34.58l86.452-.787.298 36.153z" fill="#795548"/>
  <path d="M354.116 79.213l1.493-5.344 56.73-45.59 4.33.15 53.3 42.12L474 78.1l-30.91 3.93-54.65.786-29.712-1.73" fill="#795548"/>
  <path d="M353.668 80.628l17.47 1.886 41.658 1.73 38.374-1.573 21.202-3.3 2.688-1.57s-3.882-.47-4.778-.31c-.896.16-12.393 1.73-12.393 1.73l-37.63.94-42.85-.16-13.89-.63-8.81-1.57-2.09 1.1" fill="#46312a"/>
</svg>
