<svg width="300" height="120" xmlns="http://www.w3.org/2000/svg">
  <g fill="#795548">
    <path d="M0 115.18l46.964-2.86 66.607 2.86 66.43-4.823 96.97 2.322c-2.14-1.64 20.157 2.38 23.317 2.87l-.177 4.64-142.078-.64-157.93.3"/>
    <path d="M130.548 63.957l-3.304 1.785-1.25 2.143-.09 3.66.983 2.858 1.786 2.32 1.518.894-.44 1.34-2.59 2.678-2.5 4.554-1.16 2.32-.27 4.46-.89 2.86-.267 1.07.624.36.983-.54.445-2.32.447-.27.09-2.77.353-2.41 2.41-3.75-.446 6.607.8 4.91.27 2.5.09 10.804.532 3.394-2.59 1.875 5.447.892.27-2.86-1.074-7.32.448-3.395.357-2.59.805.985.445 2.053.36 5.18.09 8.214 2.23.27-.445-3.306-.18-8.125.536-3.93.717-4.375.357-6.964.09-4.374 1.43.98.804 1.876-.357 2.32-2.055 1.608-.625 2.32.446 1.07 2.143-3.034 2.32-3.214-.536-3.393-1.427-3.75-2.77-3.307-2.41-.538-.09-1.43 1.52-2.32 1.34-2.41.264-3.75-.713-2.5-1.61-1.073-2.944-.715"/>
  </g>
</svg>
