<svg width="500" height="120" xmlns="http://www.w3.org/2000/svg">
  <g fill="#795548">
    <path d="M0 115.18l46.964-2.86 66.607 2.86 66.43-4.823 96.97 2.322 74.29-1.43 47.68 3.03 35.36.53 66.38.05-.74 5.32L.1 119.85"/>
    
  </g>
  <path d="M369.794 114.737c.298-3.772.15-34.58.15-34.58l86.452-.787.298 36.153z" fill="#795548"/>
  <path d="M354.116 79.213l1.493-5.344 56.73-45.59 4.33.15 53.3 42.12L474 78.1l-30.91 3.93-54.65.786-29.712-1.73" fill="#795548"/>
  <path d="M353.668 80.628l17.47 1.886 41.658 1.73 38.374-1.573 21.202-3.3 2.688-1.57s-3.882-.47-4.778-.31c-.896.16-12.393 1.73-12.393 1.73l-37.63.94-42.85-.16-13.89-.63-8.81-1.57-2.09 1.1" fill="#46312a"/>
</svg>
