<svg width="500" height="120" xmlns="http://www.w3.org/2000/svg">
  <path d="M0 115.18l46.964-2.86 66.607 2.86 66.43-4.823 96.97 2.322 74.286-1.43 47.68 3.03 35.357.535 66.38.056-.744 5.32L.1 119.853" fill="#795548"/>
  <path d="M47.472 115.273c.3-3.773.15-34.58.15-34.58l86.452-.787.3 36.153zm104.412-2.183c.19-2.537.096-23.255.096-23.255l55.182-.528.19 24.312z" fill="#795548"/>
  <path d="M141.877 89.2l.953-3.593 36.217-30.654 2.764.105 34.03 28.33 2.575 5.073-19.73 2.65-34.88.528-18.967-1.163" fill="#795548"/>
  <path d="M141.59 90.152l11.152 1.27 26.59 1.162 24.495-1.057 13.533-2.22 1.716-1.057s-2.478-.317-3.05-.212c-.572.106-7.91 1.163-7.91 1.163l-24.018.64-27.353-.104-8.863-.422-5.624-1.056-1.334.74" fill="#46312a"/>
  <path d="M31.794 79.75l1.493-5.345 56.74-45.584 4.33.16 53.305 42.13 4.03 7.545-30.907 3.93-54.65.785-29.712-1.73" fill="#795548"/>
  <path d="M31.346 81.164l17.47 1.886 41.66 1.73 38.372-1.573 21.203-3.3 2.69-1.573s-3.88-.47-4.78-.314c-.89.157-12.39 1.73-12.39 1.73l-37.624.942-42.852-.157-13.885-.63-8.81-1.57-2.09 1.1" fill="#46312a"/>
</svg>
